<?xml version="1.0" encoding="UTF-8"?>
<svg id="Layer_2" data-name="Layer 2" xmlns="http://www.w3.org/2000/svg" xmlns:xlink="http://www.w3.org/1999/xlink" viewBox="0 0 52.86 95.55">
  <defs>
    <style>
      .cls-1 {
        fill: #5a93b4;
      }

      .cls-2 {
        fill: #69a1c2;
      }

      .cls-3 {
        fill: #fff;
      }

      .cls-4 {
        fill: #71a2be;
      }

      .cls-5 {
        fill: #db855c;
      }

      .cls-6 {
        fill: #e7b687;
      }

      .cls-7 {
        fill: #79adcb;
      }

      .cls-8 {
        fill: url(#radial-gradient);
      }

      .cls-9 {
        fill: #bf7958;
      }

      .cls-10 {
        fill: #f0c49a;
      }

      .cls-11 {
        fill: #ffd7b1;
      }

      .cls-12 {
        fill: #eea160;
      }
    </style>
    <radialGradient id="radial-gradient" cx="-457.19" cy="351.49" fx="-457.19" fy="351.49" r="13.59" gradientTransform="translate(717.27 401.19) scale(1.51 -1)" gradientUnits="userSpaceOnUse">
      <stop offset="0" stop-color="#000" stop-opacity=".3"/>
      <stop offset="1" stop-color="#000" stop-opacity="0"/>
    </radialGradient>
  </defs>
  <g id="Layer_1-2" data-name="Layer 1">
    <g id="Layer_2-2" data-name="Layer 2">
      <g id="back_FL_FL_FL_FL_FL_FL_FL_FL_FL_FL_FL_FL_FL_FL_FL_FL_FL_FL_FL" data-name="back FL FL FL FL FL FL FL FL FL FL FL FL FL FL FL FL FL FL FL">
        <g id="Symbol_1_0_Layer0_0_FILL" data-name="Symbol 1 0 Layer0 0 FILL">
          <path class="cls-9" d="m45.31,11.55c-5.2-4.07-11.48-6.1-18.85-6.1-7.33,0-13.63,2.03-18.9,6.1-2.03,1.6-3.67,3.33-4.9,5.2-.83,2.43-1.25,5.03-1.25,7.8,0,.07,0,.12,0,.15,0,.17,0,.32,0,.45.03,1.77.15,3.48.35,5.15l.8,12.15c0,.4.02.8.05,1.2.2,2.43.75,4.72,1.65,6.85,1.13,2.8,2.87,5.37,5.2,7.7,4.63,4.67,10.25,7,16.85,7s12.17-2.33,16.8-7c2.5-2.47,4.33-5.08,5.5-7.85.43-1.03.77-2.08,1-3.15,1.3-5.57,1.88-11.03,1.75-16.4-.03-1-.02-1.97.05-2.9,0-.17.02-.35.05-.55.03-.87.05-1.75.05-2.65,0-.03,0-.08,0-.15,0-2.77-.42-5.37-1.25-7.8-1.27-1.87-2.92-3.6-4.95-5.2Z"/>
          <path class="cls-5" d="m26.46,5.45c7.37,0,13.65,2.03,18.85,6.1,2.03,1.6,3.68,3.33,4.95,5.2-1.2-3.53-3.23-6.72-6.1-9.55C39.26,2.4,33.36,0,26.46,0S13.64,2.4,8.71,7.2c-2.87,2.87-4.88,6.05-6.05,9.55,1.23-1.87,2.87-3.6,4.9-5.2,5.27-4.07,11.57-6.1,18.9-6.1Z"/>
        </g>
      </g>
      <g>
        <g id="arm_0_Layer0_0_FILL" data-name="arm 0 Layer0 0 FILL">
          <path class="cls-11" d="m18.54,65.27c.4,1.3.91,2.39,1.52,3.29,1.37,1.98,2.46,3.5,3.29,4.56.82,1.01.78,2.07-.14,3.18-.92,1.06-2.07,1.65-3.46,1.77-1.37.09-2.58-.29-3.64-1.17-2.76-2.24-4.9-4.93-6.43-8.06l8.87-3.57Z"/>
          <path class="cls-7" d="m9.67,68.84c-.99-1.98-1.73-4.14-2.23-6.47-.66-3.11-.88-6.54-.67-10.29.12-1.39.68-2.55,1.7-3.46,1.06-.97,2.27-1.43,3.64-1.38,1.39.02,2.55.54,3.46,1.56.92,1.01,1.34,2.22,1.27,3.61-.17,2.47-.04,4.77.39,6.89.28,2.31.72,4.3,1.31,5.97l-8.87,3.57Z"/>
        </g>
        <g id="arm_0_Layer0_1_FILL" data-name="arm 0 Layer0 1 FILL">
          <path class="cls-1" d="m18.79,62.69l1.48,3.32-10.82,4.88-1.98-3.61,11.31-4.6Z"/>
        </g>
      </g>
      <g>
        <g id="arm_0_Layer0_0_FILL-2" data-name="arm 0 Layer0 0 FILL">
          <path class="cls-11" d="m36.43,65.27c-.4,1.3-.91,2.39-1.52,3.29-1.37,1.98-2.46,3.5-3.29,4.56-.82,1.01-.78,2.07.14,3.18.92,1.06,2.07,1.65,3.46,1.77,1.37.09,2.58-.29,3.64-1.17,2.76-2.24,4.9-4.93,6.43-8.06l-8.87-3.57Z"/>
          <path class="cls-7" d="m45.3,68.84c.99-1.98,1.73-4.14,2.23-6.47.66-3.11.88-6.54.67-10.29-.12-1.39-.68-2.55-1.7-3.46-1.06-.97-2.27-1.43-3.64-1.38-1.39.02-2.55.54-3.46,1.56-.92,1.01-1.34,2.22-1.27,3.61.17,2.47.04,4.77-.39,6.89-.28,2.31-.72,4.3-1.31,5.97l8.87,3.57Z"/>
        </g>
        <g id="arm_0_Layer0_1_FILL-2" data-name="arm 0 Layer0 1 FILL">
          <path class="cls-1" d="m36.18,62.69l-1.48,3.32,10.82,4.88,1.98-3.61-11.31-4.6Z"/>
        </g>
      </g>
      <g id="leg_0_Layer0_0_FILL" data-name="leg 0 Layer0 0 FILL">
        <path class="cls-11" d="m41.01,86.55l.15-5h-9.4v5h9.25Z"/>
        <path class="cls-9" d="m46.61,95.55l.1-3c-3.23-.9-5.15-2.9-5.75-6h-9.2v9h14.85Z"/>
        <path class="cls-12" d="m41.61,72.35c0-1.6-.63-2.97-1.9-4.1-1.23-1.13-2.75-1.7-4.55-1.7s-3.28.57-4.55,1.7c-1.27,1.13-1.9,2.5-1.9,4.1,1.97,1.6,2.98,4.67,3.05,9.2h9.4l.45-9.2Z"/>
      </g>
      <g id="leg_0_Layer0_0_FILL-2" data-name="leg 0 Layer0 0 FILL">
        <path class="cls-11" d="m14.41,86.55l-.15-5h9.4v5h-9.25Z"/>
        <path class="cls-9" d="m8.81,95.55l-.1-3c3.23-.9,5.15-2.9,5.75-6h9.2v9h-14.85Z"/>
        <path class="cls-12" d="m13.81,72.35c0-1.6.63-2.97,1.9-4.1,1.23-1.13,2.75-1.7,4.55-1.7s3.28.57,4.55,1.7c1.27,1.13,1.9,2.5,1.9,4.1-1.97,1.6-2.98,4.67-3.05,9.2h-9.4l-.45-9.2Z"/>
      </g>
      <g>
        <g id="body_0_Layer0_0_FILL" data-name="body 0 Layer0 0 FILL">
          <path class="cls-1" d="m12.21,60.2l.2.8c1.1,3.57,1.62,7.58,1.55,12.05,4.33-4.7,3.75-8.98-1.75-12.85m29.85.8l.2-.8c-5.5,3.87-6.08,8.15-1.75,12.85-.07-4.47.45-8.48,1.55-12.05Z"/>
          <path class="cls-12" d="m39.91,77.65c.43-1.6.63-3.13.6-4.6H13.96c-.03,1.47.17,3,.6,4.6h25.35Z"/>
          <path class="cls-7" d="m42.26,60.2l-.2.8c.83-2.67,1.97-5.05,3.4-7.15.67-3.33-.02-5.07-2.05-5.2H11.56c-2.43-.13-3.3,1.6-2.6,5.2,1.47,2.1,2.62,4.48,3.45,7.15l-.2-.8c5.5,3.87,6.08,8.15,1.75,12.85h26.55c-4.33-4.7-3.75-8.98,1.75-12.85m-5.05.4c0,.53-.97.97-2.9,1.3-1.97.43-4.33.65-7.1.65s-5.08-.22-7.05-.65c-1.93-.33-2.9-.77-2.9-1.3,0-.57.97-1.07,2.9-1.5,1.97-.33,4.32-.5,7.05-.5s5.13.17,7.1.5c1.93.43,2.9.93,2.9,1.5Z"/>
          <path class="cls-2" d="m34.31,61.9c1.93-.33,2.9-.77,2.9-1.3,0-.57-.97-1.07-2.9-1.5-1.97-.33-4.33-.5-7.1-.5s-5.08.17-7.05.5c-1.93.43-2.9.93-2.9,1.5,0,.53.97.97,2.9,1.3,1.97.43,4.32.65,7.05.65s5.13-.22,7.1-.65Z"/>
        </g>
        <g id="body_0_Layer0_1_FILL" data-name="body 0 Layer0 1 FILL">
          <path class="cls-9" d="m41.71,74.65v-5H13.71v5h28Z"/>
        </g>
        <g id="body_0_Layer0_2_FILL" data-name="body 0 Layer0 2 FILL">
          <path class="cls-9" d="m40.51,82.4h.05c.67,0,1.22-.23,1.65-.7.43-.5.58-1.08.45-1.75l-.9-5.55h-5.05l.9,5.55c.13.67.47,1.25,1,1.75.57.47,1.2.7,1.9.7Z"/>
        </g>
        <g id="body_0_Layer0_3_FILL" data-name="body 0 Layer0 3 FILL">
          <path class="cls-10" d="m37.71,47.65c0-2.5-1.02-4.65-3.05-6.45-2.07-1.7-4.55-2.55-7.45-2.55s-5.38.85-7.45,2.55c-2.03,1.8-3.05,3.95-3.05,6.45,0,.17.02.33.05.5.1,2.27,1.1,4.2,3,5.8,2.07,1.8,4.55,2.7,7.45,2.7s5.38-.9,7.45-2.7c1.9-1.6,2.9-3.53,3-5.8.03-.17.05-.33.05-.5Z"/>
        </g>
        <g id="body_0_Layer0_4_FILL" data-name="body 0 Layer0 4 FILL">
          <path class="cls-9" d="m15.81,44.65l-4.1,3.75c6.3,10.17,14.28,18.58,23.95,25.25l4.05-3.7c-8.83-6.33-16.8-14.77-23.9-25.3Z"/>
        </g>
      </g>
      <g id="shadow_0_Layer0_0_FILL" data-name="shadow 0 Layer0 0 FILL">
        <path class="cls-8" d="m42.35,40.15c-3.92-2.6-8.67-3.9-14.24-3.9s-10.38,1.3-14.4,3.9c-3.92,2.67-5.88,5.85-5.88,9.55s1.96,6.85,5.88,9.45c4.02,2.67,8.82,4,14.4,4s10.33-1.33,14.24-4c4.02-2.6,6.03-5.75,6.03-9.45s-2.01-6.88-6.03-9.55Z"/>
      </g>
      <g>
        <g id="headShock_0_Layer0_0_MEMBER_0_FILL" data-name="headShock 0 Layer0 0 MEMBER 0 FILL">
          <path class="cls-11" d="m39.75,35.6c1.71,1.45,3.65,2.08,5.84,1.88s3.99-1.17,5.41-2.9c1.41-1.74,2.02-3.72,1.82-5.94s-1.16-4.06-2.86-5.51c-1.71-1.45-3.65-2.08-5.84-1.88s-3.99,1.17-5.41,2.9c-1.41,1.74-2.02,3.72-1.82,5.94s1.16,4.06,2.86,5.51m1.4-9.37c.84-1.05,1.93-1.63,3.25-1.75s2.52.26,3.57,1.13c.99.91,1.54,2.02,1.66,3.31.12,1.36-.22,2.55-1.03,3.56-.87,1.05-1.98,1.64-3.3,1.76-1.33.12-2.5-.26-3.52-1.14-1.01-.84-1.58-1.95-1.71-3.31s.24-2.48,1.08-3.56Z"/>
          <path class="cls-6" d="m44.41,24.48c-1.33.12-2.41.71-3.25,1.75-.84,1.08-1.2,2.27-1.08,3.56.12,1.36.69,2.46,1.71,3.31,1.02.88,2.19,1.26,3.52,1.14,1.33-.12,2.43-.71,3.3-1.76.81-1.01,1.16-2.2,1.03-3.56-.12-1.29-.67-2.4-1.66-3.31-1.05-.87-2.24-1.25-3.57-1.13Z"/>
        </g>
        <g id="headShock_0_Layer0_0_MEMBER_1_FILL" data-name="headShock 0 Layer0 0 MEMBER 1 FILL">
          <path class="cls-11" d="m.04,33.45c.2,2.22,1.16,4.06,2.86,5.51,1.71,1.45,3.65,2.08,5.84,1.88s3.96-1.16,5.41-2.9c1.41-1.74,2.02-3.72,1.82-5.94s-1.16-4.06-2.86-5.51c-1.74-1.45-3.69-2.07-5.84-1.88s-3.99,1.17-5.41,2.9C.44,29.25-.16,31.23.04,33.45m3.24-.3c-.12-1.29.23-2.48,1.03-3.56.84-1.05,1.93-1.63,3.25-1.75s2.53.25,3.52,1.14c1.02.91,1.59,2.01,1.71,3.31.12,1.36-.24,2.55-1.08,3.56-.81,1.04-1.89,1.63-3.25,1.75-1.33.12-2.5-.26-3.52-1.14-.98-.85-1.53-1.95-1.66-3.31Z"/>
          <path class="cls-6" d="m4.31,29.6c-.81,1.08-1.15,2.26-1.03,3.56.12,1.36.68,2.47,1.66,3.31,1.02.88,2.19,1.26,3.52,1.14,1.36-.12,2.45-.71,3.25-1.75.84-1.01,1.2-2.2,1.08-3.56s-.69-2.4-1.71-3.31c-.98-.88-2.16-1.26-3.52-1.14s-2.41.71-3.25,1.75Z"/>
        </g>
        <g id="headShock_0_Layer0_0_MEMBER_2_FILL" data-name="headShock 0 Layer0 0 MEMBER 2 FILL">
          <path class="cls-11" d="m45.65,36.97l.23-22.82-41.68,3.8,4.35,22.4c1.81,4.82,5.59,7.92,11.34,9.31,2.85.74,5.59.96,8.24.65,2.69-.18,5.37-.89,8.04-2.14,5.4-2.4,8.56-6.14,9.47-11.21Z"/>
        </g>
        <g id="headShock_0_Layer0_0_MEMBER_3_FILL" data-name="headShock 0 Layer0 0 MEMBER 3 FILL">
          <path class="cls-6" d="m29.35,37.25c.65-.53.95-1.11.9-1.74-.05-.6-.45-1.11-1.2-1.55-.7-.37-1.54-.51-2.5-.42-.9.08-1.66.37-2.28.86-.62.56-.9,1.14-.85,1.73.06.63.44,1.15,1.15,1.55.71.44,1.51.62,2.41.53.96-.09,1.75-.41,2.37-.97Z"/>
        </g>
        <g id="headShock_0_Layer0_0_MEMBER_3_MEMBER_0_MEMBER_0_FILL" data-name="headShock 0 Layer0 0 MEMBER 3 MEMBER 0 MEMBER 0 FILL">
          <path class="cls-9" d="m14.07,34.23c-.01-.13-.02-.25-.03-.35-.11-1.2.18-2.24.87-3.14.57-.72,1.3-1.19,2.18-1.4l-5.73.52c1.49.94,2.39,2.39,2.71,4.37m6.82,1.54c.4-.71.56-1.56.47-2.55s-.4-1.82-.93-2.48c-.53-.65-1.14-.95-1.84-.89-.63.06-1.15.46-1.55,1.2-.4.74-.56,1.61-.47,2.6s.4,1.8.92,2.43c.53.69,1.11,1,1.74.95.7-.06,1.24-.48,1.64-1.25Z"/>
          <path class="cls-3" d="m17.48,29.25c-.13.01-.26.04-.39.09-.88.21-1.61.68-2.18,1.4-.69.9-.98,1.95-.87,3.14,0,.1.02.22.03.35.16.99.62,1.83,1.39,2.53.88.82,1.92,1.18,3.11,1.07,1.1-.1,1.98-.63,2.67-1.6.72-.9,1.03-1.93.92-3.1s-.6-2.17-1.47-2.93c-.84-.76-1.81-1.09-2.9-.99l-.3.03m3.88,3.96c.09,1-.07,1.85-.47,2.55-.4.77-.95,1.19-1.64,1.25-.63.06-1.21-.26-1.74-.95-.53-.62-.83-1.43-.92-2.43s.06-1.86.47-2.6c.4-.74.92-1.14,1.55-1.2.7-.06,1.31.23,1.84.89.53.65.84,1.48.93,2.48Z"/>
        </g>
        <g id="headShock_0_Layer0_0_MEMBER_3_MEMBER_0_MEMBER_1_FILL" data-name="headShock 0 Layer0 0 MEMBER 3 MEMBER 0 MEMBER 1 FILL">
          <path class="cls-9" d="m39.08,31.6l.03.35c-.05-2,.56-3.6,1.82-4.79l-5.68.52c.91.05,1.71.38,2.4.99.84.76,1.31,1.74,1.42,2.93m-7.32.67c.09,1,.4,1.8.92,2.43.53.69,1.13,1,1.79.94.66-.06,1.19-.48,1.59-1.25.4-.71.56-1.56.47-2.55s-.4-1.82-.93-2.48c-.53-.65-1.12-.95-1.79-.89s-1.2.46-1.6,1.2c-.4.74-.56,1.61-.47,2.6Z"/>
          <path class="cls-3" d="m35.26,27.68c-.14-.02-.27-.03-.4-.01l-.3.03c-1.1.1-1.99.6-2.67,1.5-.72.9-1.03,1.95-.92,3.15.11,1.16.6,2.12,1.47,2.88.85.83,1.82,1.19,2.91,1.09,1.2-.11,2.15-.65,2.86-1.62.63-.83.93-1.74.9-2.74l-.03-.35c-.11-1.2-.58-2.17-1.42-2.93-.69-.61-1.49-.94-2.4-.99m-2.57,7.01c-.53-.62-.83-1.43-.92-2.43s.06-1.86.47-2.6c.4-.74.93-1.14,1.6-1.2s1.26.24,1.79.89c.53.65.84,1.48.93,2.48s-.07,1.85-.47,2.55c-.4.77-.93,1.19-1.59,1.25-.66.06-1.26-.25-1.79-.94Z"/>
        </g>
        <g id="headShock_0_Layer0_0_MEMBER_3_MEMBER_1_FILL" data-name="headShock 0 Layer0 0 MEMBER 3 MEMBER 1 FILL">
          <path class="cls-9" d="m40.44,24.44l-.22-2.44-9.41-.25.19,2.04,9.45.64Z"/>
        </g>
        <g id="headShock_0_Layer0_0_MEMBER_3_MEMBER_2_FILL" data-name="headShock 0 Layer0 0 MEMBER 3 MEMBER 2 FILL">
          <path class="cls-9" d="m11.27,25.55l.87,2.33,8.26-4.62-.73-1.99-8.4,4.28Z"/>
        </g>
        <g id="headShock_0_Layer0_0_MEMBER_3_MEMBER_3_FILL" data-name="headShock 0 Layer0 0 MEMBER 3 MEMBER 3 FILL">
          <path class="cls-9" d="m27.34,39.9c-.9.08-1.63.47-2.2,1.16-.54.65-.79,1.41-.75,2.28,0,.03,0,.07,0,.1.08.9.47,1.63,1.16,2.2.69.57,1.48.82,2.38.74s1.63-.47,2.2-1.16c.57-.69.82-1.48.74-2.38,0-.03,0-.07,0-.1-.11-.86-.49-1.56-1.15-2.1-.69-.57-1.48-.82-2.38-.74Z"/>
        </g>
        <g id="headShock_0_Layer0_1_FILL" data-name="headShock 0 Layer0 1 FILL">
          <path class="cls-5" d="m46.01,32.17l.3-9.42c-7.67,1.07-16-.95-25-6.05,4.02,9.24,12.26,14.4,24.71,15.47Z"/>
          <path class="cls-9" d="m46.31,22.75l.3-9.37L3.39,17.33l1.35,7.61c7.12-.78,12.65-3.53,16.57-8.24,9,5.1,17.34,7.12,25,6.05Z"/>
        </g>
        <g id="headShock_0_Layer0_2_FILL" data-name="headShock 0 Layer0 2 FILL">
          <path class="cls-4" d="m42.52,13.71c-.6-.68-1.33-1.33-2.19-1.96-3.97-2.78-9.29-3.87-15.96-3.26s-11.69,2.62-15.06,6.04c-.22.19-.4.4-.54.65-.56.52-.99,1.09-1.3,1.73-.35.57-.34,1.22.03,1.96,4.06-2.85,9.84-4.61,17.34-5.3s13.42,0,17.96,2.03c.23-.76.14-1.39-.27-1.88Z"/>
        </g>
      </g>
    </g>
  </g>
</svg>