<?xml version="1.0" encoding="UTF-8"?>
<svg id="Layer_2" data-name="Layer 2" xmlns="http://www.w3.org/2000/svg" xmlns:xlink="http://www.w3.org/1999/xlink" viewBox="0 0 337.29 380.43">
  <defs>
    <style>
      .cls-1 {
        fill: url(#linear-gradient-2);
      }

      .cls-2 {
        fill: #fff;
      }

      .cls-3 {
        fill: #354f63;
      }

      .cls-4 {
        fill: #696ab1;
      }

      .cls-5 {
        fill: #eea161;
      }

      .cls-6 {
        fill: #c0d4e5;
      }

      .cls-7 {
        fill: #e7b686;
      }

      .cls-8 {
        fill: #7aadcb;
      }

      .cls-9 {
        fill: url(#radial-gradient-5);
      }

      .cls-10 {
        fill: url(#radial-gradient-4);
      }

      .cls-11 {
        fill: #db845c;
      }

      .cls-12 {
        fill: #5393c5;
      }

      .cls-13 {
        fill: #a86040;
      }

      .cls-14 {
        fill: #955536;
      }

      .cls-15 {
        fill: #ffcd05;
      }

      .cls-16 {
        fill: #d78b49;
      }

      .cls-17 {
        fill: #5b93b4;
      }

      .cls-18 {
        fill: url(#radial-gradient-6);
      }

      .cls-19 {
        fill: url(#radial-gradient);
      }

      .cls-20 {
        fill: #bf7959;
      }

      .cls-21 {
        fill: #29a686;
      }

      .cls-22 {
        fill: #1b7f64;
      }

      .cls-23 {
        fill: #4e51a3;
      }

      .cls-24 {
        fill: #45bd9d;
      }

      .cls-25 {
        fill: #497da7;
      }

      .cls-26 {
        fill: url(#radial-gradient-2);
      }

      .cls-27 {
        fill: #6aa1c2;
      }

      .cls-28 {
        fill: #47ba7b;
      }

      .cls-29 {
        fill: url(#radial-gradient-3);
      }

      .cls-30 {
        fill: #25a863;
      }

      .cls-31 {
        fill: #72a2bd;
      }

      .cls-32 {
        fill: #f0c49a;
      }

      .cls-33 {
        fill: #3d3f42;
      }

      .cls-34 {
        fill: url(#linear-gradient);
      }

      .cls-35 {
        fill: #f06697;
      }

      .cls-36 {
        fill: #464b52;
      }

      .cls-37 {
        fill: #3f475e;
      }

      .cls-38 {
        fill: #e8f4fc;
      }

      .cls-39 {
        fill: #fed7b2;
      }
    </style>
    <radialGradient id="radial-gradient" cx="-56.44" cy="1990.58" fx="-56.44" fy="1990.58" r="13.59" gradientTransform="translate(1241.76 1700.61) rotate(-33.96) scale(1.51 -1)" gradientUnits="userSpaceOnUse">
      <stop offset="0" stop-color="#010101" stop-opacity=".3"/>
      <stop offset="1" stop-color="#010101" stop-opacity="0"/>
    </radialGradient>
    <radialGradient id="radial-gradient-2" cx="69.53" cy="1446.71" fx="69.53" fy="1446.71" r="13.59" gradientTransform="translate(192.39 1538.14) scale(1.51 -1)" xlink:href="#radial-gradient"/>
    <radialGradient id="radial-gradient-3" cx="-197.4" cy="1363.74" fx="-197.4" fy="1363.74" r="13.59" gradientTransform="translate(678.81 1632.8) rotate(-8.72) scale(1.51 -1)" xlink:href="#radial-gradient"/>
    <radialGradient id="radial-gradient-4" cx="-201.53" cy="1897.48" fx="-201.53" fy="1897.48" r="13.59" gradientTransform="translate(473.29 1948.79) scale(1.51 -1)" xlink:href="#radial-gradient"/>
    <radialGradient id="radial-gradient-5" cx="-196.54" cy="1803.68" fx="-196.54" fy="1803.68" r="13.59" gradientTransform="translate(541.76 2053.84) scale(1.21 -1)" xlink:href="#radial-gradient"/>
    <radialGradient id="radial-gradient-6" cx="-277.34" cy="1463.71" fx="-277.34" fy="1463.71" r="13.59" gradientTransform="translate(678.81 1632.8) rotate(-8.72) scale(1.51 -1)" xlink:href="#radial-gradient"/>
    <linearGradient id="linear-gradient" x1="-817.45" y1="-1457.43" x2="-817.45" y2="-1377.43" gradientTransform="translate(993.28 1601.56)" gradientUnits="userSpaceOnUse">
      <stop offset="0" stop-color="#7ac692"/>
      <stop offset="1" stop-color="#59b15c"/>
    </linearGradient>
    <linearGradient id="linear-gradient-2" x1="-817.48" y1="-1457.68" x2="-817.48" y2="-1414.18" gradientTransform="translate(993.28 1601.56)" gradientUnits="userSpaceOnUse">
      <stop offset="0" stop-color="#8dceaa"/>
      <stop offset="1" stop-color="#6fc282"/>
    </linearGradient>
  </defs>
  <g id="Layer_1-2" data-name="Layer 1">
    <g id="arm_0_Layer0_0_FILL" data-name="arm 0 Layer0 0 FILL">
      <path class="cls-20" d="m80.75,74.76c-.22,2.44-.68,4.87-1.39,7.29-3.84.08-7.67-1.05-11.49-3.38.32-1.01.57-2.03.75-3.04.46-2.33.5-4.72.13-7.17-.25-1.59.11-3.05,1.07-4.37,1-1.3,2.31-2.09,3.92-2.38,1.6-.21,3.06.18,4.39,1.17,1.31.93,2.1,2.22,2.37,3.88.27,1.93.38,3.81.35,5.65,0,.79-.03,1.58-.1,2.35Z"/>
      <path class="cls-38" d="m71.82,93.24c-1.59.38-3.09.16-4.52-.67-1.4-.87-2.27-2.09-2.62-3.65-.42-1.58-.22-3.06.59-4.45,1.16-1.89,2.03-3.83,2.61-5.81,3.82,2.34,7.65,3.46,11.49,3.38-.93,2.9-2.23,5.74-3.91,8.53-.86,1.33-2.07,2.22-3.64,2.67Z"/>
    </g>
    <g id="arm_0_Layer0_1_FILL" data-name="arm 0 Layer0 1 FILL">
      <path class="cls-6" d="m81.5,80.56l-1.07,4-14.39-3.97,1.03-3.94,14.42,3.9Z"/>
    </g>
    <g id="legBend_0_Layer0_0_FILL" data-name="legBend 0 Layer0 0 FILL">
      <path class="cls-23" d="m89.23,122.91c.2-2.12.14-4.08-.18-5.89l-12.24.65c.49.97.72,2.05.7,3.22l11.72,2.02Z"/>
      <path class="cls-5" d="m92.77,131.82l.67-2.62-17.26-3.44-.78,2.88,17.37,3.18Z"/>
      <path class="cls-2" d="m93.45,129.21l-4.22-6.3-11.72-2.02-1.32,4.88,17.26,3.44Z"/>
      <path class="cls-4" d="m75.98,105.19c-1.58.29-2.82,1.04-3.71,2.25-.89,1.25-1.17,2.6-.84,4.05.34,1.42,1.2,2.55,2.6,3.4,1.27.75,2.19,1.66,2.78,2.73v.04s12.24-.65,12.24-.65c-.96-4.56-3.81-8.24-8.55-11.03-1.4-.84-2.9-1.11-4.52-.79Z"/>
    </g>
    <g id="legBend_0_Layer0_0_FILL-2" data-name="legBend 0 Layer0 0 FILL">
      <path class="cls-23" d="m57.44,137.29c-1.01-1.87-1.71-3.7-2.13-5.5l11.53-4.17c-.07,1.09.13,2.17.61,3.24l-10.01,6.42Z"/>
      <path class="cls-5" d="m57.64,146.88l-1.64-2.15,14.56-9.89,1.84,2.35-14.76,9.69Z"/>
      <path class="cls-2" d="m56.01,144.73l1.43-7.44,10.01-6.42,3.12,3.98-14.56,9.89Z"/>
      <path class="cls-4" d="m62.74,115.81c1.57-.35,3-.14,4.29.63,1.31.8,2.09,1.93,2.35,3.4.25,1.44-.11,2.82-1.07,4.14-.88,1.18-1.37,2.38-1.49,3.6l.02.04-11.53,4.17c-.89-4.58.3-9.07,3.58-13.49.96-1.32,2.24-2.15,3.85-2.49Z"/>
    </g>
    <g id="body_0_Layer0_0_FILL" data-name="body 0 Layer0 0 FILL">
      <path class="cls-6" d="m82.91,108.57l-2.77-4.11-24.92,16.79,2.77,4.11,24.92-16.79Z"/>
      <path class="cls-4" d="m84.57,113.72c.07-1.57-.49-3.29-1.66-5.15l-24.92,16.79c1.28,1.79,2.67,2.95,4.15,3.48l22.44-15.11Z"/>
      <path class="cls-38" d="m75.17,91.36c-1.43-3.38-3.12-4.33-5.06-2.86l-25.96,17.48c-2.09,1.25-1.84,3.17.75,5.77l10.32,9.51,24.92-16.79-4.97-13.11Z"/>
    </g>
    <g id="body_0_Layer0_0_MEMBER_0_FILL" data-name="body 0 Layer0 0 MEMBER 0 FILL">
      <path class="cls-13" d="m59.65,86.56c-2.69-.24-5.25.46-7.69,2.1s-4.05,3.75-4.84,6.33c-.71,2.65-.36,5.01,1.03,7.08.09.14.2.27.32.39,1.35,1.82,3.27,2.86,5.77,3.11,2.75.32,5.34-.34,7.77-1.98s4.02-3.79,4.75-6.46c.71-2.41.47-4.58-.71-6.51-.07-.16-.14-.3-.24-.44-1.4-2.07-3.45-3.28-6.17-3.62Z"/>
    </g>
    <g id="body_0_Layer0_0_MEMBER_1_FILL" data-name="body 0 Layer0 0 MEMBER 1 FILL">
      <path class="cls-16" d="m65.53,114.55l-11,8.91c1.13,1.21,2.34,2.49,3.61,3.84l9.49-8.2c-.58-1.46-1.28-2.98-2.1-4.55Z"/>
      <path class="cls-5" d="m65.53,114.55c-1.11-2.07-2.45-4.2-4.01-6.4-5.32.16-10.68-1.41-16.08-4.72l-4.25,1.84c.24,2.81,4.69,8.88,13.34,18.2l11-8.91Z"/>
    </g>
    <g id="body_0_Layer0_0_MEMBER_2_FILL" data-name="body 0 Layer0 0 MEMBER 2 FILL">
      <path class="cls-16" d="m82.82,104.41l-12.39,6.84c1.15,1.35,2.3,2.57,3.43,3.66l11.16-5.71c-.78-1.69-1.51-3.28-2.2-4.79Z"/>
      <path class="cls-5" d="m66,105.13c1.45,2.28,2.93,4.32,4.42,6.12l12.39-6.84c-5.39-11.52-9.34-17.92-11.85-19.21l-3.3,3.25c1.04,6.25.48,11.81-1.67,16.68Z"/>
    </g>
    <g id="body_0_Layer0_0_MEMBER_3_FILL" data-name="body 0 Layer0 0 MEMBER 3 FILL">
      <path class="cls-6" d="m46.12,103.45l.31,4.13,15.11-1.01-.34-4.17-15.08,1.06m21.73-14.64l-6.65,13.58,3.74,1.88,6.62-13.62-3.71-1.84Z"/>
      <path class="cls-38" d="m64.94,104.28l-3.74-1.88.34,4.17,3.4-2.29Z"/>
    </g>
    <g id="hand_0_Layer0_0_FILL" data-name="hand 0 Layer0 0 FILL">
      <path class="cls-13" d="m71.32,52.8l.94-.12c4.15.05,7.43,1.09,9.84,3.13-4.69-5.49-8.3-6.51-10.84-3.06l.05.05Z"/>
      <path class="cls-20" d="m81.66,68.33c.9-.1,1.31-.63,1.24-1.59l-.81-10.92c-2.41-2.04-5.69-3.08-9.84-3.13l-.94.12-.05-.05c-1.1.04-2.26.12-3.49.24l-.4.03c-.93.06-1.48.82-1.65,2.27-.32,2.13-.4,4.19-.22,6.18.42,5.65,5.51,7.95,15.26,6.91l.9-.06Z"/>
    </g>
    <g id="shadow_0_Layer0_0_FILL" data-name="shadow 0 Layer0 0 FILL">
      <path class="cls-19" d="m65.72,81.23c-4.7.03-9.37,1.61-13.99,4.72s-7.88,6.87-9.76,11.28c-1.76,4.4-1.61,8.14.46,11.2s5.45,4.59,10.15,4.55c4.82-.03,9.55-1.61,14.17-4.72s7.82-6.87,9.58-11.27c1.88-4.4,1.79-8.14-.28-11.21s-5.51-4.59-10.34-4.55Z"/>
    </g>
    <g id="head_0_Layer0_0_FILL" data-name="head 0 Layer0 0 FILL">
      <path class="cls-36" d="m45.21,56.49l-4.98-2.09c-8.44,4.92-15.76,10.36-21.96,16.32-3.54,3.26-4.03,6.36-1.47,9.29l1.13,1.28c-.83-2.31.1-4.69,2.77-7.15,6.23-5.94,13.56-11.37,21.99-16.28l2.51-1.38m11.14-2.37l-.59-1.11c-1.76-3.36-4.55-4.19-8.35-2.48l-1.6,5.67,4.04-2.25c2.66-1.19,4.83-1.14,6.51.17Z"/>
      <path class="cls-33" d="m49.84,53.95l-4.04,2.25-.16.47-.43-.19-2.51,1.38c-8.44,4.92-15.77,10.34-21.99,16.28-2.67,2.46-3.6,4.85-2.77,7.15l12.9,14.66c1.95,2.17,4.34,2.28,7.16.33l25.56-17.72c2.85-1.98,3.58-4.25,2.21-6.82l-9.42-17.62c-1.68-1.31-3.85-1.37-6.51-.17Z"/>
    </g>
    <g id="head_0_Layer0_1_FILL" data-name="head 0 Layer0 1 FILL">
      <path class="cls-20" d="m28.12,97.3c-.39,2.18.04,4.19,1.32,6.02s3,2.95,5.18,3.35c2.25.43,4.26.03,6.04-1.21s2.9-3.01,3.29-5.26c.37-2.16-.08-4.16-1.36-5.99s-2.98-2.96-5.14-3.37c-2.25-.43-4.27-.02-6.08,1.23s-2.86,2.98-3.25,5.23m7.1,6.21c-1.3-.24-2.34-.91-3.12-2.04s-1.01-2.28-.81-3.63c.24-1.3.89-2.32,1.96-3.06,1.12-.78,2.33-1.05,3.63-.81,1.34.29,2.38.97,3.12,2.04.78,1.12,1.05,2.33.81,3.63-.22,1.33-.89,2.38-2.01,3.16s-2.26.98-3.58.72m23.3-27.29c-.39,2.18.04,4.19,1.32,6.02s3,2.95,5.18,3.35c2.25.43,4.26.03,6.04-1.21s2.9-3.01,3.29-5.26c.37-2.16-.08-4.16-1.36-5.99s-2.98-2.96-5.14-3.37c-2.25-.43-4.27-.02-6.08,1.23s-2.86,2.98-3.25,5.23m3.17.54c.24-1.3.89-2.32,1.96-3.06s2.31-1.03,3.63-.81c1.34.29,2.38.97,3.12,2.04.78,1.12,1.05,2.33.81,3.63-.24,1.35-.91,2.4-2.01,3.16s-2.26.98-3.58.72c-1.33-.22-2.38-.89-3.16-2.01s-1-2.29-.77-3.66Z"/>
      <path class="cls-13" d="m32.1,101.48c.78,1.12,1.82,1.8,3.12,2.04,1.32.26,2.51.02,3.58-.72,1.12-.78,1.79-1.83,2.01-3.16.24-1.3-.04-2.51-.81-3.63-.74-1.07-1.78-1.75-3.12-2.04-1.3-.24-2.51.04-3.63.81s-1.72,1.76-1.96,3.06c-.2,1.35.07,2.56.81,3.63m31.55-27.77c-1.07.74-1.72,1.76-1.96,3.06-.22,1.37.03,2.59.77,3.66.78,1.12,1.83,1.79,3.16,2.01,1.32.26,2.51.02,3.58-.72s1.77-1.81,2.01-3.16c.24-1.3-.04-2.51-.81-3.63s-1.78-1.75-3.12-2.04c-1.33-.22-2.54.06-3.63.81Z"/>
    </g>
    <g id="head_0_Layer0_2_FILL" data-name="head 0 Layer0 2 FILL">
      <path class="cls-20" d="m68.96,92.42c2.69-2.43,3.26-5.18,1.71-8.24l-12.63-22.88-34.39,23.84,20.75,24.31,24.57-17.03Z"/>
    </g>
    <g id="head_0_Layer0_3_FILL" data-name="head 0 Layer0 3 FILL">
      <path class="cls-2" d="m39.5,93.19c.66.96,1.54,1.57,2.61,1.84,1.17.28,2.25.08,3.23-.6.93-.65,1.46-1.56,1.57-2.73.16-1.12-.1-2.16-.76-3.12s-1.55-1.56-2.65-1.81c-1.12-.28-2.15-.09-3.08.56-.99.68-1.56,1.61-1.72,2.78-.13,1.1.14,2.13.81,3.09m2.14-1.3l-.14-.21c-.37-.59-.52-1.22-.45-1.88.08-.7.39-1.25.94-1.63.58-.4,1.21-.51,1.89-.34.64.16,1.17.52,1.6,1.08l.14.21c.35.57.49,1.18.42,1.84-.08.7-.41,1.26-.98,1.65-.55.38-1.17.48-1.85.31-.64-.16-1.17-.51-1.57-1.04m14.4-6.52c1.2.26,2.28.07,3.23-.6s1.47-1.57,1.53-2.7c.21-1.16-.02-2.22-.68-3.18-.66-.96-1.58-1.54-2.74-1.75-1.07-.31-2.08-.14-3.04.53s-1.53,1.59-1.72,2.78c-.13,1.1.14,2.13.81,3.09s1.54,1.57,2.61,1.84m.13-6.05c.67.15,1.22.5,1.64,1.05l.14.21c.35.57.48,1.19.38,1.87-.05.69-.35,1.22-.9,1.6-.55.38-1.19.5-1.94.37-.61-.18-1.12-.54-1.53-1.07l-.2-.29c-.33-.54-.48-1.13-.43-1.77.13-.74.48-1.3,1.02-1.68.55-.38,1.15-.47,1.81-.28Z"/>
      <path class="cls-33" d="m41.5,91.68l.14.21c.41.53.93.88,1.57,1.04.69.17,1.31.07,1.85-.31.58-.4.9-.95.98-1.65.07-.66-.07-1.27-.42-1.84l-.14-.21c-.43-.56-.96-.92-1.6-1.08-.69-.17-1.32-.06-1.89.34-.55.38-.86.92-.94,1.63-.07.66.08,1.28.45,1.88m16.31-11.31c-.43-.56-.97-.91-1.64-1.05-.66-.19-1.26-.1-1.81.28-.55.38-.89.94-1.02,1.68-.04.64.1,1.23.43,1.77l.2.29c.41.53.92.88,1.53,1.07.74.13,1.39.01,1.94-.37.55-.38.85-.91.9-1.6.1-.68-.03-1.3-.38-1.87l-.14-.21Z"/>
    </g>
    <g id="head_0_Layer0_3_MEMBER_0_FILL" data-name="head 0 Layer0 3 MEMBER 0 FILL">
      <path class="cls-33" d="m45.55,85.16l-1.46-2.46-9.16,5.74,1.5,2.43,9.12-5.71m3.55-5.93l1.79,2.23,8.55-6.54-1.75-2.26-8.59,6.56Z"/>
    </g>
    <g id="head_0_Layer0_3_MEMBER_1_FILL" data-name="head 0 Layer0 3 MEMBER 1 FILL">
      <path class="cls-33" d="m52.33,90.19c-1.95,1.35-3.31,2.88-4.1,4.61-.77,1.59-.89,2.93-.37,4.03.04.17.14.33.31.45.15.1.32.17.5.2s.37,0,.55-.08c2.6-1.28,4.63-3.09,6.09-5.44,2.68-.52,5.09-1.78,7.23-3.79.15-.14.23-.3.27-.49s.03-.37,0-.54c-.06-.2-.15-.36-.27-.48-.88-.85-2.19-1.2-3.94-1.04-1.92.16-3.84.9-5.76,2.23l-.25.17-.25.17Z"/>
    </g>
    <g id="head_0_Layer0_3_MEMBER_2_FILL" data-name="head 0 Layer0 3 MEMBER 2 FILL">
      <path class="cls-14" d="m54.57,88.52c.28-.76.24-1.41-.12-1.93-.34-.49-.93-.76-1.76-.79-.79.02-1.59.31-2.38.86s-1.3,1.17-1.6,1.9c-.26.79-.22,1.43.12,1.93.36.52.95.78,1.76.79.83.03,1.63-.22,2.4-.75s1.32-1.22,1.59-2.01Z"/>
    </g>
    <g id="head_0_Layer0_4_FILL" data-name="head 0 Layer0 4 FILL">
      <path class="cls-33" d="m24.58,85.09l-.04.03c-.49.46-.75,1.05-.79,1.76-.07.66.12,1.23.59,1.72l10.68,12.07c.42.48.98.76,1.68.84.67.02,1.24-.19,1.74-.66l.04-.03c.51-.43.78-.99.8-1.65s-.19-1.27-.64-1.81l-10.62-11.98c-.48-.52-1.05-.79-1.72-.81-.64-.04-1.21.13-1.71.52m31.95-21.48c-.18.61-.12,1.24.2,1.87l7.5,14.15c.34.61.83,1.03,1.46,1.24.63.21,1.24.15,1.83-.17l.04-.03c.58-.28.97-.73,1.18-1.37.2-.71.15-1.34-.16-1.9l-7.55-14.23c-.3-.6-.77-.99-1.41-1.15-.68-.22-1.32-.18-1.93.12l-.04.03c-.57.35-.94.84-1.12,1.45Z"/>
    </g>
    <g id="head_0_Layer0_5_FILL" data-name="head 0 Layer0 5 FILL">
      <path class="cls-33" d="m55.49,67.81c2.73-3.55,3.58-6.07,2.55-7.55s-3.59-1.43-7.74.07c-4.1,1.46-8.58,3.98-13.44,7.55-4.79,3.56-8.55,7.12-11.28,10.68-2.68,3.56-3.52,6.07-2.51,7.52s3.59,1.47,7.7-.04c4.17-1.47,8.65-3.99,13.44-7.55,4.86-3.57,8.62-7.13,11.28-10.68Z"/>
    </g>
    <g id="arm_0_Layer0_0_FILL-2" data-name="arm 0 Layer0 0 FILL">
      <path class="cls-20" d="m61.26,122.1c-2.07-.3-4.12-.84-6.16-1.63.05-3.8,1.12-7.56,3.22-11.26.85.35,1.71.63,2.56.85,1.97.53,4,.66,6.09.37,1.36-.19,2.59.22,3.68,1.21,1.07,1.04,1.71,2.36,1.91,3.97.13,1.59-.24,3.03-1.13,4.31-.83,1.27-1.95,2-3.37,2.21-1.65.2-3.25.25-4.81.15-.67-.03-1.34-.09-2-.18Z"/>
      <path class="cls-38" d="m45.8,112.61c-.28-1.59-.04-3.07.7-4.45.78-1.36,1.85-2.18,3.19-2.46,1.36-.36,2.61-.11,3.76.73,1.57,1.21,3.19,2.14,4.86,2.78-2.1,3.7-3.17,7.46-3.22,11.26-2.44-1.02-4.82-2.4-7.14-4.16-1.1-.89-1.82-2.13-2.16-3.7Z"/>
    </g>
    <g id="arm_0_Layer0_1_FILL-2" data-name="arm 0 Layer0 1 FILL">
      <path class="cls-6" d="m56.3,122.64l-3.37-1.19,3.8-14.11,3.32,1.16-3.75,14.14Z"/>
    </g>
    <g id="hand_0_Layer0_0_FILL-2" data-name="hand 0 Layer0 0 FILL">
      <path class="cls-13" d="m74.86,107.06l-.94-.12c-4.15.04-7.43,1.08-9.84,3.12,4.7-5.48,8.31-6.5,10.84-3.05l-.05.05Z"/>
      <path class="cls-20" d="m64.5,122.57c-.9-.1-1.31-.63-1.24-1.59l.82-10.92c2.42-2.04,5.7-3.07,9.84-3.12l.94.12.05-.05c1.1.04,2.26.13,3.49.25l.4.03c.93.07,1.48.82,1.64,2.27.32,2.13.39,4.19.22,6.18-.43,5.65-5.52,7.95-15.27,6.89l-.9-.06Z"/>
    </g>
    <g id="arm_0_Layer0_0_FILL-3" data-name="arm 0 Layer0 0 FILL">
      <path class="cls-28" d="m270.09,92.48c2.7-1.41,5.62-2.51,8.78-3.3,1.54-.34,3.03-.12,4.46.67,1.4.85,2.31,2.07,2.74,3.66.38,1.61.14,3.08-.71,4.44-.82,1.41-2,2.33-3.55,2.74-2.15.53-4.13,1.29-5.94,2.29-1.07-4.35-2.99-7.85-5.78-10.49Z"/>
      <path class="cls-2" d="m262.24,98.28c.56-.56,1.13-1.1,1.73-1.6,1.87-1.58,3.91-2.98,6.12-4.2,2.78,2.65,4.71,6.14,5.78,10.49-.94.5-1.83,1.04-2.67,1.63l-10.96-6.32Z"/>
      <path class="cls-39" d="m273.2,104.6c-1.96,1.33-3.67,3-5.14,5-.94,1.3-2.22,2.08-3.84,2.35-1.63.22-3.11-.14-4.46-1.07-1.29-.97-2.05-2.28-2.3-3.92-.28-1.58.07-3.06,1.05-4.42,1.17-1.56,2.41-2.98,3.73-4.26l10.96,6.32Z"/>
    </g>
    <g id="arm_0_Layer0_0_MEMBER_0_FILL" data-name="arm 0 Layer0 0 MEMBER 0 FILL">
      <path class="cls-30" d="m267.52,92.03l3.58-2.09,7.42,12.94-3.51,2.07-7.49-12.93Z"/>
    </g>
    <g id="arm_0_Layer0_0_FILL-4" data-name="arm 0 Layer0 0 FILL">
      <path class="cls-28" d="m323.29,95.91c-2.39,1.89-5.05,3.52-8,4.89-1.45.62-2.96.68-4.51.18-1.53-.57-2.66-1.6-3.37-3.08-.68-1.51-.72-3-.13-4.49.54-1.54,1.53-2.66,2.97-3.36,2.02-.92,3.82-2.04,5.41-3.36,1.86,4.07,4.41,7.15,7.64,9.23Z"/>
      <path class="cls-2" d="m329.92,88.74c-.44.66-.91,1.29-1.4,1.89-1.54,1.9-3.29,3.66-5.23,5.28-3.23-2.08-5.78-5.15-7.64-9.23.83-.66,1.6-1.36,2.32-2.1l11.95,4.16Z"/>
      <path class="cls-39" d="m317.97,84.58c1.68-1.67,3.05-3.63,4.11-5.87.68-1.46,1.79-2.46,3.33-3.02,1.56-.52,3.08-.44,4.58.22,1.45.72,2.44,1.86,2.99,3.42.57,1.5.5,3.02-.2,4.54-.86,1.75-1.81,3.38-2.86,4.88l-11.95-4.16Z"/>
    </g>
    <g id="arm_0_Layer0_0_MEMBER_0_FILL-2" data-name="arm 0 Layer0 0 MEMBER 0 FILL">
      <path class="cls-30" d="m325.9,95.87l-3.12,2.73-9.72-11.32,3.06-2.69,9.78,11.29Z"/>
    </g>
    <g id="leg_0_Layer0_0_FILL" data-name="leg 0 Layer0 0 FILL">
      <path class="cls-16" d="m287.82,131.12l.05.02,1.77-4.68-11.25-3.87-1.77,4.68,11.21,3.85Z"/>
      <path class="cls-20" d="m291.31,138.66l-3.49-7.54-11.21-3.85-3.3,8.38,16.93,5.82,1.07-2.8Z"/>
      <path class="cls-5" d="m293.05,117.9c.52-1.51.37-3.01-.46-4.49-.8-1.47-2.05-2.5-3.75-3.09s-3.29-.53-4.86.13c-1.57.66-2.61,1.75-3.13,3.26l-2.47,8.88,11.25,3.87,3.42-8.55Z"/>
    </g>
    <g id="legBend_0_Layer0_0_FILL-3" data-name="legBend 0 Layer0 0 FILL">
      <path class="cls-16" d="m312.23,126.96c.87-1.94,1.45-3.81,1.74-5.63l-11.77-3.4c.14,1.09.01,2.19-.4,3.32l10.43,5.72Z"/>
      <path class="cls-20" d="m314.17,134.28l-1.94-7.33-10.43-5.72-4.51,6.65,15.4,8.65,1.48-2.26Z"/>
      <path class="cls-5" d="m305.45,105.9c-1.59-.24-3,.07-4.24.93-1.25.89-1.95,2.07-2.11,3.56-.15,1.45.31,2.81,1.35,4.06.96,1.12,1.54,2.28,1.74,3.49l11.77,3.4c.58-4.63-.93-9.03-4.51-13.21-1.05-1.25-2.39-1.99-4.02-2.22Z"/>
    </g>
    <g id="body_0_Layer0_0_FILL-2" data-name="body 0 Layer0 0 FILL">
      <path class="cls-20" d="m310.41,109.17h-30.05v4.95h30.05v-4.95Z"/>
      <path class="cls-5" d="m280.36,114.12c.07,2.2.57,3.93,1.5,5.2h27.05c.93-1.27,1.43-3,1.5-5.2h-30.05Z"/>
      <path class="cls-28" d="m310.41,109.17l3.2-13.65c.7-3.6-.17-5.33-2.6-5.2h-31.3c-2.43-.13-3.3,1.6-2.6,5.2l3.25,13.65h30.05Z"/>
    </g>
    <g id="body_0_Layer0_1_FILL" data-name="body 0 Layer0 1 FILL">
      <path class="cls-20" d="m278.31,106.27l4.9,1.35,3.9-14.55h-5.25l-3.55,13.2m30.2,1.35l4.9-1.35-3.55-13.2h-5.25l3.9,14.55Z"/>
    </g>
    <g id="body_0_Layer0_2_FILL" data-name="body 0 Layer0 2 FILL">
      <path class="cls-32" d="m305.86,89.32c0-2.5-1.02-4.65-3.05-6.45-2.07-1.7-4.55-2.55-7.45-2.55s-5.38.85-7.45,2.55c-2.03,1.8-3.05,3.95-3.05,6.45,0,.17.02.33.05.5.1,2.27,1.1,4.2,3,5.8,2.07,1.8,4.55,2.7,7.45,2.7s5.38-.9,7.45-2.7c1.9-1.6,2.9-3.53,3-5.8.03-.17.05-.33.05-.5Z"/>
    </g>
    <g id="body_0_Layer0_3_FILL" data-name="body 0 Layer0 3 FILL">
      <path class="cls-30" d="m282.76,89.32l-2.05,3.6,13.1,7.6,2.05-3.65-13.1-7.55m26.2,0l-13.1,7.55,2.05,3.65,13.1-7.6-2.05-3.6Z"/>
      <path class="cls-28" d="m297.91,100.52l-2.05-3.65-2.05,3.65h4.1Z"/>
    </g>
    <g id="hand_0_Layer0_0_FILL-3" data-name="hand 0 Layer0 0 FILL">
      <path class="cls-32" d="m323.39,69.64l-.52.8c-1.78,3.75-2.28,7.15-1.51,10.21-2.87-6.62-2.2-10.32,2.01-11.08l.02.07Z"/>
      <path class="cls-39" d="m332.8,85.75c-.48.76-1.14.9-1.97.42l-9.46-5.52c-.77-3.06-.27-6.47,1.51-10.21l.52-.8-.02-.07c.52-.97,1.1-1.98,1.75-3.03l.2-.35c.47-.81,1.39-.97,2.76-.48,2.05.65,3.94,1.48,5.65,2.51,4.89,2.86,4.73,8.45-.49,16.75l-.45.78Z"/>
    </g>
    <g id="hand_0_Layer0_0_FILL-4" data-name="hand 0 Layer0 0 FILL">
      <path class="cls-32" d="m271.76,116.08l.18-.93c.24-4.14-.57-7.48-2.43-10.03,5.15,5.06,5.91,8.74,2.29,11.03l-.04-.06Z"/>
      <path class="cls-39" d="m257.01,104.67c.16-.89.72-1.26,1.67-1.13l10.84,1.57c1.86,2.55,2.67,5.9,2.43,10.03l-.18.93.04.06c-.12,1.09-.28,2.25-.49,3.47l-.06.4c-.13.92-.92,1.42-2.38,1.48-2.14.17-4.2.1-6.18-.21-5.61-.82-7.55-6.06-5.82-15.71l.13-.89Z"/>
    </g>
    <g id="shadow_0_Layer0_0_FILL-2" data-name="shadow 0 Layer0 0 FILL">
      <path class="cls-26" d="m311.45,81.87c-3.92-2.6-8.67-3.9-14.24-3.9s-10.38,1.3-14.4,3.9c-3.92,2.67-5.88,5.85-5.88,9.55s1.96,6.85,5.88,9.45c4.02,2.67,8.82,4,14.4,4s10.33-1.33,14.24-4c4.02-2.6,6.03-5.75,6.03-9.45s-2.01-6.88-6.03-9.55Z"/>
    </g>
    <g id="headFocus_0_Layer0_0_FILL" data-name="headFocus 0 Layer0 0 FILL">
      <path class="cls-39" d="m271.88,75.73c-1.37,1.74-1.91,3.73-1.64,5.94s1.28,4.01,3.02,5.37c1.78,1.39,3.75,1.96,5.9,1.7s3.97-1.29,5.37-3.07c1.33-1.74,1.86-3.72,1.59-5.94s-1.26-4.01-2.97-5.38c-1.79-1.43-3.77-2.01-5.95-1.74s-3.92,1.3-5.31,3.12m3.39,8.8c-1.04-.81-1.64-1.9-1.81-3.26s.17-2.49.97-3.59c.78-1.04,1.83-1.63,3.16-1.8s2.55.16,3.59.97c1.05.88,1.65,1.96,1.81,3.26.17,1.36-.16,2.55-.97,3.59-.81,1.07-1.89,1.69-3.25,1.86s-2.49-.18-3.5-1.03m38.7-16.41c-2.15.26-3.92,1.3-5.31,3.12-1.37,1.74-1.91,3.73-1.64,5.94s1.28,4.01,3.02,5.37c1.78,1.39,3.75,1.96,5.9,1.7s3.97-1.29,5.37-3.07c1.33-1.74,1.86-3.72,1.59-5.94-.27-2.22-1.26-4.01-2.97-5.38-1.79-1.43-3.77-2.01-5.95-1.74m1.58,12.95c-1.32.16-2.49-.18-3.5-1.03-1.07-.81-1.69-1.89-1.86-3.25s.18-2.49,1.02-3.6c.78-1.04,1.83-1.63,3.16-1.8s2.52.16,3.59.97c1.05.88,1.65,1.96,1.81,3.26.17,1.36-.16,2.55-.97,3.59-.84,1.08-1.93,1.7-3.25,1.86Z"/>
      <path class="cls-7" d="m273.46,81.28c.17,1.36.77,2.44,1.81,3.26,1.01.85,2.18,1.2,3.5,1.03s2.44-.78,3.25-1.86c.81-1.04,1.14-2.24.97-3.59-.16-1.29-.76-2.38-1.81-3.26-1.04-.81-2.24-1.14-3.59-.97s-2.38.76-3.16,1.8c-.81,1.11-1.13,2.3-.97,3.59m38.58-1.23c1.01.85,2.18,1.2,3.5,1.03s2.41-.78,3.25-1.86c.81-1.04,1.14-2.24.97-3.59s-.76-2.38-1.81-3.26c-1.07-.81-2.27-1.13-3.59-.97s-2.38.76-3.16,1.8c-.84,1.11-1.18,2.31-1.02,3.6.17,1.36.78,2.44,1.86,3.25Z"/>
    </g>
    <g id="headFocus_0_Layer0_1_FILL" data-name="headFocus 0 Layer0 1 FILL">
      <path class="cls-39" d="m310.34,90.48c3.51-.93,5.31-3.12,5.4-6.55l-.54-26.33-41.74,5.09,7.11,31.42,29.78-3.63Z"/>
    </g>
    <g id="headFocus_0_Layer0_2_FILL" data-name="headFocus 0 Layer0 2 FILL">
      <path class="cls-20" d="m312.09,37.43l-10.99,13.58c-11.83-2.86-23.01.22-33.53,9.23l9.29,10.5-.62-5.11c.52-.16,1.03-.34,1.55-.54.1.02.21.04.31.06,3.66,1.13,7.98,1.39,12.94.79s9.04-1.89,12.32-3.87c.91-.55,1.68-1.08,2.32-1.59,3.12-.04,6.26.09,9.42.41l.7,5.71,3.75-10.13c.93-3.14,1.37-6.09,1.34-8.88-1.09-4-4.02-7.38-8.79-10.16Z"/>
      <path class="cls-11" d="m301.1,51.01l10.99-13.58c4.77,2.78,7.7,6.16,8.79,10.16-.09-7.07-3.33-12.98-9.71-17.7l-10.61,16.66c-12.45-4.06-24-.09-34.67,11.88l1.68,1.81c10.52-9.01,21.7-12.08,33.53-9.23Z"/>
    </g>
    <g id="headFocus_0_Layer0_3_FILL" data-name="headFocus 0 Layer0 3 FILL">
      <path class="cls-2" d="m283.99,78.38c.14,1.16.63,2.12,1.46,2.89.9.76,1.94,1.07,3.14.93,1.12-.14,2.02-.68,2.67-1.64.69-.96.96-2.01.82-3.17s-.66-2.1-1.55-2.83c-.86-.73-1.86-1.03-2.98-.9-1.19.15-2.13.68-2.83,1.6-.63.92-.87,1.95-.73,3.11m6.3-3.29c.55.64.88,1.44,1,2.4s0,1.85-.39,2.57c-.37.78-.91,1.22-1.6,1.3s-1.27-.21-1.82-.89c-.54-.61-.88-1.4-1-2.4s.01-1.82.39-2.57.9-1.17,1.56-1.25c.69-.08,1.32.19,1.86.83m14.08-3.48c-1.12.14-2.05.67-2.78,1.6-.63.92-.87,1.95-.73,3.11s.63,2.12,1.46,2.89c.93.76,1.96,1.07,3.09.93s2.05-.69,2.67-1.64c.72-.96,1.01-2.02.87-3.18s-.68-2.1-1.6-2.83c-.83-.74-1.82-1.04-2.98-.9m-2.96,4.64c-.12-.96,0-1.81.34-2.56.44-.76.98-1.18,1.61-1.25.66-.08,1.25.2,1.76.84.58.63.93,1.43,1.05,2.39s-.03,1.85-.44,2.57c-.34.78-.84,1.21-1.5,1.29s-1.25-.22-1.87-.88c-.51-.61-.83-1.41-.95-2.4Z"/>
      <path class="cls-20" d="m291.28,77.49c-.12-.96-.45-1.76-1-2.4-.55-.64-1.17-.92-1.86-.83s-1.18.5-1.56,1.25-.51,1.61-.39,2.57.45,1.79,1,2.4c.55.67,1.16.97,1.82.89.69-.08,1.23-.52,1.6-1.3.38-.72.51-1.57.39-2.57m10.47-3.79c-.35.75-.46,1.6-.34,2.56s.44,1.79.95,2.4c.62.66,1.24.96,1.87.88.66-.08,1.16-.51,1.5-1.29.42-.72.56-1.58.44-2.57s-.47-1.76-1.05-2.39c-.51-.64-1.1-.92-1.76-.84s-1.17.49-1.61,1.25Z"/>
      <path class="cls-7" d="m300.35,79.56c-.08-.63-.49-1.15-1.25-1.56-.71-.35-1.55-.47-2.51-.35s-1.69.42-2.3.94c-.57.57-.81,1.17-.74,1.8.07.6.45,1.09,1.14,1.47.72.42,1.55.57,2.47.45s1.74-.46,2.34-1.04c.64-.55.92-1.12.85-1.72Z"/>
    </g>
    <g id="headFocus_0_Layer0_3_MEMBER_0_FILL" data-name="headFocus 0 Layer0 3 MEMBER 0 FILL">
      <path class="cls-20" d="m283.39,69.34l-.53,3.54,9.27,1.29.58-3.55-9.32-1.28Z"/>
    </g>
    <g id="headFocus_0_Layer0_3_MEMBER_1_FILL" data-name="headFocus 0 Layer0 3 MEMBER 1 FILL">
      <path class="cls-20" d="m309.9,69.48l-.93-3.46-9.12,2.47,1.03,3.45,9.02-2.46Z"/>
    </g>
    <g id="headFocus_0_Layer0_3_MEMBER_2_FILL" data-name="headFocus 0 Layer0 3 MEMBER 2 FILL">
      <path class="cls-20" d="m298.86,88.46l.27-1.95-7.84-1.11-.26,2,7.84,1.06Z"/>
    </g>
    <g id="headFocus_0_Layer0_4_FILL" data-name="headFocus 0 Layer0 4 FILL">
      <path class="cls-20" d="m272.59,66.32l3.76,15.56c.15.65.53,1.18,1.15,1.57.58.33,1.19.41,1.84.23h.05c.65-.15,1.15-.52,1.48-1.09.33-.61.42-1.24.27-1.9l-3.81-15.55c-.18-.68-.56-1.19-1.14-1.52-.54-.34-1.15-.45-1.8-.33h-.05c-.62.18-1.11.58-1.47,1.19-.37.55-.46,1.16-.28,1.85m40.18-7.17c-.48.46-.73,1.05-.74,1.75l.09,16.01c.01.67.25,1.26.72,1.78.43.49.98.72,1.65.71h.05c.67.01,1.25-.21,1.73-.67.51-.53.75-1.13.74-1.8l-.04-16.01c.01-.71-.22-1.28-.71-1.73-.5-.51-1.09-.77-1.76-.79h-.05c-.67.05-1.22.31-1.67.76Z"/>
    </g>
    <g id="Symbol_1_0_Layer0_0_MEMBER_0_FILL" data-name="Symbol 1 0 Layer0 0 MEMBER 0 FILL">
      <path class="cls-36" d="m158.65,311.26l-3.68-.41c-.4-.06-.77.06-1.12.34-.35.28-.55.64-.61,1.07-.51,4.68-2.61,8.7-6.31,12.05-.31.22-.48.54-.51.97-.06.46.03.85.28,1.17v.05s.07-.06.1-.09c5.42-4.19,9.17-8.93,11.24-14.22.12-.33.32-.63.6-.92Z"/>
      <path class="cls-33" d="m169.05,312.46l-10.4-1.2c-.28.28-.48.59-.6.92-2.08,5.29-5.82,10.03-11.24,14.22-.04.03-.07.06-.11.09.28.32.62.52,1.02.61,10.91,1.8,18.47-2.32,22.65-12.36.12-.36.16-.69.11-1-.08-.34-.25-.62-.5-.83-.28-.28-.59-.44-.93-.45Z"/>
    </g>
    <g id="Symbol_1_0_Layer0_0_MEMBER_1_FILL" data-name="Symbol 1 0 Layer0 0 MEMBER 1 FILL">
      <path class="cls-33" d="m191.94,314.14c-.08-.34-.25-.67-.49-.98h-10.47c-.33-.03-.66.09-.97.34-.28.18-.48.44-.6.77-.08.3-.09.63,0,1,3,10.46,10.02,15.42,21.07,14.9.4-.04.76-.21,1.08-.49l-.09-.11c-4.9-4.79-8.07-9.93-9.52-15.43Z"/>
      <path class="cls-36" d="m196.71,314.77c0-.43-.17-.81-.49-1.13-.32-.32-.67-.47-1.07-.46h-3.71c.25.3.41.63.49.97,1.45,5.49,4.62,10.64,9.52,15.43l.09.11v-.05c.29-.28.43-.66.42-1.13.03-.43-.11-.77-.39-1.02-3.29-3.76-4.91-8-4.87-12.7Z"/>
    </g>
    <g id="arm_0_Layer0_0_FILL-5" data-name="arm 0 Layer0 0 FILL">
      <path class="cls-20" d="m150.59,344.62c-1.75,1.65-3.08,2.95-3.98,3.9s-1.97,1.05-3.21.31c-1.16-.73-1.9-1.77-2.23-3.13-.33-1.36-.15-2.61.53-3.77,1.54-2.55,3.4-4.72,5.58-6.51l5.13,7.8c-.7.44-1.3.9-1.83,1.39Z"/>
      <path class="cls-28" d="m159.35,340.38c-1.32.39-2.54.81-3.64,1.24l-5.06-8.49c1.29-.75,2.68-1.4,4.17-1.96,2.98-1.12,6.32-1.85,10.04-2.18,1.41-.12,2.66.26,3.75,1.14,1.12.9,1.73,2.04,1.85,3.4.23,1.37-.09,2.6-.97,3.69-.86,1.06-1.99,1.64-3.38,1.73-2.49.24-4.74.72-6.76,1.43Z"/>
      <path class="cls-30" d="m147.28,335.43l-.58-.98,3.22-2.53.72,1.21,5.06,8.49.52.81-3.06,1.97-.75-1.17-5.13-7.8Z"/>
    </g>
    <g id="arm_0_Layer0_0_FILL-6" data-name="arm 0 Layer0 0 FILL">
      <path class="cls-20" d="m203.46,333.35c2.33.59,4.12,1.08,5.38,1.47s2.24-.04,2.95-1.29c.66-1.2.8-2.47.43-3.82-.37-1.34-1.14-2.35-2.3-3.03-2.59-1.48-5.27-2.46-8.05-2.96l-.68,9.31c.82.05,1.58.15,2.27.32Z"/>
      <path class="cls-28" d="m193.75,333.92c1.35-.3,2.61-.53,3.78-.69l.28-9.88c-1.49-.02-3.03.08-4.6.32-3.15.47-6.42,1.46-9.83,2.98-1.29.58-2.2,1.52-2.72,2.82-.54,1.33-.52,2.62.05,3.87.46,1.31,1.35,2.23,2.65,2.75,1.27.51,2.54.46,3.8-.13,2.29-1,4.49-1.69,6.6-2.04Z"/>
      <path class="cls-30" d="m201.87,323.72l.03-1.14-4.05-.64-.04,1.41-.28,9.88-.06.96,3.63.23.09-1.39.68-9.31Z"/>
    </g>
    <g id="legBend_0_Layer0_0_FILL-4" data-name="legBend 0 Layer0 0 FILL">
      <path class="cls-6" d="m171.06,378.87c-1.65-3.11-1.37-5.62.85-7.53l-7.64-9.11-4.42,3,11.21,13.65Z"/>
      <path class="cls-2" d="m168.85,380.43l2.2-1.57-11.21-13.65-2.2,1.57,11.21,13.65Z"/>
      <path class="cls-4" d="m166.85,360.03l8.73,6.69c2.22-4.1,2.42-8.75.6-13.95-.52-1.54-1.5-2.72-2.94-3.52-1.39-.8-2.82-1.03-4.29-.67-1.27.32-2.25.98-2.94,1.99,2.23,4.01,2.51,7.17.83,9.46Z"/>
      <path class="cls-20" d="m171.91,371.34c1.52-1.49,2.74-3.03,3.67-4.61l-8.73-6.69c-.61.85-1.47,1.58-2.58,2.19l7.64,9.11Z"/>
    </g>
    <g id="leg_0_Layer0_0_FILL-2" data-name="leg 0 Layer0 0 FILL">
      <path class="cls-2" d="m224.45,341.1l-3.48-.39-6.42,14.35,3.52.3,6.38-14.26Z"/>
      <path class="cls-6" d="m220.97,340.71c-2.45,3.02-5.62,4.66-9.51,4.93l-3.95,8.83,7.05.59,6.42-14.35Z"/>
      <path class="cls-20" d="m211.46,345.64l.02-.05-5.81-.64-4.04,9.02,5.87.49,3.95-8.83Z"/>
      <path class="cls-4" d="m195.06,343.62c-1.88-.16-3.76.32-5.63,1.42-1.86,1.07-3.18,2.47-3.95,4.2s-.74,3.21.04,4.54c.79,1.33,2.12,2.07,4,2.23,2.72-1.73,6.76-2.4,12.11-2.02l4.04-9.02-10.61-1.34Z"/>
    </g>
    <g id="body_0_Layer0_0_FILL-3" data-name="body 0 Layer0 0 FILL">
      <path class="cls-4" d="m166.45,354.94c.18,1.42.61,2.89,1.28,4.41l25.01-3.83c.19-1.65.15-3.18-.1-4.59l-26.19,4.02Z"/>
      <path class="cls-30" d="m165.55,350.07l2.92-.45c.06-2.88-1.84-5.28-5.71-7.22l.32.76c1.03,2.1,1.86,4.4,2.47,6.9m26.78-11.39l.08-.82c-3.11,3.01-4.19,5.87-3.24,8.59l2.92-.45c-.16-2.57-.08-5.01.24-7.32m-4.85.34c-.09-.56-1.1-.91-3.04-1.05-1.99-.03-4.36.16-7.09.58-2.73.42-5.05.94-6.94,1.57-1.81.72-2.68,1.35-2.59,1.91s1.09.86,3.02.9c2.01.13,4.38-.01,7.12-.43s5.04-.99,6.92-1.72c1.83-.62,2.7-1.21,2.61-1.77Z"/>
      <path class="cls-33" d="m193.23,345.83l-1.14.17-2.92.45-20.71,3.17-2.92.45-1.14.17,1.49,4.78.54-.08,26.19-4.02.59-.09v-5.01Z"/>
      <path class="cls-28" d="m194.66,331.09c.15-3.43-.81-5.05-2.87-4.87l-.49.08-30.94,4.74c-2.43.24-3.02,2.1-1.77,5.58,1.77,1.85,3.27,4.03,4.49,6.54l-.32-.76c3.87,1.94,5.77,4.34,5.71,7.22l20.71-3.17c-.96-2.72.12-5.58,3.24-8.59l-.08.82c.42-2.76,1.2-5.29,2.33-7.59m-10.23,6.88c1.94.14,2.96.49,3.04,1.05s-.78,1.15-2.61,1.77c-1.88.73-4.18,1.3-6.92,1.72s-5.11.56-7.12.43c-1.93-.04-2.94-.34-3.02-.9s.78-1.2,2.59-1.91c1.89-.63,4.21-1.15,6.94-1.57,2.73-.42,5.1-.61,7.09-.58Z"/>
    </g>
    <g id="body_0_Layer0_1_FILL-2" data-name="body 0 Layer0 1 FILL">
      <path class="cls-2" d="m186.23,326.92c.13,2.14-.58,4.1-2.13,5.89-1.81,2.06-4.16,3.32-7.06,3.76-2.9.44-5.52-.05-7.86-1.48-2.01-1.21-3.25-2.84-3.73-4.89-.24.88-.29,1.76-.15,2.65.03.16.07.33.13.49.41,2.03,1.72,3.6,3.91,4.71,2.39,1.29,5.1,1.7,8.13,1.23s5.51-1.67,7.44-3.62c1.76-1.72,2.53-3.61,2.32-5.67,0-.17,0-.34-.03-.5-.14-.92-.46-1.78-.95-2.59Z"/>
      <path class="cls-20" d="m186.16,326.12c-.37-2.44-1.7-4.39-3.98-5.86-2.33-1.36-4.95-1.82-7.85-1.38s-5.26,1.67-7.08,3.66c-1.74,2.09-2.42,4.35-2.04,6.79.03.16.07.33.13.49.02.13.06.26.11.39.48,2.05,1.73,3.68,3.73,4.89,2.34,1.43,4.96,1.92,7.86,1.48,2.9-.44,5.25-1.7,7.06-3.76,1.55-1.79,2.26-3.75,2.13-5.89l-.05-.3c0-.17,0-.34-.03-.5Z"/>
    </g>
    <g id="hand_0_Layer0_0_FILL-5" data-name="hand 0 Layer0 0 FILL">
      <path class="cls-13" d="m146.05,354.27l.77-.55c3.02-2.84,4.57-6.05,4.66-9.62.51,7.62-1.31,11.04-5.44,10.25v-.07Z"/>
      <path class="cls-20" d="m146.48,337.85l5,6.25c-.09,3.57-1.64,6.78-4.66,9.62l-.77.55v.07c-.85.71-1.77,1.45-2.78,2.22l-.27.22c-.75.6-1.66.46-2.73-.44-1.63-1.34-3.04-2.78-4.22-4.31-3.06-3.87.42-8.6,10.43-14.18Z"/>
    </g>
    <g id="shadow_0_Layer0_0_FILL-3" data-name="shadow 0 Layer0 0 FILL">
      <path class="cls-29" d="m190.65,318.3c-4.27-1.98-9.16-2.54-14.67-1.7s-10.06,2.86-13.64,6.04c-3.47,3.23-4.92,6.67-4.36,10.33s2.98,6.47,7.24,8.45c4.38,2.03,9.32,2.62,14.84,1.77s10-2.88,13.47-6.11c3.58-3.18,5.09-6.6,4.53-10.25s-3.03-6.5-7.41-8.53Z"/>
    </g>
    <g id="headFocus_0_Layer0_0_FILL-2" data-name="headFocus 0 Layer0 0 FILL">
      <path class="cls-33" d="m199.38,302c-.7-4.76-3.38-8.74-8.04-11.92-5.09-3.49-11.04-5-17.86-4.52s-12.5,2.79-17.06,6.95c-4.15,3.8-6.24,8.1-6.27,12.92.74,5.39,3.44,9.9,8.11,13.52,5.12,3.99,11.09,5.75,17.91,5.27s12.49-3.04,17.01-7.7c4.15-4.23,6.22-9.07,6.21-14.51Z"/>
      <path class="cls-36" d="m199.32,300.55c-.42-6.05-3.19-11.07-8.31-15.06-5.12-3.92-11.08-5.65-17.9-5.17s-12.49,3-17.02,7.6c-4.49,4.66-6.52,10.01-6.1,16.06.03.5.08.98.15,1.44.03-4.81,2.12-9.12,6.27-12.92,4.56-4.16,10.24-6.47,17.06-6.95s12.77,1.04,17.86,4.52c4.66,3.18,7.35,7.16,8.04,11.92,0-.47-.02-.95-.05-1.45Z"/>
    </g>
    <g id="headFocus_0_Layer0_1_FILL-2" data-name="headFocus 0 Layer0 1 FILL">
      <path class="cls-20" d="m151.2,306.95c-1.45,1.67-2.1,3.64-1.95,5.9s1.06,4.02,2.74,5.47c1.68,1.52,3.61,2.21,5.81,2.05,2.16-.15,3.98-1.1,5.47-2.84,1.45-1.67,2.11-3.6,1.95-5.8s-1.07-4.12-2.74-5.57c-1.71-1.49-3.64-2.15-5.8-2s-4.02,1.08-5.47,2.79m2.88,8.97c-1-.87-1.54-1.96-1.63-3.29-.09-1.3.29-2.49,1.15-3.59.87-1,1.96-1.54,3.29-1.63s2.53.29,3.49,1.16c1,.97,1.55,2.1,1.64,3.39s-.29,2.49-1.16,3.49c-.83,1.03-1.93,1.59-3.29,1.68s-2.49-.31-3.49-1.21m34.82-.16c1.68,1.52,3.61,2.21,5.81,2.05,2.16-.15,3.98-1.1,5.47-2.84,1.45-1.67,2.11-3.6,1.95-5.8s-1.07-4.12-2.74-5.57c-1.71-1.49-3.64-2.15-5.8-2s-4.02,1.08-5.47,2.79c-1.45,1.67-2.1,3.64-1.95,5.9s1.06,4.02,2.74,5.47m1.61-9.28c.87-1,1.96-1.54,3.29-1.63s2.49.29,3.49,1.16c1,.97,1.55,2.1,1.64,3.39.09,1.33-.29,2.49-1.16,3.49-.86,1.03-1.96,1.59-3.29,1.68s-2.49-.31-3.49-1.21c-1-.87-1.54-1.96-1.63-3.29s.29-2.49,1.15-3.59Z"/>
      <path class="cls-13" d="m152.45,312.62c.09,1.33.64,2.43,1.63,3.29,1,.9,2.16,1.3,3.49,1.21s2.46-.66,3.29-1.68c.87-1,1.25-2.16,1.16-3.49s-.64-2.43-1.64-3.39c-.96-.87-2.13-1.26-3.49-1.16s-2.43.64-3.29,1.63c-.86,1.1-1.24,2.29-1.15,3.59m41.36-7.78c-1.33.09-2.43.64-3.29,1.63-.86,1.1-1.24,2.29-1.15,3.59s.64,2.43,1.63,3.29c1,.9,2.16,1.3,3.49,1.21s2.43-.65,3.29-1.68c.87-1,1.25-2.16,1.16-3.49-.09-1.3-.64-2.43-1.64-3.39-1-.87-2.16-1.25-3.49-1.16Z"/>
    </g>
    <g id="headFocus_0_Layer0_2_FILL-2" data-name="headFocus 0 Layer0 2 FILL">
      <path class="cls-20" d="m194.77,317.26l.73-22.66-41.75,2.9,3.86,22.34c1.7,4.83,5.4,8.01,11.09,9.56,2.86.77,5.62,1.03,8.27.78,2.7-.12,5.39-.76,8.09-1.91,5.45-2.32,8.69-5.98,9.71-11Z"/>
    </g>
    <g id="headFocus_0_Layer0_3_FILL-2" data-name="headFocus 0 Layer0 3 FILL">
      <path class="cls-33" d="m163.26,313.88c0-.13-.02-.25-.02-.35-.08-1.16.23-2.19.94-3.07.59-.71,1.32-1.18,2.21-1.41l-5.74.4c1.47,1,2.34,2.48,2.61,4.43m6.78,1.68c.42-.7.59-1.54.53-2.54s-.36-1.78-.87-2.45c-.51-.67-1.12-.97-1.82-.93-.67.05-1.19.43-1.57,1.16-.42.73-.59,1.58-.53,2.54s.36,1.81.87,2.45c.48.67,1.05.98,1.72.93.7-.05,1.26-.44,1.67-1.17m18.28-3.77l.02.35c0-1.97.64-3.55,1.93-4.74l-5.69.39c.91.1,1.7.47,2.38,1.09.82.78,1.27,1.75,1.35,2.91m-7.33.51c.07,1,.36,1.81.87,2.45.48.67,1.07.98,1.77.93s1.21-.43,1.62-1.17c.42-.7.59-1.54.53-2.54s-.36-1.78-.87-2.45c-.51-.67-1.1-.98-1.77-.93-.7.05-1.24.44-1.62,1.17-.42.73-.59,1.58-.53,2.54Z"/>
      <path class="cls-2" d="m166.78,308.97c-.13,0-.26.04-.4.08-.89.23-1.62.7-2.21,1.41-.71.88-1.02,1.91-.94,3.07,0,.1.01.22.02.35.14.99.58,1.85,1.33,2.56.86.81,1.87,1.17,3.03,1.09s2.05-.58,2.75-1.49c.74-.89,1.07-1.91.99-3.08s-.55-2.13-1.4-2.91c-.82-.81-1.8-1.18-2.93-1.1-.1,0-.18.01-.25.02m3.79,4.05c.07,1-.11,1.85-.53,2.54-.42.73-.97,1.12-1.67,1.17s-1.24-.26-1.72-.93c-.51-.63-.8-1.45-.87-2.45s.11-1.81.53-2.54c.38-.73.91-1.12,1.57-1.16.7-.05,1.3.26,1.82.93.51.67.8,1.48.87,2.45m14.02-5.23c-.14-.02-.27-.03-.4-.02-.1,0-.2.01-.3.02-1.13.08-2.03.58-2.7,1.49-.74.89-1.07,1.91-.99,3.08.08,1.16.55,2.13,1.4,2.91.79.81,1.75,1.18,2.88,1.1,1.2-.08,2.16-.58,2.9-1.5.65-.81.97-1.72.96-2.72l-.02-.35c-.08-1.16-.53-2.13-1.35-2.91-.68-.62-1.47-.98-2.38-1.09m-2.73,6.96c-.51-.63-.8-1.45-.87-2.45s.11-1.81.53-2.54c.38-.73.92-1.12,1.62-1.17.67-.05,1.25.26,1.77.93.51.67.8,1.48.87,2.45s-.11,1.85-.53,2.54c-.42.73-.96,1.12-1.62,1.17-.7.05-1.29-.26-1.77-.93Z"/>
    </g>
    <g id="headFocus_0_Layer0_4_FILL-2" data-name="headFocus 0 Layer0 4 FILL">
      <path class="cls-14" d="m185.36,320.36c-2.01-1.46-3.92-1.87-5.75-1.21-1.83.59-3.05,2.07-3.65,4.41l9.4-3.21Z"/>
    </g>
    <g id="headFocus_0_Layer0_5_FILL" data-name="headFocus 0 Layer0 5 FILL">
      <path class="cls-14" d="m178.48,317.18c.67-.51.98-1.07.94-1.67-.04-.6-.43-1.12-1.16-1.57-.7-.39-1.52-.55-2.49-.48-.9.06-1.66.33-2.3.81-.63.54-.92,1.12-.88,1.72s.41,1.11,1.11,1.53c.7.45,1.5.65,2.4.59.96-.07,1.76-.37,2.39-.92Z"/>
    </g>
    <g id="headFocus_0_Layer0_6_FILL" data-name="headFocus 0 Layer0 6 FILL">
      <path class="cls-33" d="m195.75,303.15l.42-8.45-.55.04-.06-.85-42.6,2.96,1.18,7.59c7.14-.63,12.33-2.36,15.58-5.19,3.76,4.05,7.58,5.99,11.48,5.82l1.23-3.19c4.6,1.35,9.04,1.78,13.32,1.28Z"/>
    </g>
    <g id="headFocus_0_Layer0_7_FILL" data-name="headFocus 0 Layer0 7 FILL">
      <path class="cls-31" d="m192.16,294.08c-.58-.69-1.3-1.36-2.14-2.01-3.91-2.87-9.2-4.07-15.89-3.61s-11.75,2.37-15.19,5.72c-.25.18-.46.4-.61.64-.53.5-.96,1.07-1.29,1.69-.36.56-.37,1.21-.01,1.96,4.12-2.76,9.94-4.4,17.45-4.92,7.45-.52,13.42.29,17.91,2.42.25-.75.17-1.38-.23-1.89Z"/>
    </g>
    <g id="headFocus_0_Layer0_8_FILL" data-name="headFocus 0 Layer0 8 FILL">
      <path class="cls-33" d="m159.54,310.78c.36-.56.49-1.19.37-1.88l-1.04-5.59-4.94.34,1.18,6.18c.11.66.47,1.2,1.07,1.63.56.36,1.17.47,1.83.32h.05c.66-.12,1.16-.45,1.48-1.01Z"/>
    </g>
    <g id="headFocus_0_Layer0_9_FILL" data-name="headFocus 0 Layer0 9 FILL">
      <path class="cls-33" d="m190.78,306.76c-.02.7.19,1.31.63,1.81.44.5.99.77,1.66.79h.05c.67.05,1.26-.14,1.76-.58.53-.5.81-1.09.83-1.76l.32-6.29-4.99.35-.26,5.68Z"/>
    </g>
    <g id="headFocus_0_Layer0_10_MEMBER_0_FILL" data-name="headFocus 0 Layer0 10 MEMBER 0 FILL">
      <path class="cls-33" d="m189.3,306.36l-.76-2.3-9.18,1.99.68,1.91,9.26-1.59Z"/>
    </g>
    <g id="headFocus_0_Layer0_10_MEMBER_1_FILL" data-name="headFocus 0 Layer0 10 MEMBER 1 FILL">
      <path class="cls-33" d="m162.5,305.86l-.74,2.36,9.41,1.25.61-2-9.28-1.61Z"/>
    </g>
    <g id="headFocus_0_Layer0_11_FILL" data-name="headFocus 0 Layer0 11 FILL">
      <path class="cls-5" d="m196.23,313c-.23.48-.27.95-.1,1.41l1.26,3.77c.17.46.47.8.92,1.04.45.2.92.22,1.41.05h.05c.46-.17.8-.48,1.04-.93.23-.48.27-.97.1-1.46l-1.26-3.72c-.17-.46-.49-.8-.97-1.04-.48-.2-.93-.22-1.36-.06h-.05c-.49.17-.84.48-1.04.93Z"/>
    </g>
    <g id="headFocus_0_Layer0_12_FILL" data-name="headFocus 0 Layer0 12 FILL">
      <path class="cls-5" d="m155.68,315.81c-.26-.42-.65-.67-1.16-.77h-.05c-.47-.1-.94-.02-1.39.25-.45.3-.72.68-.82,1.16l-.68,3.86c-.1.51,0,.99.3,1.43.3.41.66.67,1.11.78h.05c.51.09.97.01,1.39-.25.45-.3.72-.68.82-1.16l.73-3.91c.1-.47,0-.94-.3-1.38Z"/>
    </g>
    <g id="hand_0_Layer0_0_FILL-6" data-name="hand 0 Layer0 0 FILL">
      <path class="cls-13" d="m211.72,339.25l-.95-.09c-4.04-.95-6.98-2.95-8.85-6,3.37,6.85,6.65,8.9,9.83,6.15l-.04-.06Z"/>
      <path class="cls-20" d="m203.13,325.25l-1.21,7.91c1.86,3.05,4.81,5.05,8.85,6l.95.09.04.06c1.08.2,2.25.38,3.51.54l.35.05c.96.15,1.67-.44,2.14-1.75.74-1.98,1.24-3.92,1.5-5.84.71-4.88-4.66-7.24-16.12-7.06Z"/>
    </g>
    <g id="Symbol_1_0_Layer0_0_FILL" data-name="Symbol 1 0 Layer0 0 FILL">
      <path class="cls-20" d="m179.22,12.05c-5.2-4.24-11.48-6.36-18.85-6.36-7.33,0-13.63,2.12-18.9,6.36-2.03,1.67-3.67,3.48-4.9,5.42-.83,2.54-1.25,5.25-1.25,8.14,0,.07,0,.12,0,.16,0,.17,0,.33,0,.47.03,1.84.15,3.63.35,5.37l.8,12.67c0,.42.02.83.05,1.25.2,2.54.75,4.92,1.65,7.14,1.13,2.92,2.87,5.6,5.2,8.03,4.63,4.87,10.25,7.3,16.85,7.3s12.17-2.43,16.8-7.3c2.5-2.57,4.33-5.3,5.5-8.19.43-1.08.77-2.17,1-3.29,1.3-5.81,1.88-11.51,1.75-17.11-.03-1.04-.02-2.05.05-3.02,0-.17.02-.37.05-.57.03-.9.05-1.83.05-2.76,0-.03,0-.09,0-.16,0-2.89-.42-5.6-1.25-8.14-1.27-1.95-2.92-3.75-4.95-5.42Z"/>
      <path class="cls-11" d="m160.37,5.68c7.37,0,13.65,2.12,18.85,6.36,2.03,1.67,3.68,3.48,4.95,5.42-1.2-3.69-3.23-7.01-6.1-9.96-4.9-5.01-10.8-7.51-17.7-7.51s-12.82,2.5-17.75,7.51c-2.87,2.99-4.88,6.31-6.05,9.96,1.23-1.95,2.87-3.75,4.9-5.42,5.27-4.24,11.57-6.36,18.9-6.36Z"/>
    </g>
    <g id="legBend_0_Layer0_0_FILL-5" data-name="legBend 0 Layer0 0 FILL">
      <path class="cls-20" d="m219.67,61.81c-3.42,1.04-5.99.17-7.73-2.59l-10.31,5.96,4.01,7.97,15.42-8.68-1.38-2.66Z"/>
      <path class="cls-5" d="m199.63,61.98l7.92-7.65c-4.02-3.25-8.83-4.5-14.43-3.77-1.66.2-2.99.96-3.99,2.29-.99,1.28-1.38,2.73-1.17,4.34.19,1.4.77,2.58,1.74,3.53,4.42-1.44,7.73-1.02,9.93,1.25Z"/>
      <path class="cls-39" d="m211.94,59.22c-1.38-1.93-2.84-3.55-4.39-4.88l-7.92,7.65c.81.83,1.48,1.89,1.99,3.2l10.31-5.96Z"/>
    </g>
    <g id="leg_0_Layer0_0_FILL-3" data-name="leg 0 Layer0 0 FILL">
      <path class="cls-39" d="m198.72,61.66l-5-.15v9.4h5v-9.25Z"/>
      <path class="cls-20" d="m207.72,56.06l-3-.1c-.9,3.23-2.9,5.15-6,5.75v9.2h9v-14.85Z"/>
      <path class="cls-5" d="m184.52,61.06c-1.6,0-2.97.63-4.1,1.9-1.13,1.23-1.7,2.75-1.7,4.55s.57,3.28,1.7,4.55c1.13,1.27,2.5,1.9,4.1,1.9,1.6-1.97,4.67-2.98,9.2-3.05v-9.4l-9.2-.45Z"/>
    </g>
    <g id="arm_0_Layer0_0_FILL-7" data-name="arm 0 Layer0 0 FILL">
      <path class="cls-39" d="m195.92,38.86c1.2-.63,2.33-1.05,3.4-1.25,2.37-.43,4.22-.73,5.55-.9,1.3-.13,2.02-.92,2.15-2.35.1-1.4-.3-2.63-1.2-3.7-.9-1.03-2.03-1.62-3.4-1.75-3.53-.37-6.95.02-10.25,1.15l3.75,8.8Z"/>
      <path class="cls-8" d="m192.17,30.06c-2.1.7-4.15,1.7-6.15,3-2.67,1.73-5.25,4-7.75,6.8-.9,1.07-1.32,2.28-1.25,3.65.07,1.43.6,2.62,1.6,3.55,1,.97,2.18,1.42,3.55,1.35,1.37-.07,2.52-.62,3.45-1.65,1.63-1.87,3.35-3.4,5.15-4.6,1.83-1.43,3.55-2.53,5.15-3.3l-3.75-8.8Z"/>
    </g>
    <g id="arm_0_Layer0_1_FILL-3" data-name="arm 0 Layer0 1 FILL">
      <path class="cls-17" d="m194.27,40.86l3.4-1.3-4.2-11.1-3.95,1.15,4.75,11.25Z"/>
    </g>
    <g id="body_0_Layer0_0_FILL-4" data-name="body 0 Layer0 0 FILL">
      <path class="cls-17" d="m164.17,64.18l.71.42c3.3,1.74,6.51,4.22,9.62,7.42-.26-6.39-3.7-9-10.32-7.85m21.67-20.54l-.42-.71c-1.15,6.62,1.46,10.06,7.85,10.32-3.21-3.11-5.68-6.32-7.42-9.62Z"/>
      <path class="cls-5" d="m196.1,56.94c-.82-1.44-1.77-2.66-2.83-3.68l-18.77,18.77c1.01,1.06,2.24,2,3.68,2.83l17.92-17.92Z"/>
      <path class="cls-8" d="m185.42,42.93l.42.71c-1.3-2.47-2.18-4.96-2.65-7.46-1.89-2.83-3.59-3.57-5.13-2.23l-.35.35-22.17,22.17c-1.81,1.63-1.2,3.46,1.84,5.52,2.52.45,5.02,1.32,7.5,2.62l-.71-.42c6.62-1.15,10.06,1.46,10.32,7.85l18.77-18.77c-6.39-.26-9-3.7-7.85-10.32m-3.29,3.85c.38.38,0,1.37-1.13,2.97-1.08,1.7-2.6,3.52-4.56,5.48s-3.75,3.44-5.44,4.53c-1.6,1.13-2.59,1.51-2.97,1.13-.4-.4-.07-1.44.99-3.11,1.15-1.63,2.7-3.41,4.63-5.34s3.75-3.51,5.37-4.67c1.67-1.06,2.71-1.39,3.11-.99Z"/>
      <path class="cls-27" d="m181,49.76c1.13-1.6,1.51-2.59,1.13-2.97-.4-.4-1.44-.07-3.11.99-1.63,1.15-3.42,2.71-5.37,4.67s-3.48,3.71-4.63,5.34c-1.06,1.67-1.39,2.71-.99,3.11.38.38,1.37,0,2.97-1.13,1.7-1.08,3.51-2.59,5.44-4.53s3.48-3.78,4.56-5.48Z"/>
    </g>
    <g id="body_0_Layer0_1_FILL-3" data-name="body 0 Layer0 1 FILL">
      <path class="cls-20" d="m195.25,53.54l-3.54-3.54-19.8,19.8,3.54,3.54,19.8-19.8Z"/>
    </g>
    <g id="body_0_Layer0_2_FILL-2" data-name="body 0 Layer0 2 FILL">
      <path class="cls-20" d="m199.88,59.87l.04-.04c.47-.47.7-1.03.67-1.66-.05-.66-.35-1.18-.92-1.56l-4.56-3.29-3.57,3.57,4.56,3.29c.57.38,1.21.55,1.94.53.73-.07,1.34-.35,1.84-.85Z"/>
    </g>
    <g id="body_0_Layer0_3_FILL-2" data-name="body 0 Layer0 3 FILL">
      <path class="cls-32" d="m173.33,37.28c-1.77-1.77-4.01-2.57-6.72-2.4-2.66.26-5.02,1.41-7.07,3.46s-3.21,4.41-3.46,7.07c-.16,2.71.64,4.95,2.4,6.72.12.12.25.22.39.32,1.67,1.53,3.75,2.19,6.22,1.98,2.73-.19,5.13-1.31,7.18-3.36s3.17-4.44,3.36-7.18c.21-2.47-.45-4.55-1.98-6.22-.09-.14-.2-.27-.32-.39Z"/>
    </g>
    <g id="body_0_Layer0_4_FILL" data-name="body 0 Layer0 4 FILL">
      <path class="cls-20" d="m155.72,50.64l-.25,5.55c11.64,2.73,23.24,3.04,34.79.92l.25-5.48c-10.72,1.77-22.32,1.44-34.79-.99Z"/>
    </g>
    <g id="shadow_0_Layer0_0_FILL-4" data-name="shadow 0 Layer0 0 FILL">
      <path class="cls-10" d="m183.76,41.76c-3.92-2.6-8.67-3.9-14.24-3.9s-10.38,1.3-14.4,3.9c-3.92,2.67-5.88,5.85-5.88,9.55s1.96,6.85,5.88,9.45c4.02,2.67,8.82,4,14.4,4s10.33-1.33,14.24-4c4.02-2.6,6.03-5.75,6.03-9.45s-2.01-6.88-6.03-9.55Z"/>
    </g>
    <g id="headShock_0_Layer0_0_MEMBER_0_FILL" data-name="headShock 0 Layer0 0 MEMBER 0 FILL">
      <path class="cls-39" d="m174.97,36.49c1.92,1.16,3.94,1.46,6.07.91s3.75-1.8,4.87-3.74c1.12-1.94,1.4-3.99.84-6.15s-1.8-3.82-3.71-4.98c-1.92-1.16-3.94-1.46-6.07-.91s-3.75,1.8-4.87,3.74c-1.12,1.94-1.4,3.99-.84,6.15s1.8,3.82,3.71,4.98m-.12-9.47c.66-1.17,1.64-1.92,2.93-2.25s2.53-.15,3.7.54c1.12.74,1.84,1.74,2.17,3,.34,1.32.19,2.55-.44,3.68-.69,1.18-1.69,1.93-2.98,2.27-1.29.33-2.51.15-3.65-.55-1.14-.67-1.88-1.67-2.22-2.99s-.16-2.49.49-3.69Z"/>
      <path class="cls-7" d="m177.78,24.77c-1.29.33-2.27,1.08-2.93,2.25-.65,1.2-.82,2.43-.49,3.69.34,1.32,1.08,2.32,2.22,2.99,1.15.7,2.36.89,3.65.55,1.29-.33,2.28-1.09,2.98-2.27.64-1.13.79-2.35.44-3.68-.33-1.26-1.05-2.26-2.17-3-1.18-.69-2.41-.87-3.7-.54Z"/>
    </g>
    <g id="headShock_0_Layer0_0_MEMBER_1_FILL" data-name="headShock 0 Layer0 0 MEMBER 1 FILL">
      <path class="cls-39" d="m135.44,40.77c.56,2.16,1.8,3.82,3.71,4.98,1.92,1.16,3.94,1.46,6.07.91s3.72-1.79,4.87-3.74c1.12-1.94,1.4-3.99.84-6.15s-1.8-3.82-3.71-4.98c-1.95-1.15-3.97-1.45-6.07-.91s-3.75,1.8-4.87,3.74c-1.12,1.94-1.4,3.99-.84,6.15m3.15-.81c-.33-1.26-.18-2.48.44-3.68.66-1.17,1.64-1.92,2.93-2.25s2.54-.16,3.65.55c1.15.73,1.89,1.73,2.22,2.99.34,1.32.18,2.55-.49,3.69-.63,1.16-1.61,1.91-2.93,2.25-1.29.33-2.51.15-3.65-.55-1.1-.68-1.83-1.68-2.17-3Z"/>
      <path class="cls-7" d="m139.03,36.28c-.62,1.19-.77,2.42-.44,3.68.34,1.32,1.06,2.32,2.17,3,1.15.7,2.36.89,3.65.55,1.32-.34,2.3-1.09,2.93-2.25.67-1.14.83-2.37.49-3.69s-1.06-2.26-2.22-2.99c-1.11-.71-2.33-.9-3.65-.55s-2.27,1.08-2.93,2.25Z"/>
    </g>
    <g id="headShock_0_Layer0_0_MEMBER_2_FILL" data-name="headShock 0 Layer0 0 MEMBER 2 FILL">
      <path class="cls-39" d="m181.02,36.9l-3.45-22.55-40.52,10.46,7.9,21.4c2.57,4.47,6.8,6.92,12.69,7.36,2.93.28,5.68.05,8.24-.68,2.63-.61,5.16-1.75,7.59-3.41,4.95-3.24,7.46-7.44,7.54-12.59Z"/>
    </g>
    <g id="headShock_0_Layer0_0_MEMBER_3_FILL" data-name="headShock 0 Layer0 0 MEMBER 3 FILL">
      <path class="cls-7" d="m164.98,39.8c.56-.63.76-1.25.6-1.86-.15-.58-.63-1.03-1.43-1.34-.75-.25-1.6-.26-2.53-.02-.87.23-1.58.63-2.11,1.22-.52.65-.71,1.27-.56,1.85.16.61.62,1.06,1.38,1.35.77.32,1.59.36,2.46.14.94-.24,1.66-.69,2.18-1.34Z"/>
    </g>
    <g id="headShock_0_Layer0_0_MEMBER_3_MEMBER_0_MEMBER_0_FILL" data-name="headShock 0 Layer0 0 MEMBER 3 MEMBER 0 MEMBER 0 FILL">
      <path class="cls-20" d="m149.41,39.28c-.03-.13-.06-.24-.09-.34-.3-1.16-.18-2.24.35-3.24.45-.8,1.09-1.38,1.93-1.74l-5.57,1.44c1.62.68,2.75,1.98,3.38,3.88m6.98.42c.29-.76.3-1.63.05-2.6s-.69-1.73-1.32-2.29c-.63-.56-1.28-.75-1.96-.58-.61.16-1.06.63-1.34,1.43-.28.79-.29,1.68-.04,2.64s.68,1.72,1.3,2.25c.64.59,1.26.81,1.87.65.68-.18,1.15-.68,1.42-1.5Z"/>
      <path class="cls-2" d="m151.97,33.81c-.13.03-.25.08-.37.15-.84.35-1.48.93-1.93,1.74-.53,1-.65,2.08-.35,3.24.03.1.05.21.09.34.31.95.91,1.71,1.78,2.28,1,.67,2.08.86,3.24.56,1.07-.28,1.86-.94,2.37-2.01.57-1.01.7-2.08.41-3.2s-.94-2.05-1.92-2.65c-.95-.62-1.96-.79-3.02-.51l-.29.08m4.46,3.29c.25.97.23,1.83-.05,2.6-.27.83-.74,1.33-1.42,1.5-.61.16-1.24-.06-1.87-.65-.62-.53-1.05-1.28-1.3-2.25s-.24-1.85.04-2.64c.28-.79.72-1.27,1.34-1.43.68-.18,1.33.02,1.96.58.63.56,1.07,1.33,1.32,2.29Z"/>
    </g>
    <g id="headShock_0_Layer0_0_MEMBER_3_MEMBER_0_MEMBER_1_FILL" data-name="headShock 0 Layer0 0 MEMBER 3 MEMBER 0 MEMBER 1 FILL">
      <path class="cls-20" d="m173.67,32.65l.09.34c-.37-1.97-.03-3.64,1.03-5.02l-5.52,1.43c.9-.1,1.75.1,2.53.59.95.62,1.58,1.5,1.88,2.67m-7.12,1.84c.25.97.68,1.72,1.3,2.25.64.59,1.28.81,1.92.64.65-.17,1.1-.66,1.37-1.49.29-.76.3-1.63.05-2.6s-.69-1.73-1.32-2.29c-.63-.56-1.26-.76-1.91-.59s-1.11.65-1.38,1.44c-.28.79-.29,1.68-.04,2.64Z"/>
      <path class="cls-2" d="m169.27,29.4c-.14,0-.27.02-.4.05l-.29.08c-1.07.28-1.86.91-2.4,1.91-.57,1.01-.7,2.09-.4,3.25.29,1.13.93,2,1.91,2.6.97.68,1.98.88,3.05.61,1.16-.3,2.02-.99,2.57-2.06.49-.92.64-1.87.45-2.85l-.09-.34c-.3-1.16-.93-2.05-1.88-2.67-.78-.49-1.62-.68-2.53-.59m-1.41,7.34c-.62-.53-1.05-1.28-1.3-2.25s-.24-1.85.04-2.64c.28-.79.74-1.28,1.38-1.44s1.28.03,1.91.59c.63.56,1.07,1.33,1.32,2.29s.23,1.83-.05,2.6c-.27.83-.73,1.32-1.37,1.49-.65.17-1.29-.05-1.92-.64Z"/>
    </g>
    <g id="headShock_0_Layer0_0_MEMBER_3_MEMBER_1_FILL" data-name="headShock 0 Layer0 0 MEMBER 3 MEMBER 1 FILL">
      <path class="cls-20" d="m173.86,25.37l-.61-2.37-9.33,1.27.51,1.98,9.43-.89Z"/>
    </g>
    <g id="headShock_0_Layer0_0_MEMBER_3_MEMBER_2_FILL" data-name="headShock 0 Layer0 0 MEMBER 3 MEMBER 2 FILL">
      <path class="cls-20" d="m145.24,31.16l1.23,2.16,7.41-5.89-1.05-1.85-7.6,5.58Z"/>
    </g>
    <g id="headShock_0_Layer0_0_MEMBER_3_MEMBER_3_FILL" data-name="headShock 0 Layer0 0 MEMBER 3 MEMBER 3 FILL">
      <path class="cls-20" d="m163.42,42.73c-.87.23-1.53.72-1.99,1.49-.43.73-.55,1.52-.37,2.37,0,.03.02.06.03.1.23.87.72,1.53,1.49,1.99.77.45,1.59.57,2.46.34s1.53-.72,1.99-1.49c.45-.77.57-1.59.34-2.46,0-.03-.02-.06-.03-.1-.25-.83-.74-1.46-1.47-1.89-.77-.45-1.59-.57-2.46-.34Z"/>
    </g>
    <g id="headShock_0_Layer0_1_FILL" data-name="headShock 0 Layer0 1 FILL">
      <path class="cls-11" d="m180.6,32.1l-1.22-9.34c-7.4,2.29-15.95,1.64-25.65-1.95,5.46,8.47,14.42,12.23,26.88,11.29Z"/>
      <path class="cls-20" d="m179.38,22.76l-1.21-9.29-42.02,10.85,2.55,7.29c6.91-1.92,11.91-5.52,15.03-10.8,9.71,3.59,18.26,4.24,25.65,1.95Z"/>
    </g>
    <g id="headShock_0_Layer0_2_FILL" data-name="headShock 0 Layer0 2 FILL">
      <path class="cls-31" d="m174.18,14.44c-.7-.58-1.52-1.1-2.47-1.58-4.37-2.11-9.79-2.33-16.28-.65s-11.12,4.47-13.89,8.39c-.18.22-.33.46-.43.73-.46.6-.8,1.24-1,1.91-.25.62-.14,1.26.34,1.93,3.55-3.46,8.97-6.14,16.26-8.02s13.25-2.16,18.05-.89c.11-.79-.08-1.39-.57-1.81Z"/>
    </g>
    <g id="arm_0_Layer0_0_FILL-8" data-name="arm 0 Layer0 0 FILL">
      <path class="cls-39" d="m164.87,63.06c1.2.63,2.33,1.05,3.4,1.25,2.37.43,4.22.73,5.55.9,1.3.13,2.02.92,2.15,2.35.1,1.4-.3,2.63-1.2,3.7-.9,1.03-2.03,1.62-3.4,1.75-3.53.37-6.95-.02-10.25-1.15l3.75-8.8Z"/>
      <path class="cls-8" d="m161.12,71.86c-2.1-.7-4.15-1.7-6.15-3-2.67-1.73-5.25-4-7.75-6.8-.9-1.07-1.32-2.28-1.25-3.65.07-1.43.6-2.62,1.6-3.55,1-.97,2.18-1.42,3.55-1.35,1.37.07,2.52.62,3.45,1.65,1.63,1.87,3.35,3.4,5.15,4.6,1.83,1.43,3.55,2.53,5.15,3.3l-3.75,8.8Z"/>
    </g>
    <g id="arm_0_Layer0_1_FILL-4" data-name="arm 0 Layer0 1 FILL">
      <path class="cls-17" d="m163.22,61.06l3.4,1.3-4.2,11.1-3.95-1.15,4.75-11.25Z"/>
    </g>
    <g id="hand_0_Layer0_0_FILL-7" data-name="hand 0 Layer0 0 FILL">
      <path class="cls-32" d="m208.97,42.2l-.95.05c-4.13-.33-7.35-1.87-9.65-4.6,4.37,6.27,7.92,7.8,10.65,4.6l-.05-.05Z"/>
      <path class="cls-39" d="m198.37,29.66v8c2.3,2.73,5.52,4.27,9.65,4.6l.95-.05.05.05c1.1.03,2.28.03,3.55,0h.35c.97,0,1.58-.68,1.85-2.05.43-2.07.63-4.07.6-6-.03-4.93-5.7-6.45-17-4.55Z"/>
    </g>
    <g id="hand_0_Layer0_0_FILL-8" data-name="hand 0 Layer0 0 FILL">
      <path class="cls-32" d="m178.92,59.76l-.95-.05c-4.13.33-7.35,1.87-9.65,4.6,4.37-6.27,7.92-7.8,10.65-4.6l-.05.05Z"/>
      <path class="cls-39" d="m168.32,72.3v-8c2.3-2.73,5.52-4.27,9.65-4.6l.95.05.05-.05c1.1-.03,2.28-.03,3.55,0h.35c.97,0,1.58.68,1.85,2.05.43,2.07.63,4.07.6,6-.03,4.93-5.7,6.45-17,4.55Z"/>
    </g>
    <g id="arm_0_Layer0_0_FILL-9" data-name="arm 0 Layer0 0 FILL">
      <path class="cls-23" d="m325.32,259.93l2.19-.24c-1.84-.6-3.29-1.57-4.34-2.89-1.9-2.37-4.13-4.56-6.7-6.55-1.27-.93-2.72-1.33-4.35-1.18-1.62.21-2.94.96-3.98,2.24-1,1.32-1.37,2.76-1.13,4.35.18,1.62.89,2.93,2.14,3.94,1.76,1.35,3.26,2.84,4.51,4.48,1.29,1.4,2.01,3.03,2.14,4.89l.32-1.19.88-3.46c1.76.78,3.29,1.11,4.58,1.01.51-1.46.6-3.13.26-5l3.48-.38Z"/>
      <path class="cls-24" d="m327.07,263.11c-.13-.25-.26-.51-.38-.76l-9.5,7.77c.38,1,.69,2.05.95,3.16.34,1.57,1.19,2.8,2.56,3.69,1.4.85,2.9,1.12,4.51.81,1.57-.37,2.79-1.26,3.68-2.66.89-1.34,1.17-2.82.82-4.46-.44-1.89-1.01-3.69-1.7-5.39-.28-.74-.6-1.46-.94-2.16Z"/>
      <path class="cls-21" d="m326.69,262.34c-.43-.82-.88-1.63-1.37-2.41l-3.48.38c.34,1.87.25,3.54-.26,5-1.29.11-2.82-.23-4.58-1.01l-.88,3.46c.38.76.74,1.54,1.06,2.35l9.5-7.77Z"/>
    </g>
    <g id="hand_0_Layer0_0_FILL-9" data-name="hand 0 Layer0 0 FILL">
      <path class="cls-21" d="m317.76,282.96l-.31-.9c-.83-4.06-.51-7.48.97-10.27-4.36,5.74-4.59,9.48-.69,11.23l.03-.06Z"/>
      <path class="cls-24" d="m330.72,269.57c-.28-.85-.89-1.15-1.82-.88l-10.49,3.1c-1.48,2.79-1.8,6.21-.97,10.27l.31.9-.03.06c.27,1.06.6,2.18.98,3.36l.11.38c.26.9,1.12,1.27,2.56,1.13,2.14-.14,4.17-.5,6.08-1.09,5.43-1.61,6.6-7.07,3.51-16.37l-.25-.86Z"/>
    </g>
    <g id="leg_0_Layer0_0_FILL-4" data-name="leg 0 Layer0 0 FILL">
      <path class="cls-24" d="m315.64,288.29l.73-4.99-5.95-.02c-1.39,2.23-3.54,3.38-6.45,3.48l-.22,1.5,11.85.03h.05Z"/>
      <path class="cls-33" d="m320.2,297.29l.45-2.99-5.06-6-11.85-.03-1.44,8.98,17.9.05Z"/>
      <path class="cls-5" d="m317.89,274.12c.19-1.6-.29-2.96-1.43-4.1-1.1-1.13-2.55-1.7-4.35-1.71s-3.35.56-4.75,1.68c-1.4,1.13-2.19,2.49-2.37,4.09l-.51,9.18-.5,3.49c2.91-.09,5.06-1.25,6.45-3.48l5.95.02,1.51-9.18Z"/>
    </g>
    <g id="legBend_0_Layer0_0_FILL-6" data-name="legBend 0 Layer0 0 FILL">
      <path class="cls-33" d="m294.22,292.02l2.88-7.06-4.95-10.47-7.68,2.93,7.18,15.63,2.57-1.02Z"/>
      <path class="cls-24" d="m301.92,281.33l-3.72-4.66c-2.23,1.17-4.25.44-6.05-2.18l4.95,10.47c1.88-1.1,3.49-2.31,4.82-3.63Z"/>
      <path class="cls-5" d="m304.4,263.98c-1.13-1.08-2.46-1.61-3.98-1.6-1.55.03-2.83.61-3.86,1.73-1,1.11-1.45,2.46-1.37,4.07.09,1.44-.14,2.72-.71,3.81-.54.97-1.32,1.8-2.33,2.49,1.8,2.62,3.81,3.34,6.05,2.18l3.72,4.66c3.27-3.46,4.73-7.89,4.38-13.3-.09-1.6-.72-2.95-1.9-4.04Z"/>
    </g>
    <g id="arm_0_Layer0_0_FILL-10" data-name="arm 0 Layer0 0 FILL">
      <path class="cls-23" d="m280.4,258.91l-2.05-.79c1.94-.11,3.58-.68,4.93-1.69,2.44-1.81,5.16-3.36,8.15-4.64,1.47-.58,2.98-.59,4.51-.03,1.51.62,2.6,1.68,3.28,3.19.63,1.53.62,3.02-.01,4.49-.59,1.52-1.61,2.61-3.07,3.26-2.04.86-3.88,1.92-5.51,3.19-1.61,1.03-2.71,2.42-3.32,4.19v-1.23s.03-3.58.03-3.58c-1.9.31-3.47.24-4.69-.19-.12-1.55.22-3.18,1.03-4.91l-3.27-1.25Z"/>
      <path class="cls-24" d="m277.89,261.54c.19-.21.38-.43.57-.64l7.21,9.95c-.62.87-1.19,1.81-1.72,2.82-.73,1.43-1.87,2.41-3.42,2.92-1.57.47-3.1.35-4.57-.36-1.42-.76-2.38-1.93-2.88-3.52-.52-1.52-.41-3.03.35-4.53.91-1.72,1.92-3.32,3.02-4.79.46-.64.95-1.26,1.46-1.85Z"/>
      <path class="cls-21" d="m278.46,260.9c.62-.69,1.27-1.35,1.94-1.99l3.27,1.25c-.81,1.73-1.15,3.36-1.03,4.91,1.23.43,2.79.5,4.69.19l-.03,3.58c-.57.64-1.11,1.31-1.62,2l-7.21-9.95Z"/>
    </g>
    <g id="hand_0_Layer0_0_FILL-10" data-name="hand 0 Layer0 0 FILL">
      <path class="cls-21" d="m282.64,283.05l.53-.79c1.84-3.71,2.4-7.11,1.68-10.18,2.76,6.67,2.03,10.35-2.2,11.04l-.02-.07Z"/>
      <path class="cls-24" d="m273.51,266.79c.49-.75,1.15-.88,1.98-.39l9.36,5.68c.72,3.07.16,6.47-1.68,10.18l-.53.79.02.07c-.54.96-1.14,1.96-1.8,3l-.21.34c-.48.8-1.4.95-2.77.44-2.04-.68-3.91-1.55-5.61-2.61-4.84-2.94-4.58-8.52.78-16.73l.46-.77Z"/>
    </g>
    <g>
      <g id="body_0_Layer0_0_FILL-5" data-name="body 0 Layer0 0 FILL">
        <path class="cls-5" d="m317.73,275.38l-2.39.19-3.83-4.15-3.67,4.76-16.19,1.31c.17,2.19.7,3.89,1.57,5.08l23.48-1.9c.74-1.33,1.09-3.09,1.03-5.29Z"/>
        <path class="cls-4" d="m319.55,256.59c.42-3.64-.42-5.31-2.53-5.01l-27.16,2.2c-2.12.04-2.78,1.83-1.99,5.37l3.53,13.39.26,4.94,16.19-1.31,3.67-4.76,3.83,4.15,2.39-.19-.26-4.94,2.07-13.85Z"/>
      </g>
      <g id="body_0_Layer0_0_MEMBER_0_FILL-2" data-name="body 0 Layer0 0 MEMBER 0 FILL">
        <path class="cls-21" d="m310.04,244.68c-1.91-1.55-4.14-2.22-6.68-2.01s-4.69,1.23-6.42,3.08c-1.7,1.94-2.49,4.16-2.36,6.65,0,.17.03.33.07.5.2,2.25,1.19,4.11,2.95,5.57,1.92,1.65,4.15,2.37,6.69,2.16s4.68-1.28,6.41-3.23c1.59-1.73,2.38-3.73,2.35-6,.02-.17.03-.34.02-.5-.13-2.49-1.14-4.57-3.03-6.22Z"/>
      </g>
      <g id="body_0_Layer0_0_MEMBER_1_FILL-2" data-name="body 0 Layer0 0 MEMBER 1 FILL">
        <path class="cls-23" d="m292.45,252.57l-1.59,3.74,11.76,6.66,1.59-3.79-11.76-6.61m22.74-1.84l-10.98,8.46,1.97,3.5,10.97-8.51-1.97-3.45Z"/>
        <path class="cls-4" d="m306.18,262.68l-1.97-3.5-1.59,3.79,3.56-.29Z"/>
      </g>
      <g id="body_0_Layer0_0_MEMBER_2_FILL-2" data-name="body 0 Layer0 0 MEMBER 2 FILL">
        <path class="cls-24" d="m305.35,265.21c-.09-.06-.16-.05-.22.02-.77.33-1.83,1.35-3.2,3.07h-.04c-1.27,1.81-2.02,3.14-2.23,3.99-.02.1-.02.19.01.25.03.1.1.18.19.24.09.03.16.02.22-.02.77-.33,1.85-1.32,3.24-2.97v-.05c1.27-1.81,2-3.17,2.18-4.09.02-.1.02-.19-.01-.25-.03-.1-.08-.16-.14-.19Z"/>
      </g>
      <g id="body_0_Layer0_0_MEMBER_3_FILL-2" data-name="body 0 Layer0 0 MEMBER 3 FILL">
        <path class="cls-24" d="m292.88,260.81c-.02.1-.03.19-.03.25.08.93.66,2.37,1.75,4.32v.05c1.18,1.88,2.08,3.04,2.71,3.49.09.03.16.04.22.03.12,0,.2-.05.26-.12.05-.1.08-.19.07-.26-.08-.93-.63-2.39-1.67-4.37-1.2-1.84-2.16-2.98-2.88-3.42-.09-.06-.16-.09-.22-.08-.09.04-.16.08-.21.12Z"/>
      </g>
    </g>
    <g id="shadow_0_Layer0_0_FILL-5" data-name="shadow 0 Layer0 0 FILL">
      <path class="cls-9" d="m315.82,240.61c-3.14-2.6-6.94-3.9-11.41-3.9s-8.31,1.3-11.53,3.9c-3.14,2.67-4.71,5.85-4.71,9.55s1.57,6.85,4.71,9.45c3.22,2.67,7.06,4,11.53,4s8.27-1.33,11.41-4c3.22-2.6,4.83-5.75,4.83-9.45s-1.61-6.88-4.83-9.55Z"/>
    </g>
    <g>
      <g id="head_0_Layer0_0_FILL-2" data-name="head 0 Layer0 0 FILL">
        <path class="cls-24" d="m282.98,233.44c-1.65,1.48-2.54,3.35-2.67,5.61s.55,4.14,2.03,5.82c1.51,1.69,3.36,2.59,5.56,2.72s4.14-.57,5.83-2.08c1.65-1.51,2.54-3.36,2.67-5.56.13-2.26-.55-4.22-2.02-5.87s-3.36-2.59-5.56-2.72c-2.2-.12-4.14.57-5.83,2.08m1.78,9.26c-.88-.98-1.28-2.14-1.21-3.47s.6-2.44,1.59-3.42c.98-.88,2.14-1.28,3.47-1.21s2.49.61,3.37,1.59c.87,1.08,1.27,2.28,1.2,3.57-.08,1.33-.6,2.44-1.59,3.32-.99.95-2.16,1.38-3.53,1.3s-2.43-.64-3.31-1.69m35.41-7.17c-1.65,1.48-2.54,3.35-2.67,5.61s.55,4.14,2.03,5.82c1.51,1.69,3.36,2.59,5.56,2.72s4.14-.57,5.83-2.08c1.65-1.51,2.54-3.36,2.67-5.56s-.55-4.22-2.02-5.87c-1.51-1.69-3.36-2.59-5.56-2.72-2.2-.12-4.14.57-5.83,2.08m2.17,2.38c.98-.88,2.14-1.28,3.47-1.21s2.45.61,3.37,1.59c.87,1.08,1.27,2.28,1.2,3.57s-.6,2.44-1.59,3.32c-1.02.94-2.2,1.38-3.53,1.3s-2.43-.64-3.31-1.69c-.91-.99-1.33-2.15-1.26-3.48s.62-2.44,1.64-3.41Z"/>
        <path class="cls-21" d="m283.56,239.23c-.08,1.33.33,2.49,1.21,3.47.88,1.05,1.98,1.61,3.31,1.69s2.54-.36,3.53-1.3c.98-.88,1.51-1.98,1.59-3.32.07-1.3-.33-2.49-1.2-3.57-.88-.98-2-1.52-3.37-1.59s-2.49.33-3.47,1.21c-.99.98-1.52,2.12-1.59,3.42m42.26-2.52c-1.33-.08-2.49.33-3.47,1.21-1.02.98-1.57,2.11-1.64,3.41s.34,2.49,1.26,3.48c.88,1.05,1.98,1.61,3.31,1.69s2.51-.36,3.53-1.3c.98-.88,1.51-1.98,1.59-3.32s-.33-2.49-1.2-3.57c-.91-.99-2.03-1.52-3.37-1.59Z"/>
      </g>
      <g id="head_0_Layer0_1_FILL-2" data-name="head 0 Layer0 1 FILL">
        <path class="cls-24" d="m318.24,254.71c3.59-.27,5.73-2.1,6.42-5.5l4.13-26.16-41.93-2.36,1.43,32.33,29.95,1.69Z"/>
      </g>
      <g id="head_0_Layer0_2_FILL-2" data-name="head 0 Layer0 2 FILL">
        <path class="cls-33" d="m335.56,211.36l-.18-.41-5.82.22c-.81,4.86-3.65,8.27-8.54,10.24,1.37-5.87,1.2-9.43-.5-10.7-2.45-1.04-4.98-3.19-7.6-6.44-1.21-1.7-2.43-1.82-3.69-.36-3.57,4.61-7.51,8.34-11.85,11.2-2.97-1.27-5.93-3.11-8.9-5.51-1.39,2.69-2.12,4.17-2.2,4.43-.86,2.29-1.28,4.6-1.24,6.94.02.84.09,1.71.2,2.62l3.58,5.81.29-5.14c.54-.07,1.08-.14,1.61-.21l.29.12c3.44,1.73,7.66,2.74,12.65,3.02s9.3-.24,12.91-1.58c.99-.38,1.85-.78,2.57-1.21,3.07.54,6.16,1.23,9.25,2.07l-.33,5.79,1.34-2.38c3.14-5.37,4.86-8.41,5.17-9.12.39-1.05.69-2.1.88-3.16v-.1c.35-2.05.39-4.1.1-6.15Z"/>
        <path class="cls-36" d="m335.56,211.36c-.32-2.09-.98-4.18-2-6.27l-10.67.9c-3.18.15-6.7-2.03-10.55-6.55-1.24-1.61-2.39-1.67-3.44-.19-2.87,4.75-6.65,8.37-11.33,10.88-2.52.96-5.55.79-9.09-.51,2.97,2.4,5.94,4.24,8.9,5.51,4.33-2.86,8.28-6.59,11.85-11.2,1.25-1.47,2.48-1.35,3.69.36,2.62,3.25,5.15,5.4,7.6,6.44,1.7,1.26,1.86,4.83.5,10.7,4.88-1.96,7.73-5.37,8.54-10.24l5.82-.22.18.41Z"/>
      </g>
      <g id="head_0_Layer0_3_FILL-2" data-name="head 0 Layer0 3 FILL">
        <path class="cls-21" d="m309.34,243.79c.73-.43,1.1-.94,1.14-1.54s-.28-1.17-.96-1.71c-.64-.47-1.44-.73-2.41-.79-.93-.05-1.74.12-2.43.51-.69.46-1.06.99-1.09,1.59-.03.6.27,1.15.91,1.65.64.54,1.42.83,2.35.88s1.79-.15,2.49-.61Z"/>
      </g>
      <g id="head_0_Layer0_3_MEMBER_0_MEMBER_0_FILL" data-name="head 0 Layer0 3 MEMBER 0 MEMBER 0 FILL">
        <path class="cls-21" d="m323.83,242.65c.09-1.66-.37-3.14-1.4-4.44-1.1-1.26-2.49-1.94-4.19-2.04s-3.03.43-4.19,1.57c-1.23,1.17-1.9,2.58-1.99,4.24s.41,3.14,1.5,4.44c1.03,1.29,2.36,1.99,3.99,2.08s3.16-.44,4.4-1.6c1.17-1.17,1.8-2.59,1.89-4.25Z"/>
      </g>
      <g id="head_0_Layer0_3_MEMBER_0_MEMBER_1_FILL" data-name="head 0 Layer0 3 MEMBER 0 MEMBER 1 FILL">
        <path class="cls-15" d="m314.42,240.77c-.05.97.23,1.8.86,2.5.56.73,1.31,1.13,2.24,1.18,1,.06,1.83-.25,2.51-.91.67-.63,1.03-1.43,1.09-2.39.05-.93-.22-1.78-.81-2.55-.59-.7-1.39-1.08-2.39-1.14-.93-.05-1.72.24-2.35.87-.71.69-1.09,1.51-1.14,2.44Z"/>
      </g>
      <g id="head_0_Layer0_3_MEMBER_1_FILL-2" data-name="head 0 Layer0 3 MEMBER 1 FILL">
        <path class="cls-21" d="m301.69,241.9c1.23-1.13,1.9-2.55,1.99-4.24s-.41-3.13-1.51-4.39c-1.03-1.26-2.36-1.94-3.99-2.03s-3.16.42-4.39,1.56c-1.17,1.14-1.8,2.54-1.89,4.2s.37,3.18,1.4,4.44c1.1,1.3,2.49,1.99,4.19,2.09s3.03-.45,4.2-1.62Z"/>
      </g>
      <g id="head_0_Layer0_3_MEMBER_2_FILL-2" data-name="head 0 Layer0 3 MEMBER 2 FILL">
        <path class="cls-36" d="m291.91,227.88l.7,3.55,9.23-1.98-.7-3.5-9.22,1.93Z"/>
      </g>
      <g id="head_0_Layer0_3_MEMBER_3_FILL" data-name="head 0 Layer0 3 MEMBER 3 FILL">
        <path class="cls-36" d="m323.09,236.25l.6-3.52-9.32-1.68-.55,3.57,9.27,1.62Z"/>
      </g>
      <g id="head_0_Layer0_3_MEMBER_4_FILL" data-name="head 0 Layer0 3 MEMBER 4 FILL">
        <path class="cls-15" d="m300.32,238.62c.7-.63,1.08-1.44,1.14-2.44.05-.93-.23-1.77-.86-2.5-.56-.7-1.31-1.08-2.24-1.13-1-.06-1.83.23-2.5.86-.67.66-1.03,1.46-1.09,2.39-.06,1,.21,1.85.81,2.55.59.73,1.39,1.13,2.39,1.19.93.05,1.72-.25,2.36-.92Z"/>
      </g>
      <g id="head_0_Layer0_4_FILL-2" data-name="head 0 Layer0 4 FILL">
        <path class="cls-33" d="m287.71,221.63h-.05c-.67.06-1.24.36-1.7.9-.46.51-.66,1.1-.6,1.77l.7,10.61c.03.64.32,1.2.86,1.7.51.46,1.1.66,1.77.6h.05c.67-.03,1.22-.31,1.65-.86.43-.51.63-1.1.6-1.77l-.71-10.56c-.06-.7-.34-1.29-.85-1.75-.48-.43-1.05-.64-1.72-.65m38.71,2.73c-.56.4-.9.95-1.04,1.64l-2.12,11.8c-.1.66.03,1.29.4,1.88.37.56.88.88,1.55.99h.05c.66.14,1.27.02,1.82-.35.59-.43.94-.98,1.04-1.64l2.12-11.85c.14-.66,0-1.27-.4-1.83-.4-.59-.93-.95-1.59-1.09h-.05c-.66-.07-1.26.08-1.78.45Z"/>
      </g>
      <g id="head_0_Layer0_5_FILL-2" data-name="head 0 Layer0 5 FILL">
        <path class="cls-22" d="m310.28,247.55c-.91-.52-1.99-.81-3.26-.88s-2.38.1-3.33.51c-1.13.5-1.7,1.17-1.72,2.01-.03.5.16.98.57,1.43.16.18.37.29.63.34.27.02.5-.02.71-.11.24-.12.38-.28.43-.48.11-.19.34-.35.68-.46.58-.27,1.27-.38,2.07-.33s1.47.23,2.02.56c.26.11.42.26.48.43.12.17.3.32.53.43.26.08.51.1.75.04.27-.08.46-.21.57-.37.22-.29.33-.6.35-.93.08-.83-.41-1.56-1.48-2.19Z"/>
      </g>
    </g>
    <g id="arm_0_Layer0_0_FILL-11" data-name="arm 0 Layer0 0 FILL">
      <path class="cls-25" d="m16.64,261.01c.7.52,1.46.86,2.27,1.05-1.51,1.22-2.92,2.66-4.24,4.33-.66.84-1.56,1.31-2.72,1.42-1.08.12-2.07-.17-2.96-.87-.89-.7-1.43-1.61-1.6-2.72-.1-1.11.18-2.08.84-2.92,1.89-2.38,3.91-4.41,6.08-6.08-.15.66-.16,1.35-.04,2.08.28,1.53,1.07,2.77,2.36,3.72m6.66-9.07c-.55-.41-1.12-.7-1.71-.88,3.38-1.32,7.01-1.94,10.91-1.85,1.15.01,2.13.42,2.94,1.23.81.81,1.22,1.74,1.22,2.82.05,1.11-.32,2.06-1.1,2.85-.79.74-1.75,1.11-2.87,1.12-2.54-.03-4.94.34-7.2,1.1.26-.81.32-1.67.17-2.6-.29-1.58-1.08-2.84-2.37-3.79m-1.07,3.74c.03.19.03.38.02.57-.01.53-.19,1.02-.52,1.48-.45.62-1.05.98-1.8,1.1-.77.09-1.48-.09-2.13-.57-.48-.36-.83-.78-1.05-1.27-.03-.19-.06-.37-.09-.56-.08-.35-.11-.64-.1-.88.08-.44.25-.85.53-1.23.45-.62,1.08-.96,1.88-1.04.75-.11,1.44.07,2.09.54.4.3.69.63.87,1.01.14.27.24.55.31.85Z"/>
      <path class="cls-3" d="m14.32,255.22c.12-.78.42-1.51.92-2.18.91-1.24,2.17-1.97,3.78-2.19.89-.12,1.75-.05,2.57.21.58.18,1.15.48,1.71.88,1.29.95,2.08,2.21,2.37,3.79.14.93.08,1.8-.17,2.6-.17.57-.45,1.12-.82,1.63-.91,1.24-2.15,1.98-3.74,2.22-.72.08-1.39.04-2.02-.12-.81-.18-1.57-.53-2.27-1.05-1.29-.95-2.08-2.19-2.36-3.72-.12-.73-.11-1.43.04-2.08m7.92,1.04c.02-.19.01-.38-.02-.57-.07-.3-.17-.58-.31-.85-.18-.38-.47-.72-.87-1.01-.64-.47-1.34-.65-2.09-.54-.8.07-1.43.42-1.88,1.04-.28.38-.45.78-.53,1.23-.01.24.02.53.1.88.03.19.06.37.09.56.22.49.57.91,1.05,1.27.64.47,1.35.66,2.13.57.75-.11,1.35-.48,1.8-1.1.34-.46.51-.95.52-1.48Z"/>
    </g>
    <g id="arm_0_Layer0_0_FILL-12" data-name="arm 0 Layer0 0 FILL">
      <path class="cls-25" d="m67.43,250.29c-.36.79-.85,1.47-1.47,2.02,1.91.33,3.85.9,5.81,1.72.98.41,2,.39,3.06-.08,1-.42,1.72-1.16,2.16-2.2.44-1.04.46-2.1.07-3.16-.45-1.01-1.17-1.73-2.16-2.14-2.81-1.16-5.56-1.94-8.27-2.35.45.5.8,1.1,1.05,1.8.5,1.47.42,2.94-.25,4.39m-10.23-4.68c.29-.63.64-1.16,1.06-1.6-3.59.49-7.07,1.72-10.43,3.7-.99.57-1.65,1.41-1.97,2.51-.32,1.1-.22,2.12.31,3.05.5,1,1.28,1.65,2.35,1.95,1.05.26,2.07.12,3.05-.42,2.21-1.26,4.48-2.11,6.83-2.54-.62-.58-1.09-1.31-1.42-2.19-.52-1.52-.44-3.01.23-4.46m2.76,2.75c.07.18.15.35.26.51.27.45.66.8,1.18,1.03.7.32,1.4.35,2.11.08.72-.29,1.25-.8,1.58-1.53.25-.55.35-1.09.3-1.62-.07-.18-.13-.35-.2-.53-.1-.34-.22-.61-.34-.82-.28-.35-.63-.62-1.06-.81-.7-.32-1.41-.32-2.15,0-.71.26-1.23.76-1.56,1.49-.21.45-.3.89-.27,1.31.01.3.06.59.14.89Z"/>
      <path class="cls-3" d="m66.63,244.1c-.48-.62-1.1-1.11-1.86-1.46-1.39-.64-2.85-.66-4.37-.07-.84.33-1.55.81-2.14,1.44-.42.44-.78.98-1.06,1.6-.67,1.46-.74,2.94-.23,4.46.33.88.8,1.61,1.42,2.19.43.42.94.76,1.51,1.02,1.39.64,2.84.68,4.34.12.66-.28,1.23-.64,1.71-1.09.62-.55,1.11-1.23,1.47-2.02.67-1.46.75-2.92.25-4.39-.25-.7-.6-1.3-1.05-1.8m-6.41,4.76c-.11-.16-.2-.33-.26-.51-.08-.3-.13-.59-.14-.89-.03-.42.06-.85.27-1.31.33-.73.85-1.22,1.56-1.49.73-.32,1.45-.33,2.15,0,.42.19.78.47,1.06.81.13.2.24.48.34.82.07.18.13.35.2.53.05.54-.05,1.08-.3,1.62-.33.73-.86,1.24-1.58,1.53-.71.26-1.41.24-2.11-.08-.52-.24-.91-.58-1.18-1.03Z"/>
    </g>
    <g id="legBend_0_Layer0_0_FILL-7" data-name="legBend 0 Layer0 0 FILL">
      <path class="cls-3" d="m37.05,279.89l-.04-.03c-.55-.63-1.23-1-2.05-1.1-.41-.05-.8-.02-1.17.08-.33.11-.62.28-.89.52l-2.81,2.22-6.71,4.66,11.21,13.65,2.2-1.57.85-7.53-3.65-4.37,2.96-2.45c.56-.5.84-1.15.86-1.96.04-.78-.21-1.48-.76-2.12m-1.27,2.98c-.27.24-.59.35-.98.32-.39-.07-.72-.26-.99-.55-.27-.29-.42-.63-.43-1.01,0-.4.15-.72.41-.96.27-.24.62-.32,1.05-.25.41.05.75.22,1.02.52.27.29.41.64.4,1.04-.06.36-.22.65-.49.89Z"/>
      <path class="cls-25" d="m34.8,283.19c.38.03.71-.08.98-.32.27-.24.43-.54.49-.89,0-.4-.12-.75-.4-1.04-.27-.29-.61-.47-1.02-.52-.43-.07-.78,0-1.05.25-.27.24-.41.56-.41.96.01.38.15.72.43,1.01.27.29.6.48.99.55m4.17-14.49c-1.39-.8-2.82-1.03-4.29-.67-1.49.38-2.57,1.23-3.25,2.55-.66,1.3-.73,2.73-.21,4.27.48,1.39.6,2.68.36,3.88l-.03.03c-.25,1.02-.73,1.96-1.45,2.81l2.81-2.22c.27-.24.57-.41.89-.52.37-.11.76-.13,1.17-.08.81.1,1.5.47,2.05,1.1l.04.03c.55.63.8,1.34.76,2.12-.02.8-.3,1.45-.86,1.96l-2.96,2.45,3.65,4.37c1.52-1.49,2.74-3.03,3.67-4.61,2.22-4.1,2.42-8.75.6-13.95-.52-1.54-1.5-2.72-2.94-3.52Z"/>
    </g>
    <g id="leg_0_Layer0_0_FILL-5" data-name="leg 0 Layer0 0 FILL">
      <path class="cls-3" d="m86.71,260.16l-9.51,4.93-2.49,5.57-5.11-.43c-.98-.08-1.95.14-2.91.65-.96.52-1.62,1.18-1.98,1.98l-.02.05c-.36.8-.31,1.52.13,2.15.22.32.51.57.87.77.37.16.79.27,1.26.31l15.55,1.6,7.69-17.18-3.48-.39m-19.95,12.87c.17-.38.5-.71.98-.96.48-.26.96-.37,1.43-.33s.82.22,1.04.54c.22.32.25.67.08,1.05-.17.38-.5.71-.98.96s-.96.37-1.43.33-.82-.22-1.04-.54c-.22-.32-.25-.67-.08-1.05Z"/>
      <path class="cls-25" d="m67.74,272.06c-.48.26-.81.58-.98.96s-.15.73.08,1.05c.22.32.57.5,1.04.54s.95-.07,1.43-.33.81-.58.98-.96c.17-.38.15-.73-.08-1.05-.22-.32-.57-.5-1.04-.54s-.95.07-1.43.33m-6.94-9c-1.88-.16-3.76.32-5.63,1.42-1.86,1.07-3.18,2.47-3.95,4.2s-.74,3.21.04,4.54c.79,1.33,2.12,2.07,4,2.23l10.43.38c-.36-.2-.65-.45-.87-.77-.45-.64-.49-1.35-.13-2.15l.02-.05c.36-.8,1.02-1.46,1.98-1.98.96-.52,1.93-.73,2.91-.65l5.11.43,2.49-5.57.02-.05-16.42-1.97Z"/>
    </g>
    <g>
      <g id="body_0_Layer0_0_FILL-6" data-name="body 0 Layer0 0 FILL">
        <path class="cls-3" d="m30.19,256.14c1.09-1.45,1.5-3.06,1.23-4.84s-1.15-3.2-2.62-4.25c-1.44-1.06-3.06-1.45-4.83-1.18s-3.18,1.13-4.21,2.57c-1.06,1.44-1.45,3.06-1.18,4.83s1.13,3.2,2.58,4.26c1.41,1.07,3.01,1.46,4.79,1.19s3.2-1.13,4.26-2.58m33.66-5.16c1.06-1.44,1.45-3.06,1.18-4.83s-1.13-3.2-2.58-4.26-3.06-1.45-4.83-1.18-3.18,1.13-4.21,2.57c-1.09,1.45-1.5,3.06-1.23,4.84s1.15,3.2,2.62,4.25c1.41,1.07,3.01,1.46,4.79,1.19s3.2-1.13,4.26-2.58Z"/>
      </g>
      <g id="body_0_Layer0_1_FILL-4" data-name="body 0 Layer0 1 FILL">
        <path class="cls-12" d="m59.21,274.85c.73-1.43.95-3.23.69-5.42l-29.55,4.53c.4,2.16,1.16,3.82,2.28,4.96l26.59-4.08Z"/>
        <path class="cls-3" d="m52.57,265.5c.67-1.59.86-3.3.58-5.15-.4-2.64-1.67-4.75-3.81-6.35-2.17-1.59-4.57-2.18-7.2-1.78s-4.75,1.69-6.34,3.86c-1.59,2.17-2.18,4.57-1.78,7.2.28,1.85,1,3.42,2.14,4.73l-6.57,1.01.76,4.94,29.55-4.53-.76-4.94-6.57,1.01m-4.21-5.98l-.84,5.44c-.01.14-.08.26-.19.38-.12.12-.26.19-.42.22l-5.19.8c-.13.02-.27,0-.42-.09-.18-.07-.3-.17-.35-.3l-2.43-4.94c-.06-.16-.08-.32-.08-.49.05-.14.12-.29.24-.44l3.77-3.77c.08-.11.21-.18.37-.21.13-.02.29,0,.47.08l4.68,2.47c.12.12.22.24.31.36.06.16.08.32.08.49Z"/>
        <path class="cls-35" d="m47.53,264.96l.84-5.44c0-.17-.02-.33-.08-.49-.09-.12-.19-.24-.31-.36l-4.68-2.47c-.18-.07-.34-.1-.47-.08-.16.03-.29.09-.37.21l-3.77,3.77c-.11.15-.19.3-.24.44,0,.17.02.33.08.49l2.43,4.94c.05.13.17.23.35.3.15.08.29.11.42.09l5.19-.8c.16-.03.31-.1.42-.22.12-.12.18-.25.19-.38Z"/>
        <path class="cls-25" d="m60.27,250.41c.32-3.42-.69-5.04-3.02-4.85l-5.29.81-.04-.25c0-.17,0-.34-.03-.5-.38-2.47-1.71-4.44-3.99-5.91-2.33-1.36-4.95-1.82-7.85-1.38s-5.26,1.67-7.08,3.66c-1.74,2.09-2.42,4.37-2.04,6.84.03.16.07.33.13.49.02.1.04.18.09.24l-5.09.78c-2.43.24-3.02,2.1-1.77,5.58l5.3,13.1,6.57-1.01c-1.14-1.31-1.86-2.88-2.14-4.73-.4-2.64.19-5.04,1.78-7.2,1.59-2.17,3.7-3.45,6.34-3.86s5.04.19,7.2,1.78c2.13,1.6,3.4,3.71,3.81,6.35.28,1.85.09,3.56-.58,5.15l6.57-1.01,1.13-14.08Z"/>
      </g>
    </g>
    <g id="hand_0_Layer0_0_FILL-11" data-name="hand 0 Layer0 0 FILL">
      <path class="cls-6" d="m4.91,270c.09.01.11.06.05.15-.04.11-.1.23-.18.34l-2.73,2.19c-.08.06-.21.11-.41.13-.07-.03-.13-.09-.2-.16-1.14-1.48-1.61-3.15-1.4-5.03l-.03-.04c.22-1.97,1.09-3.6,2.61-4.9,1.57-1.3,3.31-1.86,5.24-1.7l.21.02c-.28.25-.52.53-.73.84-.78,1.06-1.09,2.24-.93,3.56-.39.1-.74.27-1.05.52-.56.53-.91,1.16-1.06,1.87.02.03.04.08.05.15-.1.72.08,1.41.55,2.05m11.51-3.38c.13.25.25.52.38.79.83,1.73.9,3.55.21,5.47-.73,1.86-1.98,3.23-3.76,4.1l-.08.06c-1.74.76-3.5.83-5.26.24-.11-.04-.2-.09-.27-.17-.02-.07,0-.15.06-.24l1.16-3.43c.01-.09.04-.16.09-.2.15-.03.27-.04.36-.03.69.22,1.38.18,2.08-.13l.08-.06c.68-.33,1.15-.86,1.42-1.59.21-.58.26-1.13.15-1.66,1.09-.39,1.99-1.05,2.71-1.98.26-.37.48-.76.66-1.17Z"/>
      <path class="cls-12" d="m10.7,259.73c1.38-.25,2.67.02,3.86.82,1.15.79,1.85,1.91,2.12,3.37.13.97.05,1.87-.26,2.71-.18.41-.4.8-.66,1.17-.72.93-1.62,1.59-2.71,1.98-.23.06-.46.12-.69.17-1.4.22-2.68-.07-3.85-.89-1.14-.84-1.84-1.95-2.09-3.33-.02-.11-.02-.21,0-.32-.16-1.32.15-2.5.93-3.56.21-.32.46-.6.73-.84.69-.69,1.57-1.11,2.63-1.27Z"/>
    </g>
    <g id="shadow_0_Layer0_0_FILL-6" data-name="shadow 0 Layer0 0 FILL">
      <path class="cls-18" d="m56.38,237.75c-4.27-1.98-9.16-2.54-14.67-1.7s-10.06,2.86-13.64,6.04c-3.47,3.23-4.92,6.67-4.36,10.33s2.98,6.47,7.24,8.45c4.38,2.03,9.32,2.62,14.84,1.77s10-2.88,13.47-6.11c3.58-3.18,5.09-6.6,4.53-10.25s-3.03-6.5-7.41-8.53Z"/>
    </g>
    <g>
      <g id="headFocus_0_Layer0_0_FILL-3" data-name="headFocus 0 Layer0 0 FILL">
        <path class="cls-6" d="m54.03,233.7c3.19-3.63,4.62-7.86,4.28-12.68s-2.33-8.83-6-12.01c-3.66-3.19-7.9-4.61-12.73-4.28s-8.83,2.33-12.01,6c-3.19,3.66-4.61,7.9-4.28,12.73s2.33,8.81,5.99,11.96c3.67,3.22,7.91,4.66,12.73,4.33s8.83-2.35,12.01-6.05m-3.3-12.15c.19,2.73-.61,5.12-2.41,7.18-1.83,2.1-4.1,3.24-6.83,3.43s-5.12-.63-7.19-2.46c-2.1-1.79-3.24-4.05-3.43-6.78s.63-5.12,2.46-7.19c1.79-2.1,4.05-3.24,6.78-3.43s5.14.63,7.24,2.45c2.06,1.79,3.19,4.06,3.38,6.78Z"/>
        <path class="cls-2" d="m48.32,228.73c1.79-2.06,2.6-4.46,2.41-7.18s-1.32-4.99-3.38-6.78c-2.1-1.83-4.51-2.64-7.24-2.45s-4.99,1.33-6.78,3.43c-1.83,2.06-2.65,4.46-2.46,7.19s1.33,4.99,3.43,6.78c2.06,1.83,4.46,2.65,7.19,2.46s5-1.33,6.83-3.43Z"/>
      </g>
      <g id="headFocus_0_Layer0_1_FILL-3" data-name="headFocus 0 Layer0 1 FILL">
        <path class="cls-25" d="m24.63,212.33c-.61.41-.98.99-1.13,1.73l-1.63,8.33c-.15.75-.02,1.45.4,2.13.48.6,1.09.98,1.83,1.13h.05c.75.15,1.44.03,2.08-.35.64-.48,1.03-1.09,1.18-1.84l1.58-8.33c.15-.75,0-1.44-.44-2.07-.41-.64-.97-1.04-1.69-1.19h-.05c-.75-.15-1.47,0-2.17.46Z"/>
      </g>
      <g id="headFocus_0_Layer0_2_FILL-3" data-name="headFocus 0 Layer0 2 FILL">
        <path class="cls-25" d="m56.97,211.74c-.25-.72-.7-1.24-1.36-1.56-.76-.35-1.5-.4-2.22-.15h-.05c-.72.25-1.24.72-1.56,1.41-.35.69-.4,1.4-.15,2.12l2.76,8.03c.25.72.72,1.27,1.42,1.66.69.29,1.39.3,2.11.05h.05c.68-.25,1.22-.71,1.61-1.37.32-.72.35-1.44.1-2.16l-2.71-8.03Z"/>
      </g>
      <g id="headFocus_0_Layer0_3_FILL-3" data-name="headFocus 0 Layer0 3 FILL">
        <path class="cls-12" d="m17.35,232.33c-1.45,1.67-2.11,3.6-1.95,5.8s1.06,4,2.73,5.42c1.71,1.49,3.64,2.15,5.8,2s4.03-1.08,5.52-2.79c1.42-1.64,2.06-3.55,1.91-5.75s-1.05-4.02-2.69-5.48c-1.71-1.49-3.66-2.15-5.85-2-2.16.15-3.98,1.08-5.47,2.79m2.92,8.87c-1-.87-1.54-1.96-1.63-3.29s.3-2.46,1.16-3.49c.87-1,1.95-1.54,3.25-1.63,1.36-.09,2.54.29,3.54,1.16,1,.9,1.54,2,1.63,3.29.09,1.33-.29,2.49-1.16,3.49-.86,1.03-1.98,1.59-3.34,1.69s-2.44-.31-3.44-1.21m39.46-14.22c-2.16.15-3.98,1.08-5.47,2.79-1.45,1.67-2.11,3.6-1.95,5.8s1.06,4,2.73,5.42c1.71,1.49,3.64,2.15,5.8,2s4.03-1.08,5.52-2.79c1.42-1.64,2.06-3.55,1.91-5.75s-1.05-4.02-2.69-5.48c-1.71-1.49-3.66-2.15-5.85-2m.89,12.87c-1.3.09-2.44-.31-3.44-1.21-1.03-.86-1.59-1.96-1.68-3.29s.31-2.46,1.21-3.49c.87-1,1.95-1.54,3.25-1.63s2.51.29,3.54,1.16c1,.9,1.54,2,1.63,3.29s-.29,2.49-1.16,3.49c-.9,1.03-2.01,1.59-3.34,1.69Z"/>
        <path class="cls-25" d="m18.64,237.91c.09,1.33.64,2.43,1.63,3.29,1,.9,2.15,1.3,3.44,1.21,1.36-.09,2.48-.66,3.34-1.69.87-1,1.25-2.16,1.16-3.49-.09-1.3-.63-2.4-1.63-3.29-1-.87-2.18-1.25-3.54-1.16s-2.38.63-3.25,1.63c-.86,1.03-1.25,2.19-1.16,3.49m38.54.73c1,.9,2.15,1.3,3.44,1.21s2.44-.65,3.34-1.69c.87-1,1.25-2.16,1.16-3.49s-.63-2.4-1.63-3.29c-1.03-.86-2.21-1.25-3.54-1.16s-2.38.63-3.25,1.63c-.9,1.03-1.3,2.2-1.21,3.49s.65,2.43,1.68,3.29Z"/>
      </g>
      <g id="headFocus_0_Layer0_4_FILL-3" data-name="headFocus 0 Layer0 4 FILL">
        <path class="cls-3" d="m25.1,250.84l7.98-.55c-.49-6.52-3.87-10.52-10.16-12.03l2.18,12.58m29.83-2.07c3.53-.71,5.42-2.75,5.69-6.11l.29-8.79c-5.8,3.51-8.6,8.53-8.38,15.07l2.39-.17Z"/>
        <path class="cls-12" d="m60.91,233.87l.58-16.98-41.75,2.9,3.19,18.47c6.29,1.5,9.67,5.51,10.16,12.03l19.45-1.35c-.22-6.53,2.57-11.56,8.38-15.07Z"/>
      </g>
      <g id="headFocus_0_Layer0_5_FILL-2" data-name="headFocus 0 Layer0 5 FILL">
        <path class="cls-25" d="m47.82,236.63c1.45-1.67,2.11-3.6,1.95-5.8-.15-2.23-1.07-4.05-2.74-5.47-1.67-1.45-3.6-2.11-5.8-1.95s-4.05,1.07-5.47,2.74c-1.46,1.64-2.11,3.57-1.95,5.8s1.06,4.02,2.74,5.47c1.64,1.46,3.57,2.11,5.8,1.95s4.02-1.06,5.47-2.74m-.69-5.62c.1,1.46-.34,2.75-1.34,3.85-.96,1.14-2.17,1.75-3.63,1.86s-2.81-.34-3.95-1.33c-1.1-.96-1.7-2.17-1.81-3.63s.32-2.81,1.28-3.95c.99-1.07,2.24-1.66,3.74-1.76,1.46-.1,2.74.31,3.84,1.24,1.14.99,1.76,2.23,1.86,3.73Z"/>
        <path class="cls-15" d="m45.79,234.87c.99-1.1,1.44-2.39,1.34-3.85s-.72-2.74-1.86-3.73c-1.1-.93-2.38-1.34-3.84-1.24-1.5.1-2.74.69-3.74,1.76-.96,1.14-1.38,2.45-1.28,3.95s.7,2.67,1.81,3.63c1.14.99,2.46,1.43,3.95,1.33s2.67-.72,3.63-1.86m-.91-3.7c.04.6-.14,1.11-.54,1.54-.34.46-.8.71-1.4.75s-1.13-.14-1.59-.54c-.43-.37-.66-.86-.7-1.45s.12-1.13.49-1.59c.4-.43.91-.66,1.5-.71.6-.04,1.09.12,1.49.5.46.4.71.9.76,1.5Z"/>
        <path class="cls-2" d="m44.34,232.72c.4-.43.59-.94.54-1.54-.04-.6-.29-1.1-.76-1.5-.39-.37-.89-.54-1.49-.5-.6.04-1.1.28-1.5.71-.37.46-.53.99-.49,1.59s.28,1.08.7,1.45c.46.4.99.58,1.59.54s1.07-.29,1.4-.75Z"/>
      </g>
      <g id="headFocus_0_Layer0_6_FILL-2" data-name="headFocus 0 Layer0 6 FILL">
        <path class="cls-25" d="m57.27,232.67c.56-.61.81-1.31.76-2.11s-.4-1.48-1.04-2.03c-.6-.53-1.31-.76-2.1-.71-.8.06-1.48.39-2.04.99-.52.64-.76,1.36-.7,2.15s.39,1.46.99,1.99c.64.52,1.36.76,2.15.7.8-.06,1.46-.39,1.99-.99Z"/>
      </g>
      <g id="headFocus_0_Layer0_7_FILL-2" data-name="headFocus 0 Layer0 7 FILL">
        <path class="cls-25" d="m30.63,234.52c.56-.61.81-1.31.76-2.11s-.4-1.48-1.04-2.03c-.6-.53-1.29-.76-2.05-.71-.8.06-1.48.39-2.04.99-.52.64-.76,1.36-.7,2.15s.39,1.46.99,1.99c.64.52,1.36.76,2.15.7.76-.05,1.41-.38,1.94-.99Z"/>
      </g>
      <g id="headFocus_0_Layer0_8_FILL-2" data-name="headFocus 0 Layer0 8 FILL">
        <path class="cls-12" d="m51.63,222.89c-.95-.67-2.07-.96-3.37-.87l-13.67.95c-1.3.09-2.39.53-3.27,1.33-.84.83-1.23,1.77-1.16,2.84s.59,1.93,1.53,2.6c.98.7,2.12,1.01,3.42.92l13.67-.95c1.3-.09,2.37-.55,3.21-1.38.88-.8,1.28-1.73,1.21-2.79-.07-1.06-.6-1.95-1.59-2.65Z"/>
      </g>
      <g id="headFocus_0_Layer0_9_FILL-2" data-name="headFocus 0 Layer0 9 FILL">
        <path class="cls-3" d="m43.7,243.69c-.15-.22-.38-.36-.68-.4l-5.9-1.24c-.31-.08-.6-.04-.89.11-.22.18-.35.44-.4.78-.08.34-.04.64.11.89.18.25.43.42.74.5l5.9,1.24c.3.05.58-.02.84-.21.22-.15.37-.39.45-.73.04-.34-.01-.65-.17-.94Z"/>
      </g>
    </g>
    <g id="hand_0_Layer0_0_FILL-12" data-name="hand 0 Layer0 0 FILL">
      <path class="cls-6" d="m81.56,252.04c-.08.06-.07.11.03.16.09.08.2.15.32.2l3.46.53c.1.02.24-.01.42-.09.04-.06.07-.14.09-.24.25-1.85-.19-3.54-1.3-5.05v-.05c-1.17-1.6-2.74-2.58-4.7-2.94-2.01-.34-3.8.04-5.39,1.15l-.17.13c.36.07.72.2,1.06.36,1.2.53,2.06,1.4,2.58,2.62.39-.11.78-.13,1.17-.07.75.18,1.37.55,1.86,1.09,0,.03,0,.08.03.16.45.57.63,1.26.55,2.06m-11.66,2.82c.02.28.04.57.07.87.15,1.91,1,3.52,2.55,4.84,1.56,1.25,3.33,1.81,5.31,1.67l.1.02c1.89-.22,3.44-1.03,4.67-2.42.08-.09.13-.18.14-.28-.02-.07-.08-.13-.18-.18l-2.72-2.39c-.06-.08-.12-.12-.18-.13-.14.05-.25.1-.33.15-.49.53-1.11.84-1.86.93l-.1-.02c-.75.05-1.42-.17-2.02-.66-.47-.4-.79-.85-.96-1.36-1.14.21-2.25.09-3.33-.36-.41-.19-.8-.42-1.16-.68Z"/>
      <path class="cls-12" d="m71.4,246.04c-1.32.47-2.3,1.35-2.93,2.64-.6,1.26-.65,2.58-.15,3.97.37.9.89,1.64,1.58,2.21.36.26.75.49,1.16.68,1.08.45,2.2.57,3.33.36.23-.06.46-.13.69-.2,1.32-.51,2.29-1.4,2.89-2.69.57-1.3.62-2.6.14-3.92-.04-.1-.09-.19-.16-.28-.52-1.22-1.38-2.09-2.58-2.62-.34-.17-.69-.29-1.06-.36-.94-.25-1.91-.18-2.92.21Z"/>
    </g>
    <g>
      <g id="green_body_squircle" data-name="green body squircle">
        <g id="Symbol_34_0_Layer0_0_FILL" data-name="Symbol 34 0 Layer0 0 FILL">
          <path class="cls-34" d="m195.55,149.88c-4.9-1.17-11.48-1.75-19.75-1.75s-14.88.58-19.75,1.75c-5.23,1.27-9.32,3.35-12.25,6.25-2.9,2.93-4.98,7.02-6.25,12.25-1.03,4.4-1.6,10.15-1.7,17.25v1c.1,7.1.67,12.85,1.7,17.25,1.27,5.27,3.35,9.35,6.25,12.25,2.93,2.93,7.02,5.02,12.25,6.25,4.87,1.17,11.45,1.75,19.75,1.75s14.85-.58,19.75-1.75c5.27-1.23,9.35-3.32,12.25-6.25,2.93-2.9,5.02-6.98,6.25-12.25,1.03-4.33,1.62-10,1.75-17v-1.5c-.13-7-.72-12.67-1.75-17-1.23-5.23-3.32-9.32-6.25-12.25s-6.98-4.98-12.25-6.25Z"/>
          <path class="cls-1" d="m195.55,145.88c-4.9-1.17-11.48-1.75-19.75-1.75s-14.88.58-19.75,1.75c-5.23,1.27-9.32,3.35-12.25,6.25-2.9,2.93-4.98,7.02-6.25,12.25-1.17,4.9-1.75,11.48-1.75,19.75,0,.5.02,1,.05,1.5.1-7.1.67-12.85,1.7-17.25,1.27-5.23,3.35-9.32,6.25-12.25,2.93-2.9,7.02-4.98,12.25-6.25,4.87-1.17,11.45-1.75,19.75-1.75s14.85.58,19.75,1.75c5.27,1.27,9.35,3.35,12.25,6.25s5.02,7.02,6.25,12.25c1.03,4.33,1.62,10,1.75,17v-1.25c0-8.27-.58-14.85-1.75-19.75-1.23-5.23-3.32-9.32-6.25-12.25-2.9-2.9-6.98-4.98-12.25-6.25Z"/>
        </g>
      </g>
      <g id="face_e" data-name="face e">
        <g id="Symbol_98_0_Layer0_0_MEMBER_0_FILL" data-name="Symbol 98 0 Layer0 0 MEMBER 0 FILL">
          <path class="cls-2" d="m160.82,173.4c-2.77,0-5.12.98-7.05,2.95-1.97,1.97-2.95,4.32-2.95,7.05s.98,5.12,2.95,7.05c1.93,1.97,4.28,2.95,7.05,2.95s5.12-.98,7.05-2.95c1.97-1.93,2.95-4.28,2.95-7.05s-.98-5.08-2.95-7.05c-1.93-1.97-4.28-2.95-7.05-2.95Z"/>
        </g>
        <g id="Symbol_98_0_Layer0_0_MEMBER_1_FILL" data-name="Symbol 98 0 Layer0 0 MEMBER 1 FILL">
          <path class="cls-37" d="m160.82,177.4c-1.63,0-3.03.6-4.2,1.8-1.2,1.17-1.8,2.57-1.8,4.2s.6,3.08,1.8,4.25c1.17,1.17,2.57,1.75,4.2,1.75s3.08-.58,4.25-1.75,1.75-2.58,1.75-4.25-.58-3.03-1.75-4.2c-1.17-1.2-2.58-1.8-4.25-1.8Z"/>
        </g>
        <g id="Symbol_98_0_Layer0_1_MEMBER_0_FILL" data-name="Symbol 98 0 Layer0 1 MEMBER 0 FILL">
          <path class="cls-2" d="m190.82,173.4c-2.77,0-5.12.98-7.05,2.95-1.97,1.97-2.95,4.32-2.95,7.05s.98,5.12,2.95,7.05c1.93,1.97,4.28,2.95,7.05,2.95s5.12-.98,7.05-2.95c1.97-1.93,2.95-4.28,2.95-7.05s-.98-5.08-2.95-7.05c-1.93-1.97-4.28-2.95-7.05-2.95Z"/>
        </g>
        <g id="Symbol_98_0_Layer0_1_MEMBER_1_FILL" data-name="Symbol 98 0 Layer0 1 MEMBER 1 FILL">
          <path class="cls-37" d="m190.82,177.4c-1.63,0-3.03.6-4.2,1.8-1.2,1.17-1.8,2.57-1.8,4.2s.6,3.08,1.8,4.25c1.17,1.17,2.57,1.75,4.2,1.75s3.08-.58,4.25-1.75c1.17-1.17,1.75-2.58,1.75-4.25s-.58-3.03-1.75-4.2c-1.17-1.2-2.58-1.8-4.25-1.8Z"/>
        </g>
        <g id="Symbol_98_0_Layer0_2_FILL" data-name="Symbol 98 0 Layer0 2 FILL">
          <path class="cls-37" d="m148.97,177.8c.23.47.63.77,1.2.9l19.3,5.2c.53.13,1.05.07,1.55-.2.47-.27.77-.68.9-1.25l1.05-3.85c.13-.57.07-1.07-.2-1.5-.3-.5-.72-.82-1.25-.95l-19.3-5.2c-.57-.13-1.07-.05-1.5.25-.5.23-.82.63-.95,1.2l-1.05,3.85c-.13.57-.05,1.08.25,1.55Z"/>
        </g>
        <g id="Symbol_98_0_Layer0_3_FILL" data-name="Symbol 98 0 Layer0 3 FILL">
          <path class="cls-37" d="m180.12,170.1c-.53.17-.93.5-1.2,1-.3.43-.38.93-.25,1.5l1.05,3.85c.13.57.45.98.95,1.25.47.27.97.32,1.5.15l19.3-5.15c.57-.13.98-.45,1.25-.95.27-.43.33-.93.2-1.5l-1.05-3.85c-.13-.57-.43-.98-.9-1.25s-.98-.33-1.55-.2c0,0-19.3,5.15-19.3,5.15Z"/>
        </g>
        <g id="Symbol_98_0_Layer0_4_FILL" data-name="Symbol 98 0 Layer0 4 FILL">
          <path class="cls-37" d="m185.77,197.55c-.47-.3-.98-.37-1.55-.2-.53.13-.95.42-1.25.85-.27.37-.65.72-1.15,1.05-1.23.77-2.68,1.15-4.35,1.15-.77,0-1.48-.07-2.15-.2-.57-.1-1.08,0-1.55.3-.47.23-.77.63-.9,1.2-.13.5-.03.98.3,1.45.27.4.7.67,1.3.8.9.2,1.9.3,3,.3,2.57,0,4.78-.6,6.65-1.8l-.05.05c1.13-.7,1.97-1.48,2.5-2.35.27-.47.33-.95.2-1.45-.17-.53-.5-.92-1-1.15Z"/>
        </g>
      </g>
    </g>
  </g>
</svg>