<?xml version="1.0" encoding="UTF-8"?>
<svg id="Layer_2" data-name="Layer 2" xmlns="http://www.w3.org/2000/svg" xmlns:xlink="http://www.w3.org/1999/xlink" viewBox="0 0 78.1 92.56">
  <defs>
    <style>
      .cls-1 {
        fill: #955435;
      }

      .cls-2 {
        fill: #fff;
      }

      .cls-3 {
        fill: #676ac6;
      }

      .cls-4 {
        fill: #d78b49;
      }

      .cls-5 {
        fill: #a8603f;
      }

      .cls-6 {
        fill: #4c4eaa;
      }

      .cls-7 {
        fill: url(#radial-gradient);
      }

      .cls-8 {
        fill: #454a51;
      }

      .cls-9 {
        fill: #bf7958;
      }

      .cls-10 {
        fill: #bfd4e5;
      }

      .cls-11 {
        fill: #e7f3fc;
      }

      .cls-12 {
        fill: #3c3e41;
      }

      .cls-13 {
        fill: #eea160;
      }
    </style>
    <radialGradient id="radial-gradient" cx="-642.13" cy="565.07" fx="-642.13" fy="565.07" r="13.59" gradientTransform="translate(949.96 455.21) scale(1.42 -.72)" gradientUnits="userSpaceOnUse">
      <stop offset="0" stop-color="#000" stop-opacity=".3"/>
      <stop offset="1" stop-color="#000" stop-opacity="0"/>
    </radialGradient>
  </defs>
  <g id="Layer_1-2" data-name="Layer 1">
    <g id="Layer_2-2" data-name="Layer 2">
      <g id="leg_0_Layer0_0_FILL" data-name="leg 0 Layer0 0 FILL">
        <path class="cls-6" d="m51.63,83.56l.15-5h-11.9l-.15,5h11.9Z"/>
        <path class="cls-2" d="m57.33,89.56l-5.75-6h-11.85l-.25,6h17.85Z"/>
        <path class="cls-13" d="m57.23,92.56l.1-3h-17.85l-.15,3h17.9Z"/>
        <path class="cls-3" d="m52.23,69.36c0-1.6-.63-2.97-1.9-4.1-1.23-1.13-2.75-1.7-4.55-1.7s-3.28.57-4.55,1.7c-1.27,1.13-1.9,2.5-1.9,4.1l.55,9.2h11.9l.45-9.2Z"/>
      </g>
      <g id="leg_0_Layer0_0_FILL-2" data-name="leg 0 Layer0 0 FILL">
        <path class="cls-6" d="m25.03,83.56l-.15-5h11.9l.15,5h-11.9Z"/>
        <path class="cls-2" d="m19.33,89.56l5.75-6h11.85l.25,6h-17.85Z"/>
        <path class="cls-13" d="m19.43,92.56l-.1-3h17.85l.15,3h-17.9Z"/>
        <path class="cls-3" d="m24.43,69.36c0-1.6.63-2.97,1.9-4.1,1.23-1.13,2.75-1.7,4.55-1.7s3.28.57,4.55,1.7c1.27,1.13,1.9,2.5,1.9,4.1l-.55,9.2h-11.9l-.45-9.2Z"/>
      </g>
      <g>
        <g id="arm_0_Layer0_0_FILL" data-name="arm 0 Layer0 0 FILL">
          <path class="cls-9" d="m69.77,43.58c-1.4,2.01-3.01,3.89-4.82,5.64-3.37-1.84-6.14-4.72-8.3-8.64.78-.72,1.5-1.48,2.16-2.27,1.55-1.79,2.77-3.85,3.67-6.16.58-1.5,1.61-2.59,3.1-3.26,1.51-.63,3.04-.67,4.59-.12,1.49.61,2.57,1.67,3.23,3.2.68,1.46.72,2.97.13,4.54-.73,1.81-1.56,3.5-2.5,5.08-.39.69-.81,1.35-1.26,1.99Z"/>
          <path class="cls-11" d="m52.84,55.19c-1.57-.45-2.77-1.4-3.59-2.83-.78-1.45-.94-2.94-.46-4.47.42-1.58,1.33-2.77,2.72-3.57,1.94-1.07,3.66-2.32,5.14-3.75,2.16,3.93,4.92,6.81,8.3,8.64-2.24,2.06-4.78,3.88-7.62,5.46-1.4.73-2.9.9-4.48.51Z"/>
        </g>
        <g id="arm_0_Layer0_1_FILL" data-name="arm 0 Layer0 1 FILL">
          <path class="cls-10" d="m67.55,48.98l-2.91,2.95-10.52-10.58,2.85-2.91,10.58,10.55Z"/>
        </g>
      </g>
      <g>
        <g id="arm_0_Layer0_0_FILL-2" data-name="arm 0 Layer0 0 FILL">
          <path class="cls-9" d="m9.38,46.08c1.4,2.01,3.01,3.89,4.82,5.64,3.37-1.84,6.14-4.72,8.3-8.64-.78-.72-1.5-1.48-2.16-2.27-1.55-1.79-2.77-3.85-3.67-6.16-.58-1.5-1.61-2.59-3.1-3.26-1.51-.63-3.04-.67-4.59-.12-1.49.61-2.57,1.67-3.23,3.2-.68,1.46-.72,2.97-.13,4.54.73,1.81,1.56,3.5,2.5,5.08.39.69.81,1.35,1.26,1.99Z"/>
          <path class="cls-11" d="m26.31,57.69c1.57-.45,2.77-1.4,3.59-2.83.78-1.45.94-2.94.46-4.47-.42-1.58-1.33-2.77-2.72-3.57-1.94-1.07-3.66-2.32-5.14-3.75-2.16,3.93-4.92,6.81-8.3,8.64,2.24,2.06,4.78,3.88,7.62,5.46,1.4.73,2.9.9,4.48.51Z"/>
        </g>
        <g id="arm_0_Layer0_1_FILL-2" data-name="arm 0 Layer0 1 FILL">
          <path class="cls-10" d="m11.61,51.48l2.91,2.95,10.52-10.58-2.85-2.91-10.58,10.55Z"/>
        </g>
      </g>
      <g>
        <g id="body_0_Layer0_0_FILL" data-name="body 0 Layer0 0 FILL">
          <path class="cls-10" d="m52.93,69.46v-4.95h-30.05v4.95h30.05Z"/>
          <path class="cls-3" d="m51.43,74.66c.93-1.27,1.43-3,1.5-5.2h-30.05c.07,2.2.57,3.93,1.5,5.2h27.05Z"/>
          <path class="cls-11" d="m56.13,50.86c.7-3.6-.17-5.33-2.6-5.2h-31.3c-2.43-.13-3.3,1.6-2.6,5.2l3.25,13.65h30.05l3.2-13.65Z"/>
        </g>
        <g id="body_0_Layer0_0_MEMBER_0_FILL" data-name="body 0 Layer0 0 MEMBER 0 FILL">
          <path class="cls-5" d="m45.93,38.21c-2.1-1.7-4.62-2.55-7.55-2.55s-5.45.85-7.55,2.55c-2.07,1.8-3.1,3.95-3.1,6.45,0,.17.02.33.05.5.1,2.27,1.12,4.2,3.05,5.8,2.1,1.8,4.62,2.7,7.55,2.7s5.45-.9,7.55-2.7c1.93-1.6,2.95-3.53,3.05-5.8.03-.17.05-.33.05-.5,0-2.5-1.03-4.65-3.1-6.45Z"/>
        </g>
        <g id="body_0_Layer0_0_MEMBER_1_FILL" data-name="body 0 Layer0 0 MEMBER 1 FILL">
          <path class="cls-4" d="m35.18,64.71l-14.1,1.25c.27,1.63.55,3.37.85,5.2l12.45-1.5c.33-1.53.6-3.18.8-4.95Z"/>
          <path class="cls-13" d="m35.18,64.71c.23-2.33.32-4.85.25-7.55-4.5-2.83-8.07-7.13-10.7-12.9l-4.55-.85c-1.37,2.47-1.07,9.98.9,22.55l14.1-1.25Z"/>
        </g>
        <g id="body_0_Layer0_0_MEMBER_2_FILL" data-name="body 0 Layer0 0 MEMBER 2 FILL">
          <path class="cls-4" d="m55.18,65.96l-14.1-1.25c.2,1.77.47,3.42.8,4.95l12.45,1.5c.3-1.83.58-3.57.85-5.2Z"/>
          <path class="cls-13" d="m40.83,57.16c-.07,2.7.02,5.22.25,7.55l14.1,1.25c1.97-12.57,2.27-20.08.9-22.55l-4.55.85c-2.63,5.77-6.2,10.07-10.7,12.9Z"/>
        </g>
        <g id="body_0_Layer0_0_MEMBER_3_FILL" data-name="body 0 Layer0 0 MEMBER 3 FILL">
          <path class="cls-10" d="m25.28,44.66l-2.05,3.6,13.1,7.6,2.05-3.65-13.1-7.55m26.2,0l-13.1,7.55,2.05,3.65,13.1-7.6-2.05-3.6Z"/>
          <path class="cls-11" d="m40.43,55.86l-2.05-3.65-2.05,3.65h4.1Z"/>
        </g>
      </g>
      <g id="hand_0_Layer0_0_FILL" data-name="hand 0 Layer0 0 FILL">
        <path class="cls-5" d="m64.21,21.38l-.52.8c-1.78,3.75-2.28,7.15-1.51,10.21-2.87-6.62-2.2-10.32,2.01-11.08l.02.07Z"/>
        <path class="cls-9" d="m73.61,37.49c-.48.76-1.14.9-1.97.42l-9.46-5.52c-.77-3.06-.27-6.47,1.51-10.21l.52-.8-.02-.07c.52-.97,1.1-1.98,1.75-3.03l.2-.35c.47-.81,1.39-.97,2.76-.48,2.05.65,3.94,1.48,5.65,2.51,4.89,2.86,4.73,8.45-.49,16.75l-.45.78Z"/>
      </g>
      <g id="hand_0_Layer0_0_FILL-2" data-name="hand 0 Layer0 0 FILL">
        <path class="cls-5" d="m13.89,22.38l.52.8c1.78,3.75,2.28,7.15,1.51,10.21,2.87-6.62,2.2-10.32-2.01-11.08l-.02.07Z"/>
        <path class="cls-9" d="m4.49,38.49c.48.76,1.14.9,1.97.42l9.46-5.52c.77-3.06.27-6.47-1.51-10.21l-.52-.8.02-.07c-.52-.97-1.1-1.98-1.75-3.03l-.2-.35c-.47-.81-1.39-.97-2.76-.48-2.05.65-3.94,1.48-5.65,2.51-4.89,2.86-4.73,8.45.49,16.75l.45.78Z"/>
      </g>
      <g id="shadow_0_Layer0_0_FILL" data-name="shadow 0 Layer0 0 FILL">
        <path class="cls-7" d="m52.38,41.94c-3.69-1.87-8.16-2.8-13.41-2.8s-9.77.93-13.55,2.8c-3.69,1.92-5.53,4.21-5.53,6.87s1.84,4.93,5.53,6.8c3.78,1.92,8.3,2.88,13.55,2.88s9.72-.96,13.41-2.88c3.78-1.87,5.67-4.14,5.67-6.8s-1.89-4.95-5.67-6.87Z"/>
      </g>
      <g>
        <g id="head_0_Layer0_0_FILL" data-name="head 0 Layer0 0 FILL">
          <path class="cls-8" d="m49.44,4.37L46.25.01c-9.76-.14-18.84.75-27.23,2.67-4.71.97-6.73,3.38-6.05,7.21l.31,1.68c.48-2.4,2.5-3.97,6.06-4.7,8.4-1.88,17.48-2.75,27.24-2.62l2.86.12m10.76,3.71l.07-1.26c.22-3.79-1.74-5.93-5.88-6.43l-4.3,4.04,4.62.15c2.9.35,4.72,1.51,5.49,3.5Z"/>
          <path class="cls-12" d="m54.71,4.58l-4.62-.15-.38.33-.28-.38-2.86-.12c-9.76-.14-18.84.74-27.24,2.62-3.56.73-5.58,2.3-6.06,4.7l3.5,19.21c.55,2.87,2.54,4.19,5.97,3.97l31.03-2.01c3.46-.22,5.26-1.79,5.41-4.71l1.01-19.96c-.76-1.99-2.59-3.16-5.49-3.5Z"/>
        </g>
        <g id="head_0_Layer0_1_FILL" data-name="head 0 Layer0 1 FILL">
          <path class="cls-9" d="m13.75,30.53c-1.46,1.66-2.12,3.61-1.98,5.84s1.05,4.07,2.71,5.54c1.7,1.53,3.63,2.22,5.8,2.08s4.04-1.08,5.53-2.81c1.43-1.66,2.07-3.61,1.93-5.84s-1.03-4.08-2.66-5.54c-1.7-1.53-3.65-2.22-5.85-2.08s-3.99,1.08-5.48,2.81m2.89,8.98c-.99-.87-1.53-1.99-1.62-3.35s.31-2.48,1.17-3.53c.87-.99,1.96-1.53,3.25-1.61,1.36-.09,2.54.3,3.53,1.17,1,.94,1.54,2.06,1.62,3.35.09,1.36-.3,2.54-1.17,3.53-.87,1.02-1.99,1.58-3.35,1.67s-2.44-.33-3.44-1.23m34.04-11.37c-1.46,1.66-2.12,3.61-1.98,5.84s1.05,4.07,2.71,5.54c1.7,1.53,3.63,2.22,5.8,2.08s4.04-1.08,5.53-2.81c1.43-1.66,2.07-3.61,1.93-5.84s-1.03-4.08-2.66-5.54c-1.7-1.53-3.65-2.22-5.85-2.08s-3.99,1.08-5.48,2.81m2.44,2.1c.87-.99,1.96-1.53,3.25-1.61s2.51.31,3.53,1.17c1,.94,1.54,2.06,1.62,3.35.09,1.36-.3,2.54-1.17,3.53-.9,1.03-2.02,1.58-3.35,1.67s-2.44-.33-3.44-1.23c-1.02-.87-1.58-1.99-1.67-3.35s.32-2.48,1.22-3.54Z"/>
          <path class="cls-5" d="m15.02,36.16c.09,1.36.63,2.48,1.62,3.35.99.9,2.14,1.31,3.44,1.23,1.36-.09,2.48-.64,3.35-1.67.87-.99,1.26-2.17,1.17-3.53-.08-1.3-.62-2.41-1.62-3.35-.99-.87-2.17-1.26-3.53-1.17s-2.38.62-3.25,1.61c-.87,1.06-1.26,2.24-1.17,3.53m41.35-7.54c-1.3.08-2.38.62-3.25,1.61-.9,1.06-1.31,2.24-1.22,3.54.09,1.36.64,2.48,1.67,3.35.99.9,2.14,1.31,3.44,1.23s2.45-.64,3.35-1.67c.87-.99,1.26-2.17,1.17-3.53s-.62-2.41-1.62-3.35c-1.02-.87-2.2-1.26-3.53-1.17Z"/>
        </g>
        <g id="head_0_Layer0_2_FILL" data-name="head 0 Layer0 2 FILL">
          <path class="cls-9" d="m51.27,47.39c3.56-.7,5.47-2.76,5.71-6.18l.96-26.12-41.76,2.7,5.25,31.53,29.84-1.93Z"/>
        </g>
        <g id="head_0_Layer0_3_FILL" data-name="head 0 Layer0 3 FILL">
          <path class="cls-2" d="m25.63,32.86c.08,1.16.51,2.14,1.29,2.92.86.85,1.88,1.23,3.08,1.15,1.13-.07,2.05-.58,2.76-1.53.71-.88,1.03-1.9.95-3.07s-.52-2.14-1.34-2.92c-.82-.82-1.8-1.19-2.93-1.11-1.2.08-2.17.57-2.91,1.49-.68.88-.98,1.9-.9,3.06m2.5-.01l-.02-.25c-.01-.7.18-1.31.58-1.84.43-.56.98-.87,1.64-.91.7-.05,1.3.18,1.8.69.46.47.74,1.05.81,1.75l.02.25c0,.67-.19,1.26-.59,1.79-.43.56-1,.87-1.69.91-.67.04-1.25-.19-1.75-.69-.46-.47-.74-1.04-.81-1.7m15.7,1.84c.89.84,1.92,1.23,3.08,1.15s2.07-.58,2.71-1.53c.78-.89,1.13-1.91,1.05-3.07-.08-1.16-.56-2.14-1.44-2.91-.75-.82-1.71-1.19-2.88-1.12s-2.13.57-2.91,1.49c-.68.88-.98,1.9-.9,3.06s.51,2.14,1.29,2.92m3.23-5.12c.5.47.79,1.05.86,1.75l.02.25c0,.67-.2,1.27-.64,1.79-.4.56-.93.86-1.59.9-.67.04-1.28-.18-1.85-.68-.43-.47-.69-1.04-.76-1.7l-.02-.35c0-.63.17-1.21.54-1.74.5-.57,1.08-.87,1.74-.91.67-.04,1.23.19,1.7.69Z"/>
          <path class="cls-12" d="m28.12,32.6l.02.25c.08.66.35,1.23.81,1.7.5.5,1.08.73,1.75.69.7-.05,1.26-.35,1.69-.91.4-.53.6-1.12.59-1.79l-.02-.25c-.08-.7-.35-1.28-.81-1.75-.5-.5-1.1-.73-1.8-.69-.67.04-1.21.35-1.64.91-.4.53-.59,1.14-.58,1.84m19.81-1.28c-.08-.7-.37-1.28-.86-1.75-.47-.5-1.03-.73-1.7-.69-.67.04-1.25.35-1.74.91-.37.52-.55,1.1-.54,1.74l.02.35c.08.66.33,1.23.76,1.7.57.5,1.18.73,1.85.68.67-.04,1.2-.34,1.59-.9.43-.53.65-1.13.64-1.79l-.02-.25Z"/>
        </g>
        <g id="head_0_Layer0_3_MEMBER_0_FILL" data-name="head 0 Layer0 3 MEMBER 0 FILL">
          <path class="cls-12" d="m34.95,29.1l.02-2.86-10.81.2.03,2.85,10.76-.2m6.1-3.25l.38,2.83,10.7-1.19-.33-2.83-10.75,1.2Z"/>
        </g>
        <g id="head_0_Layer0_3_MEMBER_1_FILL" data-name="head 0 Layer0 3 MEMBER 1 FILL">
          <path class="cls-12" d="m38.16,36.91c-2.36.15-4.33.76-5.89,1.83-1.47.96-2.27,2.05-2.39,3.26-.06.17-.04.35.04.55.08.16.19.31.33.43s.31.2.52.22c2.89.25,5.56-.26,8.02-1.52,2.57.94,5.28,1.09,8.15.47.2-.05.36-.14.48-.28s.21-.3.27-.47c.05-.2.06-.39.01-.55-.31-1.18-1.26-2.16-2.84-2.92-1.73-.86-3.75-1.21-6.08-1.06l-.3.02-.3.02Z"/>
        </g>
        <g id="head_0_Layer0_3_MEMBER_2_FILL" data-name="head 0 Layer0 3 MEMBER 2 FILL">
          <path class="cls-1" d="m40.95,36.63c.64-.51.93-1.08.89-1.71-.04-.6-.41-1.13-1.1-1.58-.69-.39-1.52-.55-2.49-.49s-1.72.33-2.35.8c-.63.54-.93,1.11-.89,1.71.04.63.41,1.16,1.1,1.58.7.46,1.51.65,2.44.59s1.76-.36,2.4-.91Z"/>
        </g>
        <g id="head_0_Layer0_4_FILL" data-name="head 0 Layer0 4 FILL">
          <path class="cls-12" d="m17.01,18.24h-.05c-.66.15-1.19.51-1.58,1.11-.4.53-.53,1.12-.39,1.78l2.93,15.84c.11.63.44,1.16,1,1.59.56.36,1.17.48,1.83.33h.05c.66-.11,1.17-.45,1.54-1s.49-1.18.38-1.88l-2.92-15.74c-.15-.69-.5-1.22-1.05-1.59-.52-.37-1.1-.51-1.73-.44m38.46-1.94c-.47.43-.74,1-.79,1.7l-.87,15.99c-.02.7.18,1.31.62,1.81.43.51.99.77,1.65.79h.05c.64.06,1.21-.13,1.72-.57.54-.5.82-1.07.84-1.71l.86-16.09c.06-.67-.15-1.24-.61-1.71-.47-.54-1.04-.83-1.71-.89h-.05c-.67.01-1.24.23-1.71.67Z"/>
        </g>
        <g id="head_0_Layer0_5_FILL" data-name="head 0 Layer0 5 FILL">
          <path class="cls-12" d="m52.41,19.36c4.17-1.64,6.2-3.36,6.08-5.15s-2.34-3.07-6.67-3.93c-4.26-.86-9.4-1.01-15.41-.46-5.94.59-11,1.7-15.17,3.34-4.13,1.67-6.14,3.39-6.03,5.15s2.32,3.11,6.62,3.93c4.33.89,9.47,1.04,15.41.46,6.01-.56,11.07-1.67,15.17-3.34Z"/>
        </g>
      </g>
    </g>
  </g>
</svg>