<?xml version="1.0" encoding="UTF-8"?>
<svg id="Layer_2" data-name="Layer 2" xmlns="http://www.w3.org/2000/svg" xmlns:xlink="http://www.w3.org/1999/xlink" viewBox="0 0 80 80">
  <defs>
    <style>
      .cls-1 {
        fill: url(#linear-gradient-2);
      }

      .cls-2 {
        fill: #fff;
      }

      .cls-3 {
        fill: #3e475e;
      }

      .cls-4 {
        fill: url(#linear-gradient);
      }
    </style>
    <linearGradient id="linear-gradient" x1="-961.61" y1="1576.62" x2="-961.61" y2="1496.62" gradientTransform="translate(1001.64 1576.62) scale(1 -1)" gradientUnits="userSpaceOnUse">
      <stop offset="0" stop-color="#78c691"/>
      <stop offset="1" stop-color="#59b15c"/>
    </linearGradient>
    <linearGradient id="linear-gradient-2" x1="-961.64" y1="1576.87" x2="-961.64" y2="1533.37" gradientTransform="translate(1001.64 1576.62) scale(1 -1)" gradientUnits="userSpaceOnUse">
      <stop offset="0" stop-color="#8dceaa"/>
      <stop offset="1" stop-color="#6dc281"/>
    </linearGradient>
  </defs>
  <g id="Layer_1-2" data-name="Layer 1">
    <g>
      <g id="green_body_squircle" data-name="green body squircle">
        <g id="Symbol_34_0_Layer0_0_FILL" data-name="Symbol 34 0 Layer0 0 FILL">
          <path class="cls-4" d="m59.75,5.75c-4.9-1.17-11.48-1.75-19.75-1.75s-14.88.58-19.75,1.75c-5.23,1.27-9.32,3.35-12.25,6.25-2.9,2.93-4.98,7.02-6.25,12.25C.72,28.65.15,34.4.05,41.5v1c.1,7.1.67,12.85,1.7,17.25,1.27,5.27,3.35,9.35,6.25,12.25,2.93,2.93,7.02,5.02,12.25,6.25,4.87,1.17,11.45,1.75,19.75,1.75s14.85-.58,19.75-1.75c5.27-1.23,9.35-3.32,12.25-6.25,2.93-2.9,5.02-6.98,6.25-12.25,1.03-4.33,1.62-10,1.75-17v-1.5c-.13-7-.72-12.67-1.75-17-1.23-5.23-3.32-9.32-6.25-12.25s-6.98-4.98-12.25-6.25Z"/>
          <path class="cls-1" d="m59.75,1.75c-4.9-1.17-11.48-1.75-19.75-1.75s-14.88.58-19.75,1.75c-5.23,1.27-9.32,3.35-12.25,6.25-2.9,2.93-4.98,7.02-6.25,12.25-1.17,4.9-1.75,11.48-1.75,19.75,0,.5.02,1,.05,1.5.1-7.1.67-12.85,1.7-17.25,1.27-5.23,3.35-9.32,6.25-12.25,2.93-2.9,7.02-4.98,12.25-6.25,4.87-1.17,11.45-1.75,19.75-1.75s14.85.58,19.75,1.75c5.27,1.27,9.35,3.35,12.25,6.25s5.02,7.02,6.25,12.25c1.03,4.33,1.62,10,1.75,17v-1.25c0-8.27-.58-14.85-1.75-19.75-1.23-5.23-3.32-9.32-6.25-12.25-2.9-2.9-6.98-4.98-12.25-6.25Z"/>
        </g>
      </g>
      <g id="face_e" data-name="face e">
        <g id="Symbol_98_0_Layer0_0_MEMBER_0_FILL" data-name="Symbol 98 0 Layer0 0 MEMBER 0 FILL">
          <path class="cls-2" d="m25.02,29.27c-2.77,0-5.12.98-7.05,2.95-1.97,1.97-2.95,4.32-2.95,7.05s.98,5.12,2.95,7.05c1.93,1.97,4.28,2.95,7.05,2.95s5.12-.98,7.05-2.95c1.97-1.93,2.95-4.28,2.95-7.05s-.98-5.08-2.95-7.05c-1.93-1.97-4.28-2.95-7.05-2.95Z"/>
        </g>
        <g id="Symbol_98_0_Layer0_0_MEMBER_1_FILL" data-name="Symbol 98 0 Layer0 0 MEMBER 1 FILL">
          <path class="cls-3" d="m25.02,33.27c-1.63,0-3.03.6-4.2,1.8-1.2,1.17-1.8,2.57-1.8,4.2s.6,3.08,1.8,4.25c1.17,1.17,2.57,1.75,4.2,1.75s3.08-.58,4.25-1.75c1.17-1.17,1.75-2.58,1.75-4.25s-.58-3.03-1.75-4.2c-1.17-1.2-2.58-1.8-4.25-1.8Z"/>
        </g>
        <g id="Symbol_98_0_Layer0_1_MEMBER_0_FILL" data-name="Symbol 98 0 Layer0 1 MEMBER 0 FILL">
          <path class="cls-2" d="m55.02,29.27c-2.77,0-5.12.98-7.05,2.95-1.97,1.97-2.95,4.32-2.95,7.05s.98,5.12,2.95,7.05c1.93,1.97,4.28,2.95,7.05,2.95s5.12-.98,7.05-2.95c1.97-1.93,2.95-4.28,2.95-7.05s-.98-5.08-2.95-7.05c-1.93-1.97-4.28-2.95-7.05-2.95Z"/>
        </g>
        <g id="Symbol_98_0_Layer0_1_MEMBER_1_FILL" data-name="Symbol 98 0 Layer0 1 MEMBER 1 FILL">
          <path class="cls-3" d="m55.02,33.27c-1.63,0-3.03.6-4.2,1.8-1.2,1.17-1.8,2.57-1.8,4.2s.6,3.08,1.8,4.25c1.17,1.17,2.57,1.75,4.2,1.75s3.08-.58,4.25-1.75c1.17-1.17,1.75-2.58,1.75-4.25s-.58-3.03-1.75-4.2c-1.17-1.2-2.58-1.8-4.25-1.8Z"/>
        </g>
        <g id="Symbol_98_0_Layer0_2_FILL" data-name="Symbol 98 0 Layer0 2 FILL">
          <path class="cls-3" d="m13.17,33.67c.23.47.63.77,1.2.9l19.3,5.2c.53.13,1.05.07,1.55-.2.47-.27.77-.68.9-1.25l1.05-3.85c.13-.57.07-1.07-.2-1.5-.3-.5-.72-.82-1.25-.95l-19.3-5.2c-.57-.13-1.07-.05-1.5.25-.5.23-.82.63-.95,1.2l-1.05,3.85c-.13.57-.05,1.08.25,1.55Z"/>
        </g>
        <g id="Symbol_98_0_Layer0_3_FILL" data-name="Symbol 98 0 Layer0 3 FILL">
          <path class="cls-3" d="m44.32,25.97c-.53.17-.93.5-1.2,1-.3.43-.38.93-.25,1.5l1.05,3.85c.13.57.45.98.95,1.25.47.27.97.32,1.5.15l19.3-5.15c.57-.13.98-.45,1.25-.95.27-.43.33-.93.2-1.5l-1.05-3.85c-.13-.57-.43-.98-.9-1.25-.47-.27-.98-.33-1.55-.2l-19.3,5.15Z"/>
        </g>
        <g id="Symbol_98_0_Layer0_4_FILL" data-name="Symbol 98 0 Layer0 4 FILL">
          <path class="cls-3" d="m49.97,53.42c-.47-.3-.98-.37-1.55-.2-.53.13-.95.42-1.25.85-.27.37-.65.72-1.15,1.05-1.23.77-2.68,1.15-4.35,1.15-.77,0-1.48-.07-2.15-.2-.57-.1-1.08,0-1.55.3-.47.23-.77.63-.9,1.2-.13.5-.03.98.3,1.45.27.4.7.67,1.3.8.9.2,1.9.3,3,.3,2.57,0,4.78-.6,6.65-1.8l-.05.05c1.13-.7,1.97-1.48,2.5-2.35.27-.47.33-.95.2-1.45-.17-.53-.5-.92-1-1.15Z"/>
        </g>
      </g>
    </g>
  </g>
</svg>