<?xml version="1.0" encoding="UTF-8"?>
<svg id="Layer_2" data-name="Layer 2" xmlns="http://www.w3.org/2000/svg" xmlns:xlink="http://www.w3.org/1999/xlink" viewBox="0 0 80 80">
  <defs>
    <style>
      .cls-1 {
        fill: url(#linear-gradient-2);
      }

      .cls-2 {
        fill: #3d465d;
      }

      .cls-3 {
        fill: url(#linear-gradient);
      }
    </style>
    <linearGradient id="linear-gradient" x1="-209.98" y1="719.89" x2="-209.98" y2="639.89" gradientTransform="translate(250 719.89) scale(1 -1)" gradientUnits="userSpaceOnUse">
      <stop offset="0" stop-color="#e26081"/>
      <stop offset="1" stop-color="#d44947"/>
    </linearGradient>
    <linearGradient id="linear-gradient-2" x1="-210" y1="720.14" x2="-210" y2="676.64" gradientTransform="translate(250 719.89) scale(1 -1)" gradientUnits="userSpaceOnUse">
      <stop offset="0" stop-color="#f37f98"/>
      <stop offset="1" stop-color="#d74854"/>
    </linearGradient>
  </defs>
  <g id="Layer_1-2" data-name="Layer 1">
    <g id="red_body_squircle" data-name="red body squircle">
      <g id="Symbol_26_0_Layer0_0_FILL" data-name="Symbol 26 0 Layer0 0 FILL">
        <path class="cls-3" d="m59.75,5.75c-4.9-1.17-11.48-1.75-19.75-1.75s-14.88.58-19.75,1.75c-5.23,1.27-9.32,3.35-12.25,6.25-2.9,2.93-4.98,7.02-6.25,12.25C.72,28.65.15,34.4.05,41.5v1c.1,7.1.67,12.85,1.7,17.25,1.27,5.27,3.35,9.35,6.25,12.25,2.93,2.93,7.02,5.02,12.25,6.25,4.87,1.17,11.45,1.75,19.75,1.75s14.85-.58,19.75-1.75c5.27-1.23,9.35-3.32,12.25-6.25,2.93-2.9,5.02-6.98,6.25-12.25,1.03-4.33,1.62-10,1.75-17v-1.5c-.13-7-.72-12.67-1.75-17-1.23-5.23-3.32-9.32-6.25-12.25s-6.98-4.98-12.25-6.25Z"/>
        <path class="cls-1" d="m40,4c8.27,0,14.85.58,19.75,1.75,5.27,1.27,9.35,3.35,12.25,6.25s5.02,7.02,6.25,12.25c1.03,4.33,1.62,10,1.75,17v-1.25c0-8.27-.58-14.85-1.75-19.75-1.23-5.23-3.32-9.32-6.25-12.25-2.9-2.9-6.98-4.98-12.25-6.25-4.9-1.17-11.48-1.75-19.75-1.75s-14.88.58-19.75,1.75c-5.23,1.27-9.32,3.35-12.25,6.25-2.9,2.93-4.98,7.02-6.25,12.25-1.17,4.9-1.75,11.48-1.75,19.75,0,.5.02,1,.05,1.5.1-7.1.67-12.85,1.7-17.25,1.27-5.23,3.35-9.32,6.25-12.25,2.93-2.9,7.02-4.98,12.25-6.25,4.87-1.17,11.45-1.75,19.75-1.75Z"/>
      </g>
    </g>
    <g id="face_j" data-name="face j">
      <g id="Symbol_108_0_Layer0_0_FILL" data-name="Symbol 108 0 Layer0 0 FILL">
        <path class="cls-2" d="m16.5,31.8c.43.27.93.33,1.5.2l15.45-4.15c.53-.13.95-.43,1.25-.9.23-.47.27-.98.1-1.55l-.25-.95c-.13-.57-.42-.97-.85-1.2-.5-.3-1.02-.38-1.55-.25l-15.45,4.15c-.57.13-.97.45-1.2.95-.3.43-.38.93-.25,1.5l.25.95c.17.57.5.98,1,1.25Z"/>
      </g>
      <g id="Symbol_108_0_Layer0_1_FILL" data-name="Symbol 108 0 Layer0 1 FILL">
        <path class="cls-2" d="m45.35,27c.27.47.67.77,1.2.9l15.45,4.15c.57.13,1.08.08,1.55-.15.47-.3.78-.73.95-1.3l.25-.95c.13-.57.07-1.05-.2-1.45-.27-.53-.68-.87-1.25-1l-15.45-4.15c-.53-.13-1.03-.05-1.5.25-.47.23-.77.63-.9,1.2l-.25.95c-.17.57-.12,1.08.15,1.55Z"/>
      </g>
      <g id="Symbol_108_0_Layer0_2_FILL" data-name="Symbol 108 0 Layer0 2 FILL">
        <path class="cls-2" d="m17,36.05c0,.57.2,1.05.6,1.45l4.55,4.55-4.55,4.6c-.4.37-.6.83-.6,1.4s.2,1.05.6,1.45c.37.37.83.55,1.4.55s1.05-.18,1.45-.55l4.55-4.6,4.6,4.6c.37.37.83.55,1.4.55s1.05-.18,1.45-.55c.37-.4.55-.88.55-1.45s-.18-1.03-.55-1.4l-4.6-4.6,4.6-4.55c.37-.4.55-.88.55-1.45s-.18-1.03-.55-1.4c-.4-.4-.88-.6-1.45-.6-.57,0-1.03.2-1.4.6l-4.6,4.55-4.55-4.55c-.4-.4-.88-.6-1.45-.6-.57,0-1.03.2-1.4.6-.4.37-.6.83-.6,1.4m30,0c0,.57.2,1.05.6,1.45l4.55,4.55-4.55,4.6c-.4.37-.6.83-.6,1.4s.2,1.05.6,1.45c.37.37.83.55,1.4.55s1.05-.18,1.45-.55l4.55-4.6,4.6,4.6c.37.37.83.55,1.4.55s1.05-.18,1.45-.55c.37-.4.55-.88.55-1.45s-.18-1.03-.55-1.4l-4.6-4.6,4.6-4.55c.37-.4.55-.88.55-1.45s-.18-1.03-.55-1.4c-.4-.4-.88-.6-1.45-.6-.57,0-1.03.2-1.4.6l-4.6,4.55-4.55-4.55c-.4-.4-.88-.6-1.45-.6-.57,0-1.03.2-1.4.6-.4.37-.6.83-.6,1.4Z"/>
      </g>
      <g id="Symbol_108_0_Layer0_3_FILL" data-name="Symbol 108 0 Layer0 3 FILL">
        <path class="cls-2" d="m45.85,59.9c.3.2.58.42.85.65.4.37.88.53,1.45.5.53-.03.98-.25,1.35-.65.37-.43.53-.92.5-1.45-.03-.57-.25-1.03-.65-1.4-.37-.3-.75-.6-1.15-.9-2.27-1.73-5-2.6-8.2-2.6s-6.05.87-8.35,2.6c0,.03-.02.05-.05.05-.43.33-.8.68-1.1,1.05-.37.4-.53.88-.5,1.45.03.53.27.98.7,1.35.4.37.88.53,1.45.5.53-.03.98-.25,1.35-.65.17-.2.35-.38.55-.55,1.63-1.2,3.62-1.8,5.95-1.8s4.2.6,5.8,1.8l.05.05Z"/>
      </g>
    </g>
  </g>
</svg>