<?xml version="1.0" encoding="UTF-8"?>
<svg id="Layer_2" data-name="Layer 2" xmlns="http://www.w3.org/2000/svg" xmlns:xlink="http://www.w3.org/1999/xlink" viewBox="0 0 80 80">
  <defs>
    <style>
      .cls-1 {
        fill: url(#linear-gradient-2);
      }

      .cls-2 {
        fill: #fff;
      }

      .cls-3 {
        fill: #3d465d;
      }

      .cls-4 {
        fill: url(#linear-gradient);
      }
    </style>
    <linearGradient id="linear-gradient" x1="-969.98" y1="549.89" x2="-969.98" y2="469.89" gradientTransform="translate(1010 549.89) scale(1 -1)" gradientUnits="userSpaceOnUse">
      <stop offset="0" stop-color="#ffcd59"/>
      <stop offset="1" stop-color="#f7a41b"/>
    </linearGradient>
    <linearGradient id="linear-gradient-2" x1="-970" y1="550.14" x2="-970" y2="506.64" gradientTransform="translate(1010 549.89) scale(1 -1)" gradientUnits="userSpaceOnUse">
      <stop offset="0" stop-color="#ffe383"/>
      <stop offset="1" stop-color="#ffb43c"/>
    </linearGradient>
  </defs>
  <g id="Layer_1-2" data-name="Layer 1">
    <g id="yellow_body_squircle" data-name="yellow body squircle">
      <g id="Symbol_38_0_Layer0_0_FILL" data-name="Symbol 38 0 Layer0 0 FILL">
        <path class="cls-4" d="m59.75,5.75c-4.9-1.17-11.48-1.75-19.75-1.75s-14.88.58-19.75,1.75c-5.23,1.27-9.32,3.35-12.25,6.25-2.9,2.93-4.98,7.02-6.25,12.25C.72,28.65.15,34.4.05,41.5v1c.1,7.1.67,12.85,1.7,17.25,1.27,5.27,3.35,9.35,6.25,12.25,2.93,2.93,7.02,5.02,12.25,6.25,4.87,1.17,11.45,1.75,19.75,1.75s14.85-.58,19.75-1.75c5.27-1.23,9.35-3.32,12.25-6.25,2.93-2.9,5.02-6.98,6.25-12.25,1.03-4.33,1.62-10,1.75-17v-1.5c-.13-7-.72-12.67-1.75-17-1.23-5.23-3.32-9.32-6.25-12.25s-6.98-4.98-12.25-6.25Z"/>
        <path class="cls-1" d="m40,4c8.27,0,14.85.58,19.75,1.75,5.27,1.27,9.35,3.35,12.25,6.25s5.02,7.02,6.25,12.25c1.03,4.33,1.62,10,1.75,17v-1.25c0-8.27-.58-14.85-1.75-19.75-1.23-5.23-3.32-9.32-6.25-12.25-2.9-2.9-6.98-4.98-12.25-6.25-4.9-1.17-11.48-1.75-19.75-1.75s-14.88.58-19.75,1.75c-5.23,1.27-9.32,3.35-12.25,6.25-2.9,2.93-4.98,7.02-6.25,12.25-1.17,4.9-1.75,11.48-1.75,19.75,0,.5.02,1,.05,1.5.1-7.1.67-12.85,1.7-17.25,1.27-5.23,3.35-9.32,6.25-12.25,2.93-2.9,7.02-4.98,12.25-6.25,4.87-1.17,11.45-1.75,19.75-1.75Z"/>
      </g>
    </g>
    <g id="face_i" data-name="face i">
      <g id="Symbol_99_0_Layer0_0_MEMBER_0_FILL" data-name="Symbol 99 0 Layer0 0 MEMBER 0 FILL">
        <path class="cls-2" d="m26,33.88c-2.77,0-5.12.98-7.05,2.95-1.97,1.97-2.95,4.32-2.95,7.05s.98,5.12,2.95,7.05c1.93,1.97,4.28,2.95,7.05,2.95s5.12-.98,7.05-2.95c1.97-1.93,2.95-4.28,2.95-7.05s-.98-5.08-2.95-7.05c-1.93-1.97-4.28-2.95-7.05-2.95Z"/>
      </g>
      <g id="Symbol_99_0_Layer0_0_MEMBER_1_FILL" data-name="Symbol 99 0 Layer0 0 MEMBER 1 FILL">
        <path class="cls-3" d="m26,37.88c-1.63,0-3.03.6-4.2,1.8-1.2,1.17-1.8,2.57-1.8,4.2s.6,3.08,1.8,4.25c1.17,1.17,2.57,1.75,4.2,1.75,1.67,0,3.08-.58,4.25-1.75,1.17-1.17,1.75-2.58,1.75-4.25s-.58-3.03-1.75-4.2c-1.17-1.2-2.58-1.8-4.25-1.8Z"/>
      </g>
      <g id="Symbol_99_0_Layer0_1_MEMBER_0_FILL" data-name="Symbol 99 0 Layer0 1 MEMBER 0 FILL">
        <path class="cls-2" d="m56,33.88c-2.77,0-5.12.98-7.05,2.95-1.97,1.97-2.95,4.32-2.95,7.05s.98,5.12,2.95,7.05c1.93,1.97,4.28,2.95,7.05,2.95s5.12-.98,7.05-2.95c1.97-1.93,2.95-4.28,2.95-7.05s-.98-5.08-2.95-7.05c-1.93-1.97-4.28-2.95-7.05-2.95Z"/>
      </g>
      <g id="Symbol_99_0_Layer0_1_MEMBER_1_FILL" data-name="Symbol 99 0 Layer0 1 MEMBER 1 FILL">
        <path class="cls-3" d="m56,37.88c-1.63,0-3.03.6-4.2,1.8-1.2,1.17-1.8,2.57-1.8,4.2s.6,3.08,1.8,4.25c1.17,1.17,2.57,1.75,4.2,1.75,1.67,0,3.08-.58,4.25-1.75,1.17-1.17,1.75-2.58,1.75-4.25s-.58-3.03-1.75-4.2c-1.17-1.2-2.58-1.8-4.25-1.8Z"/>
      </g>
      <g id="Symbol_99_0_Layer0_2_FILL" data-name="Symbol 99 0 Layer0 2 FILL">
        <path class="cls-3" d="m13.35,26.58c-.57.13-.97.43-1.2.9-.3.47-.38.98-.25,1.55l1.05,3.85c.13.57.45.97.95,1.2.43.3.93.38,1.5.25l19.3-5.2c.53-.13.95-.45,1.25-.95.27-.43.33-.93.2-1.5l-1.05-3.85c-.13-.57-.43-.98-.9-1.25-.5-.27-1.02-.33-1.55-.2l-19.3,5.2Z"/>
      </g>
      <g id="Symbol_99_0_Layer0_3_FILL" data-name="Symbol 99 0 Layer0 3 FILL">
        <path class="cls-3" d="m49.35,21.38c-.53-.13-1.05-.07-1.55.2-.47.27-.77.68-.9,1.25l-1.05,3.85c-.13.57-.07,1.07.2,1.5.3.5.72.82,1.25.95l19.3,5.2c.57.13,1.07.05,1.5-.25.5-.23.82-.63.95-1.2l1.05-3.85c.13-.57.05-1.08-.25-1.55-.23-.47-.63-.77-1.2-.9l-19.3-5.2Z"/>
      </g>
      <g id="Symbol_99_0_Layer0_4_FILL" data-name="Symbol 99 0 Layer0 4 FILL">
        <path class="cls-3" d="m50.35,59.38c-.37-.3-.75-.6-1.15-.9-2.27-1.73-5-2.6-8.2-2.6s-6.05.87-8.35,2.6c0,.03-.02.05-.05.05-.43.33-.8.68-1.1,1.05-.37.4-.53.88-.5,1.45.03.53.27.98.7,1.35.4.37.88.53,1.45.5.53-.03.98-.25,1.35-.65.17-.2.35-.38.55-.55,1.63-1.2,3.62-1.8,5.95-1.8s4.2.6,5.8,1.8l.05.05c.3.2.58.42.85.65.4.37.88.53,1.45.5.53-.03.98-.25,1.35-.65.37-.43.53-.92.5-1.45-.03-.57-.25-1.03-.65-1.4Z"/>
      </g>
    </g>
  </g>
</svg>