<?xml version="1.0" encoding="UTF-8"?>
<svg id="Layer_2" data-name="Layer 2" xmlns="http://www.w3.org/2000/svg" xmlns:xlink="http://www.w3.org/1999/xlink" viewBox="0 0 68.61 89.52">
  <defs>
    <style>
      .cls-1 {
        fill: #f69;
      }

      .cls-2 {
        fill: #fff;
      }

      .cls-3 {
        fill: #5393c5;
      }

      .cls-4 {
        fill: url(#radial-gradient);
      }

      .cls-5 {
        fill: #bfd4e5;
      }

      .cls-6 {
        fill: #477ca6;
      }

      .cls-7 {
        fill: #fc0;
      }

      .cls-8 {
        fill: #334e63;
      }
    </style>
    <radialGradient id="radial-gradient" cx="-637.25" cy="474.17" fx="-637.25" fy="474.17" r="13.59" gradientTransform="translate(997.73 514.9) scale(1.51 -1)" gradientUnits="userSpaceOnUse">
      <stop offset="0" stop-color="#000" stop-opacity=".3"/>
      <stop offset="1" stop-color="#000" stop-opacity="0"/>
    </radialGradient>
  </defs>
  <g id="Layer_1-2" data-name="Layer 1">
    <g id="Layer_2-2" data-name="Layer 2">
      <g id="leg_0_Layer0_0_FILL" data-name="leg 0 Layer0 0 FILL">
        <path class="cls-8" d="m34.89,86.64l-4-7.28-5.6-1.5,1.13-4.2c.22-.8.11-1.57-.31-2.31-.42-.73-1.04-1.21-1.84-1.43h-.05c-.8-.23-1.57-.12-2.31.3-.37.21-.68.47-.93.78-.22.32-.39.67-.49,1.06l-3.74,12.82,17.29,4.63.87-2.87m-11.09-15.03c.39.1.69.34.9.71.21.37.27.74.16,1.13s-.34.69-.71.9c-.37.21-.74.27-1.13.16-.39-.1-.69-.34-.9-.71s-.27-.74-.16-1.13.34-.69.71-.9c.37-.21.74-.27,1.13-.16Z"/>
        <path class="cls-6" d="m24.7,72.32c-.21-.37-.51-.6-.9-.71s-.76-.05-1.13.16c-.37.21-.6.51-.71.9s-.05.76.16,1.13.51.6.9.71c.39.1.76.05,1.13-.16.37-.21.6-.51.71-.9s.05-.76-.16-1.13m10.49-6.51c.41-1.55.16-3.03-.77-4.45-.9-1.41-2.22-2.35-3.96-2.82s-3.32-.3-4.83.46c-1.52.77-2.48,1.92-2.9,3.47l-1.77,8.53c.26-.31.57-.57.93-.78.73-.42,1.5-.53,2.31-.31h.05c.8.23,1.42.7,1.84,1.44.42.73.53,1.5.31,2.31l-1.13,4.2,5.6,1.5h.05s4.25-13.55,4.25-13.55Z"/>
      </g>
      <g id="arm_0_Layer0_0_FILL" data-name="arm 0 Layer0 0 FILL">
        <path class="cls-6" d="m16.11,40.67c.55.68,1.2,1.2,1.94,1.58-1.76.8-3.49,1.85-5.18,3.14-.85.65-1.84.88-2.98.69-1.07-.16-1.96-.68-2.65-1.58-.69-.9-.98-1.91-.87-3.04.18-1.1.7-1.97,1.54-2.62,2.42-1.83,4.89-3.29,7.41-4.37-.31.6-.49,1.27-.56,2-.11,1.55.34,2.95,1.35,4.19m8.71-7.12c-.44-.53-.91-.96-1.43-1.28,3.6-.44,7.28-.13,11.03.94,1.11.3,1.95.94,2.54,1.93.59.98.75,1.99.48,3.03-.23,1.09-.82,1.92-1.78,2.49-.95.52-1.97.64-3.06.37-2.45-.66-4.87-.9-7.25-.73.45-.71.72-1.54.82-2.48.11-1.6-.33-3.02-1.35-4.26m-1.97,3.35c-.02.19-.06.37-.13.56-.15.51-.44.94-.88,1.3-.59.48-1.27.69-2.02.61-.77-.1-1.41-.46-1.92-1.08-.38-.46-.61-.96-.7-1.49.02-.19.04-.38.06-.56.01-.35.05-.65.12-.88.18-.41.46-.76.82-1.05.59-.48,1.29-.66,2.08-.54.75.08,1.38.42,1.88,1.04.32.39.51.79.59,1.2.07.29.09.59.09.9Z"/>
        <path class="cls-8" d="m15.31,34.48c.31-.73.79-1.35,1.43-1.88,1.19-.97,2.59-1.36,4.2-1.17.89.1,1.71.39,2.44.85.52.32,1,.75,1.43,1.28,1.01,1.24,1.46,2.66,1.35,4.26-.09.94-.37,1.76-.82,2.48-.31.51-.71.97-1.2,1.37-1.19.97-2.58,1.37-4.17,1.21-.71-.1-1.35-.31-1.93-.62-.74-.38-1.39-.91-1.94-1.58-1.01-1.24-1.46-2.64-1.35-4.19.06-.74.25-1.41.56-2m7.41,2.99c.07-.18.11-.37.13-.56,0-.31-.02-.61-.09-.9-.08-.41-.27-.81-.59-1.2-.51-.62-1.13-.97-1.88-1.04-.79-.13-1.49.05-2.08.54-.36.3-.63.65-.82,1.05-.07.23-.11.52-.12.88-.02.19-.04.38-.06.56.09.53.32,1.03.7,1.49.51.62,1.14.98,1.92,1.08.75.08,1.42-.13,2.02-.61.44-.36.73-.79.88-1.3Z"/>
      </g>
      <g id="legBend_0_Layer0_0_FILL" data-name="legBend 0 Layer0 0 FILL">
        <path class="cls-8" d="m47.55,67.51l-.04-.02c-.67-.5-1.43-.69-2.27-.56-.42.06-.81.21-1.17.42-.31.21-.58.47-.81.8l-2.45,3.15-5.97,6.83,13.83,11.04,1.95-2.28-.5-8.14-4.49-3.52,2.56-3.43c.47-.69.65-1.45.52-2.3-.1-.83-.49-1.49-1.16-2m-.75,3.49c-.23.33-.54.54-.93.62-.41.04-.77-.06-1.1-.29-.33-.23-.54-.54-.62-.93-.06-.42.02-.8.25-1.13.23-.33.57-.52,1.02-.57.42-.06.8.02,1.13.25.33.23.53.55.59.98,0,.39-.1.75-.33,1.08Z"/>
        <path class="cls-6" d="m45.87,71.62c.39-.08.7-.29.93-.62.23-.33.34-.69.33-1.08-.06-.42-.26-.75-.59-.98-.33-.23-.71-.31-1.13-.25-.45.05-.79.24-1.02.57-.23.33-.31.71-.25,1.13.08.39.29.7.62.93.33.23.7.33,1.1.29m1.61-16.39c-1.56-.44-3.05-.26-4.47.54-1.44.82-2.38,2.03-2.84,3.62-.44,1.56-.25,3.07.56,4.54.74,1.31,1.1,2.63,1.06,3.96l-.02.04c-.06,1.14-.39,2.27-.96,3.37l2.45-3.15c.23-.33.5-.6.81-.8.36-.22.75-.36,1.17-.42.84-.13,1.6.06,2.27.56l.04.02c.67.5,1.06,1.17,1.16,2,.13.84-.04,1.61-.52,2.3l-2.56,3.43,4.49,3.52c1.27-2,2.23-3.97,2.89-5.9,1.51-4.94.87-9.87-1.91-14.79-.81-1.47-2.01-2.41-3.62-2.84Z"/>
      </g>
      <g>
        <g id="body_0_Layer0_0_FILL" data-name="body 0 Layer0 0 FILL">
          <path class="cls-8" d="m25.9,46.91c1.42-1.13,2.22-2.59,2.4-4.38s-.31-3.38-1.48-4.77c-1.13-1.39-2.6-2.17-4.39-2.35s-3.36.3-4.72,1.44c-1.39,1.13-2.17,2.6-2.35,4.39s.3,3.38,1.43,4.77c1.1,1.38,2.55,2.17,4.34,2.35s3.38-.3,4.77-1.43m33.88,3.41c1.39-1.13,2.17-2.6,2.35-4.39s-.3-3.38-1.43-4.77-2.6-2.17-4.39-2.35-3.36.3-4.72,1.44c-1.42,1.13-2.22,2.59-2.4,4.38s.31,3.38,1.48,4.77c1.1,1.38,2.55,2.17,4.34,2.35s3.38-.3,4.77-1.43Z"/>
        </g>
        <g id="body_0_Layer0_1_FILL" data-name="body 0 Layer0 1 FILL">
          <path class="cls-3" d="m49.33,72.28c1.06-1.2,1.73-2.89,2.02-5.07l-29.75-2.99c-.15,2.2.17,3.99.97,5.37l26.76,2.69Z"/>
          <path class="cls-8" d="m45.23,61.56c1.04-1.37,1.66-2.98,1.84-4.84.27-2.65-.43-5.02-2.1-7.1-1.7-2.08-3.88-3.25-6.53-3.52s-5.02.45-7.1,2.15c-2.08,1.7-3.25,3.88-3.52,6.53-.19,1.86.11,3.56.89,5.11l-6.62-.67-.5,4.97,29.75,2.99.5-4.97-6.62-.67m-2.58-6.84l-2.17,5.06c-.05.13-.14.24-.28.32-.14.09-.3.12-.46.1l-5.22-.53c-.13-.01-.26-.08-.38-.19-.16-.12-.24-.24-.26-.38l-1.12-5.39c-.02-.17,0-.33.05-.5.08-.13.19-.25.34-.37l4.59-2.7c.11-.09.25-.13.41-.11.13.01.28.08.43.19l3.91,3.56c.09.14.16.28.21.42.02.17,0,.33-.05.5Z"/>
          <path class="cls-1" d="m40.48,59.78l2.17-5.06c.05-.16.07-.33.05-.5-.05-.14-.12-.28-.21-.42l-3.91-3.56c-.16-.12-.3-.18-.43-.19-.17-.02-.3.02-.41.11l-4.59,2.7c-.15.12-.26.24-.34.37-.05.16-.07.33-.05.5l1.12,5.39c.02.14.11.26.26.38.12.11.25.18.38.19l5.22.53c.17.02.32-.02.46-.1.14-.09.24-.19.28-.32Z"/>
          <path class="cls-6" d="m56.46,48.87c1.16-3.23.59-5.05-1.71-5.45l-5.32-.54.03-.25c.05-.16.08-.33.1-.49.25-2.49-.55-4.73-2.39-6.72-1.92-1.9-4.34-3-7.26-3.29s-5.51.3-7.77,1.78c-2.2,1.59-3.43,3.62-3.68,6.11-.02.17-.02.33,0,.5-.01.1,0,.18.02.25l-5.12-.52c-2.41-.38-3.45,1.28-3.11,4.96l1.86,14.01,6.62.67c-.78-1.55-1.08-3.26-.89-5.11.27-2.65,1.44-4.83,3.52-6.53,2.08-1.7,4.45-2.42,7.1-2.15s4.83,1.44,6.53,3.52c1.67,2.08,2.37,4.44,2.1,7.1-.19,1.86-.8,3.47-1.84,4.84l6.62.67,4.61-13.36Z"/>
        </g>
      </g>
      <g id="arm_0_Layer0_0_FILL-2" data-name="arm 0 Layer0 0 FILL">
        <path class="cls-6" d="m47.86,61.16c-.3-.82-.43-1.64-.38-2.47-1.59,1.11-3.37,2.07-5.34,2.87-.99.4-1.69,1.14-2.11,2.22-.41,1-.41,2.03.02,3.08.42,1.05,1.15,1.82,2.17,2.29,1.04.4,2.05.4,3.04,0,2.81-1.16,5.32-2.54,7.53-4.16-.67-.04-1.34-.22-2.01-.54-1.39-.7-2.36-1.79-2.92-3.3m10.56-3.89c.24.65.36,1.27.37,1.89,2.21-2.88,3.81-6.2,4.8-9.97.3-1.11.18-2.16-.37-3.17-.55-1.01-1.34-1.66-2.37-1.95-1.06-.36-2.07-.27-3.04.27-.93.56-1.56,1.37-1.87,2.45-.68,2.45-1.7,4.65-3.05,6.61.85-.03,1.69.16,2.55.55,1.44.71,2.43,1.82,2.98,3.32m-3.89,0c-.17-.08-.35-.14-.54-.17-.51-.13-1.03-.1-1.56.1-.72.26-1.24.74-1.55,1.42-.3.72-.32,1.45-.04,2.2.21.56.52,1.02.93,1.36.17.08.34.16.51.24.31.17.58.28.82.34.44.05.89,0,1.32-.17.72-.26,1.23-.77,1.52-1.52.32-.68.34-1.4.06-2.15-.17-.47-.42-.84-.73-1.12-.22-.2-.46-.38-.73-.53Z"/>
        <path class="cls-8" d="m52.79,64.99c.78.1,1.57,0,2.35-.28,1.44-.53,2.49-1.54,3.15-3.02.37-.82.53-1.67.51-2.53-.01-.61-.14-1.24-.37-1.89-.55-1.5-1.55-2.61-2.98-3.32-.85-.39-1.7-.58-2.55-.55-.6,0-1.2.12-1.79.34-1.44.53-2.49,1.52-3.17,2.98-.27.67-.42,1.32-.45,1.98-.05.83.08,1.65.38,2.47.55,1.5,1.53,2.6,2.92,3.3.67.32,1.34.5,2.01.54m1.2-7.9c.19.04.37.09.54.17.27.15.51.33.73.53.31.28.56.65.73,1.12.28.75.26,1.47-.06,2.15-.29.75-.8,1.25-1.52,1.52-.44.16-.88.22-1.32.17-.23-.06-.51-.17-.82-.34-.17-.08-.34-.16-.51-.24-.41-.35-.72-.8-.93-1.36-.28-.75-.26-1.48.04-2.2.32-.68.83-1.16,1.55-1.42.53-.2,1.05-.23,1.56-.1Z"/>
      </g>
      <g id="shadow_0_Layer0_0_FILL" data-name="shadow 0 Layer0 0 FILL">
        <path class="cls-4" d="m51.39,31.18c-3.92-2.6-8.67-3.9-14.24-3.9s-10.38,1.3-14.4,3.9c-3.92,2.67-5.88,5.85-5.88,9.55s1.96,6.85,5.88,9.45c4.02,2.67,8.82,4,14.4,4s10.33-1.33,14.24-4c4.02-2.6,6.03-5.75,6.03-9.45s-2.01-6.88-6.03-9.55Z"/>
      </g>
      <g>
        <g id="headFocus_0_Layer0_0_FILL" data-name="headFocus 0 Layer0 0 FILL">
          <path class="cls-5" d="m54.64,30.99c3.73-3.07,5.82-7.01,6.26-11.83s-.89-9.09-4-12.82c-3.11-3.73-7.06-5.82-11.88-6.26s-9.09.89-12.82,4c-3.73,3.11-5.82,7.06-6.26,11.88s.89,9.07,4,12.77c3.1,3.77,7.06,5.87,11.87,6.31s9.09-.91,12.82-4.05m-1.31-12.52c-.25,2.72-1.43,4.96-3.53,6.71-2.14,1.78-4.57,2.54-7.29,2.29s-4.96-1.44-6.7-3.58c-1.78-2.1-2.55-4.52-2.3-7.24s1.44-4.96,3.58-6.7c2.1-1.78,4.52-2.55,7.24-2.3s4.97,1.44,6.75,3.58c1.75,2.1,2.5,4.51,2.25,7.24Z"/>
          <path class="cls-2" d="m49.8,25.17c2.1-1.75,3.28-3.98,3.53-6.71s-.5-5.13-2.25-7.24c-1.78-2.14-4.03-3.33-6.75-3.58s-5.14.52-7.24,2.3c-2.14,1.75-3.33,3.98-3.58,6.7s.52,5.14,2.3,7.24c1.75,2.14,3.98,3.33,6.7,3.58s5.15-.51,7.29-2.29Z"/>
        </g>
        <g id="headFocus_0_Layer0_1_FILL" data-name="headFocus 0 Layer0 1 FILL">
          <path class="cls-6" d="m29.04,5.19c-.66.31-1.13.82-1.4,1.53l-2.94,7.96c-.27.71-.25,1.43.05,2.16.37.67.92,1.14,1.63,1.4h.05c.71.27,1.42.27,2.11,0,.7-.37,1.19-.91,1.45-1.62l2.89-7.97c.27-.71.23-1.42-.11-2.12-.3-.7-.8-1.18-1.47-1.44h-.05c-.71-.27-1.45-.24-2.22.09Z"/>
        </g>
        <g id="headFocus_0_Layer0_2_FILL" data-name="headFocus 0 Layer0 2 FILL">
          <path class="cls-6" d="m61.06,9.79c-.13-.75-.5-1.33-1.09-1.76-.69-.47-1.41-.63-2.16-.5h-.05c-.75.13-1.34.51-1.76,1.14-.46.63-.62,1.32-.49,2.06l1.44,8.37c.13.75.51,1.37,1.13,1.86.63.39,1.32.52,2.07.39h.05c.72-.13,1.32-.49,1.81-1.08.43-.66.58-1.37.45-2.12l-1.39-8.36Z"/>
        </g>
        <g id="headFocus_0_Layer0_3_FILL" data-name="headFocus 0 Layer0 3 FILL">
          <path class="cls-3" d="m18.65,23.77c-1.7,1.42-2.66,3.22-2.86,5.41s.41,4.12,1.83,5.79c1.45,1.74,3.25,2.71,5.41,2.91s4.16-.42,5.9-1.87c1.67-1.39,2.6-3.18,2.8-5.37s-.39-4.14-1.77-5.84c-1.45-1.74-3.27-2.71-5.46-2.91-2.16-.2-4.11.43-5.85,1.87m1.46,9.22c-.84-1.01-1.21-2.19-1.08-3.51s.69-2.38,1.7-3.26c1.01-.84,2.17-1.21,3.46-1.09,1.36.12,2.46.69,3.31,1.71.84,1.05,1.2,2.22,1.08,3.51-.12,1.33-.69,2.41-1.7,3.26-1.02.88-2.21,1.25-3.57,1.13s-2.36-.7-3.2-1.75m41.23-7.72c-2.16-.2-4.11.43-5.85,1.87-1.7,1.42-2.66,3.22-2.86,5.41s.41,4.12,1.83,5.79c1.45,1.74,3.25,2.71,5.41,2.91s4.16-.42,5.9-1.87c1.67-1.39,2.6-3.18,2.8-5.37s-.39-4.14-1.77-5.84c-1.45-1.74-3.27-2.71-5.46-2.91m-1.18,12.85c-1.29-.12-2.36-.7-3.2-1.75-.88-1.02-1.26-2.19-1.13-3.52s.7-2.38,1.75-3.25c1.01-.84,2.17-1.21,3.46-1.09s2.43.69,3.31,1.71c.84,1.05,1.2,2.22,1.08,3.51s-.69,2.41-1.7,3.26c-1.05.87-2.24,1.25-3.57,1.13Z"/>
          <path class="cls-6" d="m19.03,29.48c-.12,1.33.24,2.5,1.08,3.51.84,1.05,1.91,1.63,3.2,1.75,1.36.12,2.55-.25,3.57-1.13,1.01-.84,1.58-1.93,1.7-3.26.12-1.29-.24-2.47-1.08-3.51-.84-1.01-1.95-1.58-3.31-1.71s-2.45.24-3.46,1.09c-1.02.88-1.59,1.96-1.7,3.26m37.93,6.89c.84,1.05,1.91,1.63,3.2,1.75s2.52-.25,3.57-1.13c1.01-.84,1.58-1.93,1.7-3.26s-.24-2.47-1.08-3.51c-.88-1.02-1.98-1.59-3.31-1.71s-2.45.24-3.46,1.09c-1.05.87-1.64,1.96-1.75,3.25s.26,2.5,1.13,3.52Z"/>
        </g>
        <g id="headFocus_0_Layer0_4_FILL" data-name="headFocus 0 Layer0 4 FILL">
          <path class="cls-8" d="m23.34,43.28l7.97.73c.56-6.51-2.14-11.01-8.1-13.5l.13,12.77m29.77,2.73c3.59-.14,5.79-1.85,6.6-5.12l1.7-8.63c-6.29,2.54-9.85,7.05-10.68,13.53l2.39.22Z"/>
          <path class="cls-3" d="m61.4,32.26l3.29-16.67-41.68-3.82.19,18.75c5.96,2.49,8.66,6.99,8.1,13.5l19.42,1.78c.83-6.48,4.39-11,10.68-13.53Z"/>
        </g>
        <g id="headFocus_0_Layer0_5_FILL" data-name="headFocus 0 Layer0 5 FILL">
          <path class="cls-6" d="m48.04,32.89c1.7-1.42,2.66-3.22,2.86-5.41.2-2.22-.4-4.17-1.82-5.84-1.42-1.7-3.22-2.66-5.41-2.86s-4.17.4-5.84,1.82c-1.7,1.38-2.65,3.19-2.86,5.41s.41,4.14,1.82,5.84c1.38,1.7,3.19,2.65,5.41,2.86s4.14-.41,5.84-1.82m.22-5.65c-.13,1.46-.78,2.66-1.94,3.59-1.13.97-2.42,1.38-3.88,1.25s-2.72-.79-3.69-1.94c-.93-1.12-1.33-2.42-1.2-3.88s.77-2.72,1.9-3.69c1.15-.9,2.48-1.28,3.97-1.14,1.46.13,2.66.75,3.6,1.84.96,1.16,1.38,2.49,1.24,3.98Z"/>
          <path class="cls-7" d="m46.32,30.83c1.16-.93,1.8-2.13,1.94-3.59s-.28-2.82-1.24-3.98c-.94-1.09-2.14-1.7-3.6-1.84-1.49-.14-2.82.24-3.97,1.14-1.13.97-1.76,2.2-1.9,3.69s.27,2.75,1.2,3.88c.96,1.16,2.19,1.81,3.69,1.94s2.75-.28,3.88-1.25m-.3-3.79c-.05.6-.32,1.08-.78,1.43-.4.4-.91.57-1.5.51s-1.09-.32-1.48-.79c-.36-.43-.52-.95-.46-1.55s.3-1.09.74-1.49c.47-.36,1-.51,1.6-.46.6.05,1.06.3,1.39.73.39.47.56,1.01.51,1.6Z"/>
          <path class="cls-2" d="m45.23,28.47c.47-.36.73-.84.78-1.43.05-.6-.11-1.13-.51-1.6-.33-.43-.79-.68-1.39-.73-.6-.05-1.13.1-1.6.46-.44.39-.68.89-.74,1.49s.1,1.11.46,1.55c.39.47.89.73,1.48.79s1.1-.12,1.5-.51Z"/>
        </g>
        <g id="headFocus_0_Layer0_6_FILL" data-name="headFocus 0 Layer0 6 FILL">
          <path class="cls-6" d="m58,30.49c.65-.51,1.01-1.16,1.08-1.96s-.16-1.52-.7-2.17c-.51-.62-1.17-.96-1.96-1.03-.8-.07-1.52.15-2.17.65-.62.55-.97,1.22-1.04,2.01s.15,1.5.66,2.12c.55.62,1.22.97,2.01,1.04.8.07,1.5-.15,2.12-.66Z"/>
        </g>
        <g id="headFocus_0_Layer0_7_FILL" data-name="headFocus 0 Layer0 7 FILL">
          <path class="cls-6" d="m31.41,28.06c.65-.51,1.01-1.16,1.08-1.96s-.16-1.52-.7-2.17c-.51-.62-1.15-.96-1.91-1.03-.8-.07-1.52.15-2.17.65-.62.55-.97,1.22-1.04,2.01s.15,1.5.66,2.12c.55.62,1.22.97,2.01,1.04.76.07,1.45-.15,2.07-.66Z"/>
        </g>
        <g id="headFocus_0_Layer0_8_FILL" data-name="headFocus 0 Layer0 8 FILL">
          <path class="cls-3" d="m54,19.94c-.83-.81-1.89-1.28-3.19-1.4l-13.64-1.25c-1.29-.12-2.44.14-3.44.79-.97.68-1.5,1.55-1.6,2.62s.27,2,1.1,2.81c.86.85,1.94,1.33,3.23,1.45l13.64,1.25c1.29.12,2.42-.16,3.39-.84,1-.65,1.54-1.5,1.64-2.56.1-1.06-.28-2.02-1.14-2.87Z"/>
        </g>
        <g id="headFocus_0_Layer0_9_FILL" data-name="headFocus 0 Layer0 9 FILL">
          <path class="cls-8" d="m42.84,39.2c-.11-.24-.31-.41-.61-.51l-5.63-2.17c-.29-.13-.59-.14-.9-.03-.25.14-.42.38-.52.71-.13.32-.14.62-.03.9.14.28.36.48.65.61l5.63,2.17c.29.09.58.07.86-.07.24-.11.43-.33.56-.65.1-.33.09-.64-.01-.96Z"/>
        </g>
      </g>
      <g id="hand_0_Layer0_0_FILL" data-name="hand 0 Layer0 0 FILL">
        <path class="cls-5" d="m32.16,67.17c.05-.08.02-.13-.09-.13-.11-.04-.24-.06-.38-.05l-3.38.91c-.1.03-.21.11-.35.25-.01.07,0,.16.02.25.52,1.79,1.59,3.16,3.22,4.11v.05c1.73.99,3.56,1.26,5.51.81,1.97-.49,3.46-1.57,4.47-3.22l.11-.18c-.36.08-.73.11-1.11.09-1.31,0-2.45-.45-3.42-1.36-.31.26-.66.44-1.05.54-.76.13-1.47.05-2.14-.26,0-.03-.04-.08-.09-.13-.64-.34-1.09-.9-1.33-1.66m9.54-7.27c-.13-.25-.27-.51-.41-.77-.9-1.69-2.33-2.83-4.28-3.41-1.93-.52-3.78-.32-5.53.6l-.1.03c-1.64.96-2.74,2.32-3.3,4.09-.04.11-.04.22-.02.32.05.06.13.09.23.09l3.45,1.09c.08.05.15.06.22.04.11-.1.19-.19.24-.27.23-.68.67-1.22,1.33-1.6l.1-.03c.67-.35,1.37-.42,2.12-.21.59.18,1.06.46,1.42.86.96-.65,2.02-.99,3.2-1.01.46.01.9.06,1.34.16Z"/>
        <path class="cls-3" d="m43.87,68.59c1.02-.96,1.56-2.16,1.63-3.59.04-1.39-.44-2.62-1.46-3.7-.7-.68-1.48-1.14-2.34-1.39-.43-.1-.88-.15-1.34-.16-1.17.03-2.24.36-3.2,1.01-.19.15-.37.3-.55.46-1.01,1-1.53,2.2-1.56,3.63,0,1.41.48,2.63,1.44,3.65.08.08.16.14.26.19.97.91,2.11,1.36,3.42,1.36.38.02.75-.01,1.11-.09.96-.15,1.83-.6,2.58-1.37Z"/>
      </g>
      <g id="hand_0_Layer0_0_FILL-2" data-name="hand 0 Layer0 0 FILL">
        <path class="cls-5" d="m5.45,51.36c.09-.01.12.03.09.13,0,.12-.03.24-.08.37l-2.06,2.83c-.06.08-.18.16-.36.24-.07-.01-.15-.05-.23-.11-1.49-1.13-2.38-2.62-2.67-4.48l-.04-.03c-.31-1.96.1-3.76,1.22-5.42,1.17-1.66,2.71-2.67,4.61-3.02l.21-.03c-.2.31-.37.65-.49,1.01-.47,1.22-.46,2.45.04,3.68-.35.2-.64.46-.88.78-.4.66-.57,1.35-.53,2.09.03.02.06.06.09.13.09.73.45,1.34,1.08,1.83m10.21-6.3c.19.21.38.43.57.66,1.25,1.45,1.8,3.19,1.64,5.22-.21,1.99-1.06,3.64-2.55,4.95l-.06.08c-1.48,1.19-3.15,1.72-5.01,1.61-.12,0-.22-.04-.3-.1-.03-.07-.04-.15,0-.25l.22-3.61c-.01-.09,0-.17.04-.22.13-.07.25-.11.34-.12.72.03,1.38-.19,1.97-.67l.06-.08c.57-.49.88-1.13.95-1.9.05-.61-.05-1.16-.29-1.64.95-.66,1.65-1.54,2.09-2.62.15-.43.26-.86.33-1.3Z"/>
        <path class="cls-3" d="m8.34,39.92c1.26-.6,2.58-.68,3.94-.23,1.31.46,2.29,1.36,2.93,2.69.38.9.54,1.79.46,2.68-.07.44-.18.88-.33,1.3-.45,1.08-1.14,1.96-2.09,2.62-.2.12-.41.24-.63.35-1.29.59-2.61.64-3.95.16-1.32-.51-2.28-1.39-2.89-2.66-.04-.1-.07-.2-.08-.31-.5-1.23-.51-2.46-.04-3.68.12-.36.28-.7.49-1.01.49-.85,1.22-1.49,2.2-1.92Z"/>
      </g>
    </g>
  </g>
</svg>