<?xml version="1.0" encoding="UTF-8"?>
<svg id="Layer_2" data-name="Layer 2" xmlns="http://www.w3.org/2000/svg" xmlns:xlink="http://www.w3.org/1999/xlink" viewBox="0 0 55.66 95.12">
  <defs>
    <style>
      .cls-1 {
        fill: #955435;
      }

      .cls-2 {
        fill: #fff;
      }

      .cls-3 {
        fill: #71a2be;
      }

      .cls-4 {
        fill: #676ac6;
      }

      .cls-5 {
        fill: #a8603f;
      }

      .cls-6 {
        fill: url(#radial-gradient);
      }

      .cls-7 {
        fill: #454a51;
      }

      .cls-8 {
        fill: #bf7958;
      }

      .cls-9 {
        fill: #3dbf7b;
      }

      .cls-10 {
        fill: #bfd4e5;
      }

      .cls-11 {
        fill: #25a863;
      }

      .cls-12 {
        fill: #3c3e41;
      }

      .cls-13 {
        fill: #eea160;
      }
    </style>
    <radialGradient id="radial-gradient" cx="-455.84" cy="351.06" fx="-455.84" fy="351.06" r="13.59" gradientTransform="translate(716.58 400.33) scale(1.51 -1)" gradientUnits="userSpaceOnUse">
      <stop offset="0" stop-color="#000" stop-opacity=".3"/>
      <stop offset="1" stop-color="#000" stop-opacity="0"/>
    </radialGradient>
  </defs>
  <g id="Layer_1-2" data-name="Layer 1">
    <g id="Layer_2-2" data-name="Layer 2">
      <g id="back_FL_FL_FL_FL_FL_FL_FL_FL_FL_FL_FL_FL_FL_FL_FL_FL_FL_FL_FL" data-name="back FL FL FL FL FL FL FL FL FL FL FL FL FL FL FL FL FL FL FL">
        <g id="Symbol_1_0_Layer0_0_MEMBER_0_FILL" data-name="Symbol 1 0 Layer0 0 MEMBER 0 FILL">
          <path class="cls-7" d="m11.41,31.52l-3.7-.2c-.4-.03-.77.1-1.1.4-.33.3-.52.67-.55,1.1-.23,4.7-2.1,8.83-5.6,12.4-.3.23-.45.57-.45,1-.03.47.08.85.35,1.15v.05s.07-.07.1-.1c5.17-4.5,8.63-9.45,10.4-14.85.1-.33.28-.65.55-.95Z"/>
          <path class="cls-12" d="m21.86,32.12l-10.45-.6c-.27.3-.45.62-.55.95-1.77,5.4-5.23,10.35-10.4,14.85-.03.03-.07.07-.1.1.3.3.65.48,1.05.55,11,1.17,18.3-3.38,21.9-13.65.1-.37.12-.7.05-1-.1-.33-.28-.6-.55-.8-.3-.27-.62-.4-.95-.4Z"/>
        </g>
        <g id="Symbol_1_0_Layer0_0_MEMBER_1_FILL" data-name="Symbol 1 0 Layer0 0 MEMBER 1 FILL">
          <path class="cls-12" d="m44.81,32.47c-.1-.33-.28-.65-.55-.95l-10.45.6c-.33,0-.65.13-.95.4-.27.2-.45.47-.55.8-.07.3-.05.63.05,1,3.6,10.27,10.9,14.82,21.9,13.65.4-.07.75-.25,1.05-.55l-.1-.1c-5.17-4.5-8.63-9.45-10.4-14.85Z"/>
          <path class="cls-7" d="m49.61,32.82c-.03-.43-.22-.8-.55-1.1-.33-.3-.7-.43-1.1-.4l-3.7.2c.27.3.45.62.55.95,1.77,5.4,5.23,10.35,10.4,14.85l.1.1v-.05c.27-.3.38-.68.35-1.15,0-.43-.15-.77-.45-1-3.5-3.57-5.37-7.7-5.6-12.4Z"/>
        </g>
      </g>
      <g id="arm_0_Layer0_0_FILL" data-name="arm 0 Layer0 0 FILL">
        <path class="cls-8" d="m21.44,68.17c1.37,1.98,2.45,3.49,3.25,4.53s.74,2.11-.18,3.22c-.9,1.04-2.04,1.61-3.43,1.73-1.39.12-2.6-.25-3.64-1.1-2.29-1.91-4.15-4.08-5.59-6.51l8.49-3.89c.33.75.7,1.43,1.1,2.02Z"/>
        <path class="cls-9" d="m18.58,58.87c.19,1.37.41,2.63.67,3.78l-9.16,3.71c-.54-1.39-.98-2.86-1.31-4.42-.66-3.11-.87-6.53-.64-10.25.09-1.41.66-2.59,1.7-3.54,1.06-.97,2.27-1.4,3.64-1.31,1.39-.02,2.56.48,3.5,1.52.92,1.01,1.32,2.22,1.2,3.61-.14,2.5-.01,4.8.39,6.89Z"/>
        <path class="cls-11" d="m11.86,70.04l-1.06.42-2.02-3.57,1.31-.53,9.16-3.71.88-.39,1.48,3.32-1.27.57-8.49,3.89Z"/>
      </g>
      <g id="arm_0_Layer0_0_FILL-2" data-name="arm 0 Layer0 0 FILL">
        <path class="cls-8" d="m36.22,68.17c-1.37,1.98-2.45,3.49-3.25,4.53s-.74,2.11.18,3.22c.9,1.04,2.04,1.61,3.43,1.73,1.39.12,2.6-.25,3.64-1.1,2.29-1.91,4.15-4.08,5.59-6.51l-8.49-3.89c-.33.75-.7,1.43-1.1,2.02Z"/>
        <path class="cls-9" d="m39.08,58.87c-.19,1.37-.41,2.63-.67,3.78l9.16,3.71c.54-1.39.98-2.86,1.31-4.42.66-3.11.87-6.53.64-10.25-.09-1.41-.66-2.59-1.7-3.54-1.06-.97-2.27-1.4-3.64-1.31-1.39-.02-2.56.48-3.5,1.52-.92,1.01-1.32,2.22-1.2,3.61.14,2.5.01,4.8-.39,6.89Z"/>
        <path class="cls-11" d="m45.8,70.04l1.06.42,2.02-3.57-1.31-.53-9.16-3.71-.88-.39-1.48,3.32,1.27.57,8.49,3.89Z"/>
      </g>
      <g id="leg_0_Layer0_0_FILL" data-name="leg 0 Layer0 0 FILL">
        <path class="cls-2" d="m47.96,95.12l.1-3h-14.95v3h14.85Z"/>
        <path class="cls-10" d="m48.06,92.12c-3.23-.9-5.15-2.9-5.75-6h-9.2v6h14.95Z"/>
        <path class="cls-8" d="m42.31,86.12h.05l.15-5h-9.4v5h9.2Z"/>
        <path class="cls-4" d="m42.96,71.92c0-1.6-.63-2.97-1.9-4.1-1.23-1.13-2.75-1.7-4.55-1.7s-3.28.57-4.55,1.7c-1.27,1.13-1.9,2.5-1.9,4.1,1.97,1.6,2.98,4.67,3.05,9.2h9.4l.45-9.2Z"/>
      </g>
      <g id="leg_0_Layer0_0_FILL-2" data-name="leg 0 Layer0 0 FILL">
        <path class="cls-2" d="m10.16,95.12l-.1-3h14.95v3h-14.85Z"/>
        <path class="cls-10" d="m10.06,92.12c3.23-.9,5.15-2.9,5.75-6h9.2v6h-14.95Z"/>
        <path class="cls-8" d="m15.81,86.12h-.05l-.15-5h9.4v5h-9.2Z"/>
        <path class="cls-4" d="m15.16,71.92c0-1.6.63-2.97,1.9-4.1,1.23-1.13,2.75-1.7,4.55-1.7s3.28.57,4.55,1.7c1.27,1.13,1.9,2.5,1.9,4.1-1.97,1.6-2.98,4.67-3.05,9.2h-9.4l-.45-9.2Z"/>
      </g>
      <g>
        <g id="body_0_Layer0_0_FILL" data-name="body 0 Layer0 0 FILL">
          <path class="cls-4" d="m15.31,72.67c-.03,1.43.17,2.95.6,4.55h25.3c.43-1.6.63-3.12.6-4.55H15.31Z"/>
          <path class="cls-11" d="m15.16,67.72h2.95c.5-2.83-1.02-5.5-4.55-8l.2.8c.7,2.23,1.17,4.63,1.4,7.2m28.2-7.2l.2-.8c-3.53,2.5-5.03,5.17-4.5,8h2.95c.23-2.57.68-4.97,1.35-7.2m-4.85-.4c0-.57-.95-1.07-2.85-1.5-1.97-.33-4.33-.5-7.1-.5-2.77,0-5.13.17-7.1.5-1.9.43-2.85.93-2.85,1.5s.95,1.02,2.85,1.35c1.97.43,4.33.65,7.1.65s5.13-.22,7.1-.65c1.9-.33,2.85-.78,2.85-1.35Z"/>
          <path class="cls-12" d="m43.16,67.72H14.01l.75,4.95h27.65l.75-4.95Z"/>
          <path class="cls-9" d="m46.81,53.37c.67-3.37-.03-5.12-2.1-5.25H12.91c-2.43-.13-3.3,1.62-2.6,5.25,1.47,2.1,2.62,4.48,3.45,7.15l-.2-.8c3.53,2.5,5.05,5.17,4.55,8h20.95c-.53-2.83.97-5.5,4.5-8l-.2.8c.83-2.67,1.98-5.05,3.45-7.15m-11.15,5.25c1.9.43,2.85.93,2.85,1.5s-.95,1.02-2.85,1.35c-1.97.43-4.33.65-7.1.65s-5.13-.22-7.1-.65c-1.9-.33-2.85-.78-2.85-1.35s.95-1.07,2.85-1.5c1.97-.33,4.33-.5,7.1-.5,2.77,0,5.13.17,7.1.5Z"/>
        </g>
        <g id="body_0_Layer0_1_FILL" data-name="body 0 Layer0 1 FILL">
          <path class="cls-2" d="m39.11,47.97c-.2,2.13-1.2,3.97-3,5.5-2.1,1.77-4.62,2.65-7.55,2.65-2.93,0-5.45-.88-7.55-2.65-1.8-1.5-2.78-3.3-2.95-5.4-.37.83-.55,1.7-.55,2.6,0,.17.02.33.05.5.1,2.07,1.15,3.82,3.15,5.25,2.17,1.63,4.78,2.45,7.85,2.45s5.7-.82,7.9-2.45c2-1.43,3.05-3.18,3.15-5.25.03-.17.05-.33.05-.5,0-.93-.18-1.83-.55-2.7Z"/>
          <path class="cls-8" d="m39.16,47.17c0-2.47-1.02-4.6-3.05-6.4-2.1-1.7-4.62-2.55-7.55-2.55s-5.45.85-7.55,2.55c-2.03,1.8-3.05,3.93-3.05,6.4,0,.17.02.33.05.5,0,.13.02.27.05.4.17,2.1,1.15,3.9,2.95,5.4,2.1,1.77,4.62,2.65,7.55,2.65,2.93,0,5.45-.88,7.55-2.65,1.8-1.53,2.8-3.37,3-5.5v-.3c.03-.17.05-.33.05-.5Z"/>
        </g>
      </g>
      <g id="shadow_0_Layer0_0_FILL" data-name="shadow 0 Layer0 0 FILL">
        <path class="cls-6" d="m43.7,39.72c-3.92-2.6-8.67-3.9-14.24-3.9s-10.38,1.3-14.4,3.9c-3.92,2.67-5.88,5.85-5.88,9.55s1.96,6.85,5.88,9.45c4.02,2.67,8.82,4,14.4,4s10.33-1.33,14.24-4c4.02-2.6,6.03-5.75,6.03-9.45s-2.01-6.88-6.03-9.55Z"/>
      </g>
      <g>
        <g id="headShock_0_Layer0_0_FILL" data-name="headShock 0 Layer0 0 FILL">
          <path class="cls-12" d="m51.27,21.24c-.8-4.75-3.57-8.66-8.3-11.74-5.16-3.38-11.14-4.76-17.95-4.14s-12.44,3.06-16.91,7.32c-4.06,3.89-6.06,8.23-5.99,13.05.86,5.38,3.66,9.82,8.4,13.34,5.21,3.88,11.21,5.5,18.02,4.88s12.42-3.31,16.84-8.06c4.06-4.32,6.02-9.2,5.89-14.65Z"/>
          <path class="cls-7" d="m51.19,19.79c-.55-6.04-3.43-11-8.64-14.88C37.35,1.1,31.35-.49,24.54.13S12.12,3.41,7.7,8.09C3.31,12.85,1.39,18.24,1.94,24.28c.05.5.11.98.18,1.44-.07-4.81,1.93-9.16,5.99-13.05,4.47-4.26,10.1-6.7,16.91-7.32s12.79.76,17.95,4.14c4.73,3.08,7.5,7,8.3,11.74,0-.47-.04-.95-.08-1.45Z"/>
        </g>
        <g id="headShock_0_Layer0_1_MEMBER_0_FILL" data-name="headShock 0 Layer0 1 MEMBER 0 FILL">
          <path class="cls-8" d="m1.4,33.17c.2,2.19,1.15,4,2.85,5.41,1.71,1.48,3.66,2.13,5.85,1.93,2.16-.2,3.96-1.18,5.4-2.95,1.42-1.7,2.03-3.65,1.83-5.84s-1.16-4.09-2.86-5.51c-1.74-1.45-3.69-2.07-5.84-1.88s-3.99,1.17-5.41,2.9c-1.42,1.7-2.02,3.68-1.82,5.94m3.19-.29c-.12-1.29.24-2.5,1.08-3.61.84-1.01,1.93-1.58,3.26-1.7s2.53.24,3.51,1.09c1.02.94,1.59,2.06,1.71,3.36s-.24,2.5-1.09,3.51c-.81,1.04-1.89,1.63-3.25,1.75s-2.5-.26-3.52-1.14c-1.01-.84-1.58-1.93-1.7-3.26m40.89-11.91c-2.19.2-3.99,1.17-5.41,2.9-1.42,1.7-2.02,3.68-1.82,5.94s1.15,4,2.85,5.41c1.71,1.48,3.66,2.13,5.85,1.93,2.16-.2,3.96-1.18,5.4-2.95,1.42-1.7,2.03-3.65,1.83-5.84s-1.16-4.09-2.86-5.51c-1.74-1.45-3.69-2.07-5.84-1.88m1.18,12.95c-1.33.12-2.5-.26-3.52-1.14-1.01-.84-1.58-1.93-1.7-3.26s.24-2.5,1.08-3.61c.84-1.01,1.93-1.58,3.26-1.7s2.5.24,3.51,1.09c1.02.94,1.59,2.06,1.71,3.36.12,1.33-.24,2.5-1.09,3.51-.84,1.05-1.93,1.63-3.25,1.75Z"/>
          <path class="cls-5" d="m5.66,29.27c-.84,1.11-1.19,2.32-1.08,3.61.12,1.33.69,2.41,1.7,3.26,1.02.88,2.19,1.26,3.52,1.14s2.45-.71,3.25-1.75c.84-1.01,1.21-2.19,1.09-3.51s-.69-2.41-1.71-3.36c-.98-.85-2.15-1.21-3.51-1.09s-2.41.69-3.26,1.7m37.47,3.51c1.02.88,2.19,1.26,3.52,1.14s2.41-.71,3.25-1.75c.84-1.01,1.21-2.19,1.09-3.51-.12-1.29-.69-2.41-1.71-3.36-1.01-.84-2.19-1.21-3.51-1.09s-2.41.69-3.26,1.7c-.84,1.11-1.19,2.32-1.08,3.61s.69,2.41,1.7,3.26Z"/>
        </g>
        <g id="headShock_0_Layer0_1_MEMBER_1_FILL" data-name="headShock 0 Layer0 1 MEMBER 1 FILL">
          <path class="cls-8" d="m47,36.59l.24-22.67-41.68,3.8,4.34,22.25c1.81,4.79,5.57,7.89,11.29,9.31,2.88.71,5.64.91,8.29.6,2.69-.18,5.38-.88,8.04-2.09,5.4-2.43,8.56-6.17,9.47-11.21Z"/>
        </g>
        <g id="headShock_0_Layer0_1_MEMBER_2_FILL" data-name="headShock 0 Layer0 1 MEMBER 2 FILL">
          <path class="cls-1" d="m30.71,36.87c.65-.53.95-1.09.9-1.69-.05-.6-.45-1.11-1.2-1.55-.7-.37-1.54-.51-2.5-.42-.9.08-1.66.37-2.28.86-.62.56-.9,1.14-.85,1.73s.43,1.1,1.14,1.5c.71.44,1.51.62,2.41.53.96-.09,1.75-.41,2.37-.97Z"/>
        </g>
        <g id="headShock_0_Layer0_1_MEMBER_2_MEMBER_0_FILL" data-name="headShock 0 Layer0 1 MEMBER 2 MEMBER 0 FILL">
          <path class="cls-12" d="m15.42,33.9c-.01-.13-.02-.25-.03-.35-.11-1.16.18-2.19.87-3.09.57-.72,1.3-1.21,2.18-1.45l-5.73.52c1.49.97,2.4,2.43,2.71,4.37m6.82,1.54c.4-.71.56-1.56.47-2.55s-.4-1.77-.92-2.43c-.53-.65-1.14-.95-1.84-.89-.66.06-1.18.46-1.55,1.2-.4.74-.56,1.59-.47,2.55s.4,1.8.92,2.43c.5.66,1.07.96,1.74.9.7-.06,1.25-.47,1.65-1.2m18.2-4.17l.03.35c-.05-1.97.56-3.57,1.82-4.79l-5.68.52c.91.08,1.71.43,2.4,1.04.84.76,1.31,1.72,1.42,2.88m-7.32.67c.09,1,.4,1.8.92,2.43.5.66,1.09.95,1.79.89s1.2-.46,1.6-1.2c.4-.71.56-1.56.47-2.55s-.4-1.77-.92-2.43c-.53-.65-1.12-.95-1.79-.89-.7.06-1.23.46-1.6,1.2-.4.74-.56,1.59-.47,2.55Z"/>
          <path class="cls-2" d="m18.84,28.92c-.13.01-.26.04-.39.09-.88.25-1.61.73-2.18,1.45-.69.9-.98,1.93-.87,3.09,0,.1.02.22.03.35.16.99.62,1.83,1.39,2.53.88.79,1.89,1.13,3.06,1.03s2.04-.62,2.72-1.55c.72-.9,1.03-1.93.92-3.1s-.6-2.12-1.47-2.88c-.84-.79-1.83-1.14-2.96-1.04-.1,0-.18.02-.25.02m3.88,3.96c.09,1-.07,1.85-.47,2.55-.4.74-.95,1.14-1.65,1.2s-1.24-.24-1.74-.9c-.53-.62-.83-1.43-.92-2.43s.07-1.81.47-2.55c.37-.74.88-1.13,1.55-1.2.7-.06,1.31.23,1.84.89.53.65.84,1.46.92,2.43m13.9-5.54c-.14-.02-.27-.03-.4-.01-.1,0-.2.02-.3.03-1.13.1-2.02.62-2.67,1.55-.72.9-1.03,1.93-.92,3.1.11,1.16.6,2.12,1.47,2.88.81.8,1.78,1.14,2.91,1.04,1.2-.11,2.15-.63,2.87-1.57.63-.83.93-1.74.9-2.74l-.03-.35c-.11-1.16-.58-2.12-1.42-2.88-.69-.61-1.49-.95-2.4-1.04m-2.57,7.01c-.53-.62-.83-1.43-.92-2.43s.07-1.81.47-2.55c.37-.74.9-1.14,1.6-1.2.66-.06,1.26.24,1.79.89.53.65.84,1.46.92,2.43s-.07,1.85-.47,2.55c-.4.74-.93,1.14-1.6,1.2-.7.06-1.29-.23-1.79-.89Z"/>
        </g>
        <g id="headShock_0_Layer0_1_MEMBER_2_MEMBER_1_FILL" data-name="headShock 0 Layer0 1 MEMBER 2 MEMBER 1 FILL">
          <path class="cls-5" d="m28.63,39.92c-1,.09-1.8.5-2.4,1.22-.6.76-.86,1.62-.77,2.58s.5,1.8,1.22,2.4c.72.6,1.58.86,2.58.77s1.75-.49,2.35-1.22c.64-.73.91-1.59.82-2.59s-.51-1.76-1.27-2.39c-.72-.6-1.57-.86-2.53-.77Z"/>
        </g>
        <g id="headShock_0_Layer0_2_FILL" data-name="headShock 0 Layer0 2 FILL">
          <path class="cls-12" d="m47.67,22.47l.23-8.46-.55.05-.08-.85-42.52,3.88,1.34,7.56c7.12-.78,12.28-2.63,15.46-5.53,3.84,3.97,7.71,5.82,11.6,5.57l1.16-3.22c4.63,1.25,9.08,1.58,13.35.99Z"/>
        </g>
        <g id="headShock_0_Layer0_3_FILL" data-name="headShock 0 Layer0 3 FILL">
          <path class="cls-3" d="m43.89,13.48c-.6-.68-1.33-1.33-2.19-1.96-3.97-2.78-9.29-3.87-15.96-3.26s-11.69,2.62-15.06,6.04c-.25.19-.45.41-.59.66-.52.52-.94,1.09-1.25,1.72-.35.57-.34,1.22.03,1.96,4.06-2.85,9.84-4.61,17.34-5.3,7.44-.68,13.42,0,17.96,2.03.23-.76.14-1.39-.27-1.88Z"/>
        </g>
        <g id="headShock_0_Layer0_4_FILL" data-name="headShock 0 Layer0 4 FILL">
          <path class="cls-12" d="m11.63,30.88c.35-.57.46-1.2.33-1.89l-1.16-5.57-4.93.45,1.31,6.16c.13.66.49,1.19,1.1,1.61.57.35,1.18.44,1.83.28h.05c.66-.13,1.15-.48,1.46-1.04Z"/>
        </g>
        <g id="headShock_0_Layer0_5_FILL" data-name="headShock 0 Layer0 5 FILL">
          <path class="cls-12" d="m42.79,26.18c0,.7.22,1.3.67,1.8.45.49,1.01.75,1.68.75h.05c.67.03,1.26-.17,1.75-.62.52-.52.79-1.11.79-1.78l.18-6.29-4.98.45-.13,5.69Z"/>
        </g>
        <g id="headShock_0_Layer0_6_FILL" data-name="headShock 0 Layer0 6 FILL">
          <path class="cls-12" d="m12.29,23.74l.22,2.44,9.18-2.34-.19-2.04-9.21,1.94m29.16,1.56l-.22-2.44-9.36-.25.19,2.04,9.4.65Z"/>
        </g>
        <g id="headShock_0_Layer0_7_FILL" data-name="headShock 0 Layer0 7 FILL">
          <path class="cls-13" d="m48.36,32.3c-.22.49-.25.96-.07,1.41l1.35,3.74c.18.45.49.79.95,1.02.45.19.92.2,1.41.02h.05c.45-.18.79-.5,1.02-.95.22-.49.25-.98.07-1.46l-1.34-3.69c-.18-.45-.51-.79-1-1.01-.49-.19-.94-.2-1.36-.03h-.05c-.49.18-.83.5-1.02.95Z"/>
        </g>
        <g id="headShock_0_Layer0_8_FILL" data-name="headShock 0 Layer0 8 FILL">
          <path class="cls-13" d="m7.88,35.99c-.27-.41-.66-.66-1.17-.75h-.05c-.48-.09-.94,0-1.38.28-.44.31-.71.7-.8,1.18l-.6,3.87c-.09.51.02.99.33,1.43.3.41.68.66,1.12.75h.05c.51.08.97,0,1.38-.28.44-.31.71-.7.8-1.18l.65-3.92c.09-.48-.02-.94-.33-1.38Z"/>
        </g>
      </g>
    </g>
  </g>
</svg>